<svg width="10" height="16" viewBox="0 0 10 16" fill="none" xmlns="http://www.w3.org/2000/svg">
<path d="M3.45148 4.1478L3.45148 10.3571C3.44841 10.5342 3.48062 10.71 3.54623 10.8745C3.61185 11.0389 3.70955 11.1886 3.83365 11.3149C3.95775 11.4412 4.10575 11.5415 4.26902 11.6099C4.4323 11.6784 4.60757 11.7136 4.78461 11.7136C4.96166 11.7136 5.13693 11.6784 5.30021 11.6099C5.46348 11.5415 5.61148 11.4412 5.73558 11.3149C5.85968 11.1886 5.95739 11.0389 6.023 10.8745C6.08862 10.71 6.12082 10.5342 6.11775 10.3571L6.03667 4.22888C6.02451 3.52977 5.73826 2.8634 5.23956 2.37329C4.74086 1.88319 4.06962 1.60856 3.3704 1.60856C2.67118 1.60856 1.99994 1.88319 1.50124 2.37329C1.00254 2.8634 0.716289 3.52977 0.704138 4.22888L0.784277 10.3571C0.784277 11.4181 1.20574 12.4356 1.95595 13.1858C2.70616 13.936 3.72366 14.3575 4.78462 14.3575C5.84557 14.3575 6.86307 13.936 7.61328 13.1858C8.36349 12.4356 8.78495 11.4181 8.78495 10.3571L8.79155 4.46459" stroke="white" stroke-width="1.4" stroke-linecap="round" stroke-linejoin="round"/>
</svg>
