<svg width="128" height="128" viewBox="0 0 128 128" fill="none" xmlns="http://www.w3.org/2000/svg">
<g filter="url(#filter0_d_14_195)">
<circle cx="60" cy="60" r="50" fill="white"/>
<circle cx="60" cy="60" r="49.75" stroke="#1B398F" stroke-width="0.5"/>
</g>
<path d="M60.544 59.9432C64.0979 59.9432 67.1754 58.6685 69.6899 56.1536C72.2044 53.6392 73.479 50.5625 73.479 47.0082C73.479 43.455 72.2044 40.378 69.6895 37.8627C67.1746 35.3486 64.0975 34.074 60.544 34.074C56.9896 34.074 53.9129 35.3486 51.3984 37.8631C48.884 40.3776 47.6089 43.4546 47.6089 47.0082C47.6089 50.5625 48.884 53.6396 51.3989 56.1541C53.9138 58.6681 56.9908 59.9432 60.544 59.9432Z" fill="#1B398F"/>
<path d="M83.1765 75.3696C83.104 74.3232 82.9573 73.1817 82.7414 71.9762C82.5234 70.7618 82.2428 69.6138 81.9068 68.5645C81.5598 67.4799 81.0878 66.4089 80.5043 65.3825C79.8987 64.3173 79.1874 63.3896 78.3893 62.6263C77.5547 61.8278 76.5328 61.1857 75.3512 60.7174C74.1736 60.2515 72.8686 60.0155 71.4727 60.0155C70.9245 60.0155 70.3943 60.2405 69.3704 60.9071C68.7402 61.3181 68.0031 61.7933 67.1804 62.319C66.4769 62.7673 65.5239 63.1872 64.3467 63.5675C63.1983 63.9391 62.0322 64.1275 60.8813 64.1275C59.7303 64.1275 58.5647 63.9391 57.415 63.5675C56.2391 63.1876 55.286 62.7677 54.5833 62.3194C53.7684 61.7987 53.0309 61.3234 52.3913 60.9067C51.3686 60.2401 50.838 60.0151 50.2898 60.0151C48.8935 60.0151 47.5889 60.2515 46.4118 60.7178C45.2309 61.1853 44.2087 61.8274 43.3732 62.6267C42.5755 63.3905 41.8638 64.3177 41.259 65.3825C40.676 66.4089 40.204 67.4795 39.8565 68.5649C39.521 69.6142 39.2403 70.7618 39.0223 71.9762C38.8064 73.18 38.6597 74.3219 38.5872 75.3708C38.5159 76.3984 38.4799 77.4649 38.4799 78.5421C38.4799 81.3454 39.371 83.6149 41.1283 85.2886C42.8639 86.9402 45.1605 87.7781 47.9532 87.7781H73.8118C76.6045 87.7781 78.9002 86.9406 80.6362 85.2886C82.394 83.6161 83.2851 81.3463 83.2851 78.5417C83.2847 77.4596 83.2482 76.3923 83.1765 75.3696Z" fill="#1B398F"/>
<defs>
<filter id="filter0_d_14_195" x="0" y="0" width="128" height="128" filterUnits="userSpaceOnUse" color-interpolation-filters="sRGB">
<feFlood flood-opacity="0" result="BackgroundImageFix"/>
<feColorMatrix in="SourceAlpha" type="matrix" values="0 0 0 0 0 0 0 0 0 0 0 0 0 0 0 0 0 0 127 0" result="hardAlpha"/>
<feOffset dx="4" dy="4"/>
<feGaussianBlur stdDeviation="7"/>
<feComposite in2="hardAlpha" operator="out"/>
<feColorMatrix type="matrix" values="0 0 0 0 0.796078 0 0 0 0 0.784314 0 0 0 0 0.737255 0 0 0 0.25 0"/>
<feBlend mode="normal" in2="BackgroundImageFix" result="effect1_dropShadow_14_195"/>
<feBlend mode="normal" in="SourceGraphic" in2="effect1_dropShadow_14_195" result="shape"/>
</filter>
</defs>
</svg>
