<svg width="46" height="54" viewBox="0 0 46 54" fill="none" xmlns="http://www.w3.org/2000/svg">
<path d="M22.544 25.9432C26.0979 25.9432 29.1754 24.6685 31.6899 22.1536C34.2044 19.6392 35.479 16.5625 35.479 13.0082C35.479 9.45504 34.2044 6.378 31.6895 3.8627C29.1746 1.34863 26.0975 0.0739746 22.544 0.0739746C18.9896 0.0739746 15.9129 1.34863 13.3984 3.86311C10.884 6.37759 9.60889 9.45463 9.60889 13.0082C9.60889 16.5625 10.884 19.6396 13.3989 22.1541C15.9138 24.6681 18.9908 25.9432 22.544 25.9432Z" fill="#016323"/>
<path d="M45.1767 41.3696C45.1041 40.3232 44.9575 39.1817 44.7415 37.9762C44.5236 36.7618 44.2429 35.6138 43.9069 34.5645C43.5599 33.4799 43.0879 32.4089 42.5044 31.3825C41.8988 30.3173 41.1876 29.3896 40.3894 28.6263C39.5548 27.8278 38.5329 27.1857 37.3513 26.7174C36.1737 26.2515 34.8688 26.0155 33.4728 26.0155C32.9246 26.0155 32.3944 26.2405 31.3705 26.9071C30.7404 27.3181 30.0033 27.7933 29.1805 28.319C28.477 28.7673 27.524 29.1872 26.3468 29.5675C25.1984 29.9391 24.0323 30.1275 22.8814 30.1275C21.7305 30.1275 20.5648 29.9391 19.4151 29.5675C18.2392 29.1876 17.2862 28.7677 16.5835 28.3194C15.7685 27.7987 15.031 27.3234 14.3914 26.9067C13.3688 26.2401 12.8382 26.0151 12.2899 26.0151C10.8936 26.0151 9.58903 26.2515 8.41188 26.7178C7.23105 27.1853 6.20878 27.8274 5.37335 28.6267C4.57561 29.3905 3.86391 30.3177 3.25916 31.3825C2.67612 32.4089 2.20411 33.4795 1.85666 34.5649C1.5211 35.6142 1.24043 36.7618 1.02246 37.9762C0.806533 39.18 0.659851 40.3219 0.587329 41.3708C0.516036 42.3984 0.47998 43.4649 0.47998 44.5421C0.47998 47.3454 1.37114 49.6149 3.12845 51.2886C4.86406 52.9402 7.16058 53.7781 9.95327 53.7781H35.8119C38.6046 53.7781 40.9003 52.9406 42.6364 51.2886C44.3941 49.6161 45.2852 47.3463 45.2852 44.5417C45.2848 43.4596 45.2484 42.3923 45.1767 41.3696Z" fill="#016323"/>
</svg>
