<svg width="46" height="54" viewBox="0 0 46 54" fill="none" xmlns="http://www.w3.org/2000/svg">
<path d="M22.544 25.9432C26.0979 25.9432 29.1754 24.6685 31.6899 22.1536C34.2044 19.6392 35.479 16.5625 35.479 13.0082C35.479 9.45504 34.2044 6.378 31.6895 3.8627C29.1746 1.34863 26.0975 0.0739746 22.544 0.0739746C18.9896 0.0739746 15.9129 1.34863 13.3984 3.86311C10.884 6.37759 9.60889 9.45463 9.60889 13.0082C9.60889 16.5625 10.884 19.6396 13.3989 22.1541C15.9138 24.6681 18.9908 25.9432 22.544 25.9432Z" fill="#1B398F"/>
<path d="M45.1765 41.3696C45.104 40.3232 44.9573 39.1817 44.7414 37.9762C44.5234 36.7618 44.2428 35.6138 43.9068 34.5645C43.5598 33.4799 43.0878 32.4089 42.5043 31.3825C41.8987 30.3173 41.1874 29.3896 40.3893 28.6263C39.5547 27.8278 38.5328 27.1857 37.3512 26.7174C36.1736 26.2515 34.8686 26.0155 33.4727 26.0155C32.9245 26.0155 32.3943 26.2405 31.3704 26.9071C30.7402 27.3181 30.0031 27.7933 29.1804 28.319C28.4769 28.7673 27.5239 29.1872 26.3467 29.5675C25.1983 29.9391 24.0322 30.1275 22.8813 30.1275C21.7303 30.1275 20.5647 29.9391 19.415 29.5675C18.2391 29.1876 17.286 28.7677 16.5833 28.3194C15.7684 27.7987 15.0309 27.3234 14.3913 26.9067C13.3686 26.2401 12.838 26.0151 12.2898 26.0151C10.8935 26.0151 9.5889 26.2515 8.41176 26.7178C7.23093 27.1853 6.20866 27.8274 5.37323 28.6267C4.57549 29.3905 3.86379 30.3177 3.25903 31.3825C2.67599 32.4089 2.20399 33.4795 1.85654 34.5649C1.52097 35.6142 1.24031 36.7618 1.02234 37.9762C0.806411 39.18 0.659728 40.3219 0.587207 41.3708C0.515914 42.3984 0.479858 43.4649 0.479858 44.5421C0.479858 47.3454 1.37101 49.6149 3.12833 51.2886C4.86393 52.9402 7.16045 53.7781 9.95315 53.7781H35.8118C38.6045 53.7781 40.9002 52.9406 42.6362 51.2886C44.394 49.6161 45.2851 47.3463 45.2851 44.5417C45.2847 43.4596 45.2482 42.3923 45.1765 41.3696Z" fill="#1B398F"/>
</svg>
