<svg width="140" height="140" viewBox="0 0 140 140" fill="none" xmlns="http://www.w3.org/2000/svg">
<g clip-path="url(#clip0_1883_13489)">
<rect width="140" height="140" rx="8" fill="#F0F2F9"/>
<path opacity="0.7" d="M92.2575 97.6698C92.2575 97.6698 104.473 96.9087 112.88 81.8867C121.287 66.8646 119.771 43.9494 109.315 31.2201C98.8602 18.4909 82.5821 14.159 67.0527 18.234C59.4853 20.2198 54.4393 25.366 50.0792 31.5709C46.2799 36.9771 42.0076 42.1891 36.2568 45.6095C30.5656 48.9985 24.7115 51.6985 21.8487 58.1383C14.8514 73.7993 19.9694 92.035 36.5105 98.1804C54.339 104.799 84.1106 101.234 92.2575 97.6698Z" fill="#F0F2F9"/>
<path d="M32.6203 44.6636H105.857C106.391 44.6636 106.902 44.8754 107.279 45.2525C107.656 45.6297 107.868 46.1411 107.868 46.6744V97.6041H30.6094V46.6776C30.609 46.4132 30.6607 46.1514 30.7615 45.9071C30.8624 45.6628 31.0105 45.4407 31.1972 45.2537C31.384 45.0666 31.6058 44.9182 31.85 44.8169C32.0942 44.7157 32.3559 44.6636 32.6203 44.6636Z" fill="#263238"/>
<path d="M108.028 97.7607H30.4531V46.6776C30.4531 46.1024 30.6814 45.5508 31.0878 45.1438C31.4942 44.7368 32.0455 44.5078 32.6206 44.507H105.858C106.433 44.5078 106.985 44.7367 107.392 45.1436C107.799 45.5505 108.028 46.1021 108.028 46.6776V97.7607ZM30.7663 97.4475H107.715V46.6776C107.714 46.1852 107.518 45.7133 107.17 45.3651C106.822 45.017 106.35 44.821 105.858 44.8202H32.6206C32.1285 44.821 31.6569 45.0171 31.3093 45.3653C30.9616 45.7135 30.7663 46.1855 30.7663 46.6776V97.4475Z" fill="#263238"/>
<path d="M117.162 121.879H21.317C20.2583 121.879 19.3657 120.359 19.8355 119.41L30.6103 98.4779H107.872L118.704 119.338C119.176 120.284 118.237 121.879 117.162 121.879Z" fill="#263238"/>
<path d="M117.162 122.035H21.3169C21.02 122.016 20.7328 121.922 20.4823 121.762C20.2319 121.601 20.0265 121.379 19.8855 121.117C19.7078 120.861 19.5967 120.564 19.5623 120.254C19.5278 119.944 19.5711 119.631 19.6882 119.342L30.5068 98.3213H107.966L108.01 98.4027L118.841 119.266C118.958 119.562 118.999 119.882 118.96 120.198C118.922 120.513 118.806 120.814 118.622 121.074C118.477 121.342 118.268 121.571 118.014 121.739C117.759 121.906 117.466 122.008 117.162 122.035ZM30.7135 98.6345L19.9732 119.489C19.8805 119.73 19.8488 119.99 19.8811 120.246C19.9133 120.503 20.0085 120.747 20.158 120.958C20.272 121.172 20.4376 121.355 20.64 121.49C20.8423 121.624 21.075 121.706 21.3169 121.728H117.162C117.413 121.701 117.653 121.613 117.861 121.471C118.07 121.329 118.239 121.137 118.356 120.914C118.51 120.7 118.61 120.451 118.646 120.189C118.682 119.928 118.653 119.661 118.562 119.414L107.775 98.6345H30.7135Z" fill="#263238"/>
<path d="M117.162 121.005H21.3167C21.0741 121.005 20.8356 120.943 20.6235 120.825C20.4115 120.707 20.233 120.537 20.1051 120.331C19.9771 120.125 19.9039 119.89 19.8923 119.648C19.8807 119.405 19.9311 119.164 20.0388 118.947L30.61 97.604H107.872L118.44 118.947C118.548 119.164 118.598 119.405 118.587 119.648C118.575 119.89 118.502 120.125 118.374 120.331C118.246 120.537 118.067 120.707 117.855 120.825C117.643 120.943 117.405 121.005 117.162 121.005Z" fill="white"/>
<path d="M117.162 121.161H21.3163C21.046 121.164 20.7797 121.097 20.5427 120.967C20.3056 120.837 20.1058 120.649 19.9623 120.42C19.8187 120.191 19.7362 119.929 19.7227 119.659C19.7091 119.389 19.765 119.12 19.8849 118.878L30.456 97.5353C30.4683 97.5084 30.4882 97.4858 30.5133 97.4702C30.5384 97.4546 30.5675 97.4467 30.597 97.4476H107.872C107.901 97.4469 107.929 97.4549 107.954 97.4705C107.978 97.4862 107.998 97.5087 108.009 97.5353L118.581 118.878C118.7 119.119 118.756 119.387 118.743 119.656C118.73 119.925 118.649 120.186 118.506 120.415C118.364 120.643 118.166 120.832 117.931 120.962C117.696 121.093 117.431 121.162 117.162 121.161ZM30.7129 97.7608L20.1793 119.016C20.0833 119.209 20.0383 119.424 20.0485 119.64C20.0588 119.856 20.1239 120.065 20.2378 120.249C20.3516 120.432 20.5104 120.583 20.6992 120.688C20.8879 120.793 21.1003 120.848 21.3163 120.848H117.162C117.378 120.848 117.59 120.793 117.779 120.688C117.968 120.583 118.126 120.432 118.24 120.249C118.354 120.065 118.419 119.856 118.429 119.64C118.44 119.424 118.395 119.209 118.299 119.016L107.774 97.7608H30.7129Z" fill="#263238"/>
<path d="M103.192 48.8544H35.2891V93.4099H103.192V48.8544Z" fill="white"/>
<path d="M103.346 93.5667H35.1328V48.701H103.346V93.5667ZM35.446 93.2535H103.033V49.0143H35.446V93.2535Z" fill="#263238"/>
<path d="M101.676 69.1605H37.0527V91.8063H101.676V69.1605Z" fill="#182252"/>
<path opacity="0.46" d="M45.3137 82.7794V82.2156C45.3137 82.1325 45.2807 82.0529 45.222 81.9941C45.1632 81.9354 45.0835 81.9024 45.0005 81.9024H44.5682C44.5025 81.6152 44.3892 81.341 44.2331 81.0911L44.5463 80.7779C44.6009 80.7198 44.6313 80.6431 44.6313 80.5634C44.6313 80.4836 44.6009 80.4069 44.5463 80.3488L44.1423 79.9448C44.084 79.8892 44.0066 79.8583 43.9261 79.8583C43.8457 79.8583 43.7683 79.8892 43.71 79.9448L43.3968 80.258C43.1461 80.1013 42.8708 79.988 42.5824 79.9228V79.4812C42.5824 79.3981 42.5494 79.3185 42.4907 79.2597C42.4319 79.201 42.3523 79.168 42.2692 79.168H41.6991C41.6161 79.168 41.5364 79.201 41.4777 79.2597C41.4189 79.3185 41.3859 79.3981 41.3859 79.4812V79.9228C41.0987 79.9886 40.8245 80.1018 40.5747 80.258L40.2615 79.9448C40.2034 79.8901 40.1266 79.8597 40.0469 79.8597C39.9672 79.8597 39.8904 79.8901 39.8323 79.9448L39.4439 80.3363C39.3893 80.3944 39.3589 80.4711 39.3589 80.5508C39.3589 80.6306 39.3893 80.7073 39.4439 80.7654L39.7572 81.0786C39.601 81.3285 39.4877 81.6027 39.422 81.8899H38.9929C38.9098 81.8899 38.8302 81.9229 38.7714 81.9816C38.7127 82.0403 38.6797 82.12 38.6797 82.2031V82.7731C38.6797 82.8562 38.7127 82.9359 38.7714 82.9946C38.8302 83.0534 38.9098 83.0864 38.9929 83.0864H39.4345C39.4997 83.3747 39.613 83.65 39.7697 83.9007L39.4565 84.214C39.4019 84.272 39.3714 84.3488 39.3714 84.4285C39.3714 84.5082 39.4019 84.585 39.4565 84.6431L39.8605 85.0471C39.9186 85.1017 39.9954 85.1321 40.0751 85.1321C40.1548 85.1321 40.2316 85.1017 40.2896 85.0471L40.6029 84.7339C40.8527 84.89 41.1269 85.0033 41.4141 85.069V85.5107C41.4141 85.5938 41.4471 85.6734 41.5058 85.7322C41.5646 85.7909 41.6442 85.8239 41.7273 85.8239H42.2974C42.3805 85.8239 42.4601 85.7909 42.5189 85.7322C42.5776 85.6734 42.6106 85.5938 42.6106 85.5107V85.069C42.899 85.0039 43.1743 84.8906 43.425 84.7339L43.7382 85.0471C43.7964 85.1027 43.8738 85.1336 43.9543 85.1336C44.0348 85.1336 44.1122 85.1027 44.1704 85.0471L44.5745 84.6431C44.6291 84.585 44.6595 84.5082 44.6595 84.4285C44.6595 84.3488 44.6291 84.272 44.5745 84.214L44.2613 83.9007C44.418 83.65 44.5313 83.3747 44.5964 83.0864H45.0381C45.1134 83.0773 45.1829 83.0411 45.2336 82.9847C45.2842 82.9282 45.3127 82.8553 45.3137 82.7794ZM42.1251 83.7817C41.8576 83.8088 41.5882 83.7524 41.354 83.6203C41.1197 83.4883 40.9321 83.287 40.8168 83.044C40.7015 82.8011 40.6642 82.5284 40.71 82.2634C40.7557 81.9984 40.8824 81.7541 41.0726 81.564C41.2627 81.3738 41.507 81.2472 41.772 81.2014C42.037 81.1556 42.3097 81.1929 42.5526 81.3082C42.7955 81.4235 42.9969 81.6111 43.1289 81.8454C43.261 82.0796 43.3174 82.349 43.2903 82.6165C43.2601 82.9153 43.1276 83.1944 42.9153 83.4067C42.703 83.619 42.4238 83.7515 42.1251 83.7817Z" fill="white"/>
<path opacity="0.46" d="M50.6907 86.773V86.2029C50.6907 86.1198 50.6577 86.0402 50.599 85.9814C50.5402 85.9227 50.4606 85.8897 50.3775 85.8897H49.9546C49.8884 85.6012 49.774 85.3259 49.6164 85.0753L49.9296 84.7621C49.9851 84.7038 50.0161 84.6265 50.0161 84.546C50.0161 84.4655 49.9851 84.3881 49.9296 84.3299L49.5255 83.9258C49.4673 83.8703 49.3899 83.8393 49.3094 83.8393C49.2289 83.8393 49.1515 83.8703 49.0933 83.9258L48.7801 84.239C48.5291 84.0829 48.2539 83.9696 47.9657 83.9039V83.4685C47.9657 83.3854 47.9327 83.3058 47.874 83.247C47.8152 83.1883 47.7355 83.1553 47.6525 83.1553H47.0793C46.9962 83.1553 46.9165 83.1883 46.8578 83.247C46.7991 83.3058 46.7661 83.3854 46.7661 83.4685V83.9101C46.4779 83.9759 46.2027 84.0891 45.9517 84.2453L45.6385 83.9321C45.5802 83.8765 45.5028 83.8455 45.4223 83.8455C45.3419 83.8455 45.2645 83.8765 45.2062 83.9321L44.8022 84.3361C44.7466 84.3944 44.7157 84.4718 44.7157 84.5522C44.7157 84.6327 44.7466 84.7101 44.8022 84.7684L45.1154 85.0816C44.9564 85.3314 44.842 85.607 44.7771 85.896H44.3386C44.2555 85.896 44.1759 85.929 44.1171 85.9877C44.0584 86.0464 44.0254 86.1261 44.0254 86.2092V86.7792C44.0254 86.8623 44.0584 86.942 44.1171 87.0007C44.1759 87.0595 44.2555 87.0925 44.3386 87.0925H44.7771C44.842 87.3804 44.9565 87.6549 45.1154 87.9037L44.8022 88.2169C44.7466 88.2752 44.7157 88.3526 44.7157 88.433C44.7157 88.5135 44.7466 88.5909 44.8022 88.6492L45.2062 89.0501C45.2645 89.1056 45.3419 89.1366 45.4223 89.1366C45.5028 89.1366 45.5802 89.1056 45.6385 89.0501L45.9517 88.7369C46.2027 88.893 46.4779 89.0063 46.7661 89.072V89.5137C46.7661 89.5967 46.7991 89.6764 46.8578 89.7351C46.9165 89.7939 46.9962 89.8269 47.0793 89.8269H47.6525C47.7355 89.8269 47.8152 89.7939 47.874 89.7351C47.9327 89.6764 47.9657 89.5967 47.9657 89.5137V89.072C48.2539 89.0063 48.5291 88.893 48.7801 88.7369L49.0933 89.0501C49.1515 89.1056 49.2289 89.1366 49.3094 89.1366C49.3899 89.1366 49.4673 89.1056 49.5255 89.0501L49.9296 88.6492C49.9851 88.5909 50.0161 88.5135 50.0161 88.433C50.0161 88.3526 49.9851 88.2752 49.9296 88.2169L49.6164 87.9037C49.774 87.6543 49.8884 87.38 49.9546 87.0925H50.3931C50.4746 87.0884 50.5512 87.0528 50.6068 86.9931C50.6623 86.9334 50.6924 86.8545 50.6907 86.773ZM47.5021 87.7878C47.2338 87.8155 46.9634 87.7594 46.7282 87.6273C46.4931 87.4951 46.3046 87.2934 46.1887 87.0498C46.0727 86.8061 46.0351 86.5326 46.0809 86.2668C46.1267 86.0009 46.2537 85.7558 46.4445 85.565C46.6353 85.3742 46.8804 85.2472 47.1463 85.2014C47.4121 85.1556 47.6856 85.1932 47.9293 85.3091C48.1729 85.4251 48.3746 85.6136 48.5068 85.8487C48.6389 86.0839 48.695 86.3543 48.6673 86.6226C48.6365 86.9211 48.5039 87.2 48.2917 87.4122C48.0794 87.6244 47.8006 87.757 47.5021 87.7878Z" fill="white"/>
<path d="M51.3022 71.3405H39.5878C39.5521 71.3405 39.5178 71.3263 39.4926 71.301C39.4673 71.2758 39.4531 71.2415 39.4531 71.2058C39.4531 71.1698 39.4672 71.1352 39.4924 71.1094C39.5176 71.0837 39.5518 71.0688 39.5878 71.068H51.3022C51.3388 71.068 51.3739 71.0825 51.3997 71.1084C51.4255 71.1342 51.4401 71.1693 51.4401 71.2058C51.4392 71.2418 51.4244 71.2761 51.3986 71.3012C51.3729 71.3264 51.3383 71.3405 51.3022 71.3405Z" fill="#263238"/>
<path d="M51.3022 73.0319H39.5878C39.5518 73.0311 39.5176 73.0162 39.4924 72.9905C39.4672 72.9647 39.4531 72.9301 39.4531 72.8941C39.4531 72.8584 39.4673 72.8241 39.4926 72.7989C39.5178 72.7736 39.5521 72.7594 39.5878 72.7594H51.3022C51.3383 72.7594 51.3729 72.7735 51.3986 72.7986C51.4244 72.8238 51.4392 72.8581 51.4401 72.8941C51.4401 72.9306 51.4255 72.9657 51.3997 72.9915C51.3739 73.0174 51.3388 73.0319 51.3022 73.0319Z" fill="#263238"/>
<path d="M51.3022 74.7201H39.5878C39.5521 74.7201 39.5178 74.7059 39.4926 74.6807C39.4673 74.6554 39.4531 74.6212 39.4531 74.5855C39.4531 74.5494 39.4672 74.5148 39.4924 74.4891C39.5176 74.4633 39.5518 74.4485 39.5878 74.4476H51.3022C51.3388 74.4476 51.3739 74.4622 51.3997 74.488C51.4255 74.5138 51.4401 74.5489 51.4401 74.5855C51.4392 74.6215 51.4244 74.6557 51.3986 74.6809C51.3729 74.7061 51.3383 74.7201 51.3022 74.7201Z" fill="#263238"/>
<path d="M51.3022 76.4115H39.5878C39.5518 76.4107 39.5176 76.3958 39.4924 76.3701C39.4672 76.3443 39.4531 76.3097 39.4531 76.2737C39.4531 76.238 39.4673 76.2037 39.4926 76.1785C39.5178 76.1532 39.5521 76.139 39.5878 76.139H51.3022C51.3383 76.139 51.3729 76.1531 51.3986 76.1783C51.4244 76.2035 51.4392 76.2377 51.4401 76.2737C51.4401 76.3103 51.4255 76.3453 51.3997 76.3712C51.3739 76.397 51.3388 76.4115 51.3022 76.4115Z" fill="#263238"/>
<path d="M100.436 50.9562H38.2931C37.6081 50.9562 37.0527 51.5115 37.0527 52.1965V52.3375C37.0527 53.0225 37.6081 53.5778 38.2931 53.5778H100.436C101.121 53.5778 101.676 53.0225 101.676 52.3375V52.1965C101.676 51.5115 101.121 50.9562 100.436 50.9562Z" fill="#182252"/>
<path d="M100.436 59.6011H38.2931C37.6081 59.6011 37.0527 60.1564 37.0527 60.8414V60.9824C37.0527 61.6674 37.6081 62.2227 38.2931 62.2227H100.436C101.121 62.2227 101.676 61.6674 101.676 60.9824V60.8414C101.676 60.1564 101.121 59.6011 100.436 59.6011Z" fill="#182252"/>
<path d="M66.016 105.012L66.1506 102.158H62.0694L61.7969 105.012H66.016Z" fill="#263238"/>
<path d="M66.1667 105.168H61.625L61.9382 102.002H66.3233L66.1667 105.168ZM61.9695 104.855H65.866L65.9882 102.315H62.2107L61.9695 104.855Z" fill="white"/>
<path d="M74.4546 105.012L74.3168 102.158H70.2324L70.2356 105.012H74.4546Z" fill="#263238"/>
<path d="M74.6218 105.168H70.0801V102.002H74.4652L74.6218 105.168ZM70.3933 104.855H74.2898L74.1676 102.315H70.3902L70.3933 104.855Z" fill="white"/>
<path d="M96.4278 108.059H100.794L99.7699 105.012H95.5508L96.4278 108.059Z" fill="#263238"/>
<path d="M101.009 108.213H96.3108L95.3398 104.852H99.8815L101.009 108.213ZM96.5457 107.9H100.574L99.656 105.165H95.7564L96.5457 107.9Z" fill="white"/>
<path d="M61.7972 105.012L62.0697 102.158H57.9853L57.5781 105.012H61.7972Z" fill="#263238"/>
<path d="M61.9421 105.168H57.4004L57.8514 102.002H62.2365L61.9421 105.168ZM57.7606 104.855H61.6571L61.8982 102.315H58.1396L57.7606 104.855Z" fill="white"/>
<path d="M53.3597 105.012L53.9047 102.158H49.8203L49.1406 105.012H53.3597Z" fill="#263238"/>
<path d="M53.4913 105.168H48.9434L49.6982 102.002H54.0833L53.4913 105.168ZM49.3411 104.855H53.2314L53.7137 102.315H49.9551L49.3411 104.855Z" fill="white"/>
<path d="M91.3316 105.012L90.6457 102.158H86.5645L87.1126 105.012H91.3316Z" fill="#263238"/>
<path d="M91.5287 105.168H86.9807L86.373 102.002H90.7581L91.5287 105.168ZM87.2407 104.855H91.1309L90.5232 102.315H86.7646L87.2407 104.855Z" fill="white"/>
<path d="M95.5496 105.012L94.7258 102.158H90.6445L91.3305 105.012H95.5496Z" fill="#263238"/>
<path d="M95.7564 105.168H91.2053L90.4473 102.002H94.8324L95.7564 105.168ZM91.4527 104.855H95.3398L94.61 102.315H90.8513L91.4527 104.855Z" fill="white"/>
<path d="M49.141 105.012L49.8206 102.158H45.7394L44.9219 105.012H49.141Z" fill="#263238"/>
<path d="M49.2659 105.168H44.7148L45.62 102.002H50.0208L49.2659 105.168ZM45.1314 104.855H49.0154L49.6199 102.315H45.8612L45.1314 104.855Z" fill="white"/>
<path d="M78.6733 105.012L78.3977 102.158H74.3164L74.4542 105.012H78.6733Z" fill="#263238"/>
<path d="M78.8456 105.168H74.3039L74.1504 102.002H78.5355L78.8456 105.168ZM74.6046 104.855H78.501L78.2567 102.315H74.4793L74.6046 104.855Z" fill="white"/>
<path d="M99.7694 105.012L98.811 102.158H94.7266L95.5503 105.012H99.7694Z" fill="#263238"/>
<path d="M99.9852 105.168H95.431L94.5195 102.002H98.9234L99.9852 105.168ZM95.6659 104.855H99.5498L98.6979 102.315H94.9392L95.6659 104.855Z" fill="white"/>
<path d="M87.113 105.012L86.5649 102.158H82.4805L82.8939 105.012H87.113Z" fill="#263238"/>
<path d="M87.2998 105.168H82.7581L82.3008 102.002H86.6859L87.2998 105.168ZM83.0275 104.855H86.9145L86.4259 102.315H82.6673L83.0275 104.855Z" fill="white"/>
<path d="M82.8932 105.012L82.4797 102.158H78.3984L78.6741 105.012H82.8932Z" fill="#263238"/>
<path d="M83.0737 105.168H78.532L78.2188 102.002H82.6038L83.0737 105.168ZM78.8139 104.855H82.7103L82.3439 102.315H78.5696L78.8139 104.855Z" fill="white"/>
<path d="M70.2367 105.012L70.2335 102.158H66.1523L66.0176 105.012H70.2367Z" fill="#263238"/>
<path d="M70.3921 105.168H65.8535L66.0007 102.002H70.3858L70.3921 105.168ZM66.1824 104.855H70.0789V102.315H66.3014L66.1824 104.855Z" fill="white"/>
<path d="M40.7046 105.012H36.4855L35.3203 108.059H39.6835L40.7046 105.012Z" fill="#263238"/>
<path d="M39.796 108.213H35.0977L36.3819 104.852H40.9267L39.796 108.213ZM35.5456 107.9H39.5704L40.485 105.165H36.5917L35.5456 107.9Z" fill="white"/>
<path d="M41.6576 102.158H37.5732L36.4863 105.012H40.7054L41.6576 102.158Z" fill="#263238"/>
<path d="M40.8152 105.168H36.2578L37.4668 102.002H41.8738L40.8152 105.168ZM36.712 104.855H40.5896L41.4385 102.315H37.6798L36.712 104.855Z" fill="white"/>
<path d="M44.921 105.012L45.7385 102.158H41.6573L40.7051 105.012H44.921Z" fill="#263238"/>
<path d="M45.0406 105.168H40.4863L41.545 102.002H45.9301L45.0406 105.168ZM40.9217 104.855H44.8056L45.5323 102.315H41.7737L40.9217 104.855Z" fill="white"/>
<path d="M34.0711 111.326L32.7305 114.837H37.4194L38.5939 111.326H34.0711Z" fill="#263238"/>
<path d="M37.5323 114.994H32.502L33.9804 111.17H38.8259L37.5323 114.994ZM32.9561 114.681H37.3068L38.3654 111.483H34.1808L32.9561 114.681Z" fill="white"/>
<path d="M39.6852 108.059H35.322L34.0723 111.326H38.5952L39.6852 108.059Z" fill="#263238"/>
<path d="M38.7061 111.483H33.8418L35.2106 107.9H39.9089L38.7061 111.483ZM34.2991 111.17H38.4806L39.4672 108.216H35.4267L34.2991 111.17Z" fill="white"/>
<path d="M38.5945 111.326L37.4199 114.837H42.1088L43.1143 111.326H38.5945Z" fill="#263238"/>
<path d="M42.2283 114.994H37.2168L38.4947 111.17H43.334L42.2283 114.994ZM37.6365 114.681H41.9903L42.908 111.483H38.7077L37.6365 114.681Z" fill="white"/>
<path d="M57.5784 105.012L57.9856 102.158H53.9044L53.3594 105.012H57.5784Z" fill="#263238"/>
<path d="M57.7167 105.168H53.1719L53.7733 102.002H58.1583L57.7167 105.168ZM53.5509 104.855H57.4442L57.8044 102.315H54.027L53.5509 104.855Z" fill="white"/>
<path d="M57.1425 108.059L57.5778 105.012H53.3588L52.7793 108.059H57.1425Z" fill="#263238"/>
<path d="M57.2803 108.213H52.582L53.2241 104.852H57.7533L57.2803 108.213ZM52.9673 107.9H57.0078L57.3994 105.165H53.4904L52.9673 107.9Z" fill="white"/>
<path d="M52.7804 108.059L53.3598 105.012H49.1407L48.4141 108.059H52.7804Z" fill="#263238"/>
<path d="M52.9073 108.213H48.209L49.014 104.855H53.5463L52.9073 108.213ZM48.613 107.9H52.6473L53.1704 105.165H49.2645L48.613 107.9Z" fill="white"/>
<path d="M61.5089 108.059L61.797 105.012H57.578L57.1426 108.059H61.5089Z" fill="#263238"/>
<path d="M61.6514 108.213H56.9531L57.4324 104.852H61.9584L61.6514 108.213ZM57.3259 107.9H61.3664L61.6264 105.165H57.7174L57.3259 107.9Z" fill="white"/>
<path d="M44.9206 105.012H40.7047L39.6836 108.059H44.0499L44.9206 105.012Z" fill="#263238"/>
<path d="M44.1671 108.213H39.4688L40.5901 104.852H45.1318L44.1671 108.213ZM39.9041 107.9H43.9321L44.7152 105.165H40.8156L39.9041 107.9Z" fill="white"/>
<path d="M97.3705 111.326H101.89L100.794 108.059H96.4277L97.3705 111.326Z" fill="#263238"/>
<path d="M102.109 111.483H97.2512L96.2207 107.9H100.919L102.109 111.483ZM97.4861 111.17H101.674L100.697 108.213H96.6248L97.4861 111.17Z" fill="white"/>
<path d="M48.4139 108.059L49.1406 105.012H44.9215L44.0508 108.059H48.4139Z" fill="#263238"/>
<path d="M48.5381 108.213H43.8398L44.8046 104.852H49.3275L48.5381 108.213ZM44.2564 107.9H48.2907L48.9422 105.165H45.0395L44.2564 107.9Z" fill="white"/>
<path d="M39.6838 108.059L38.5938 111.326H43.1135L44.05 108.059H39.6838Z" fill="#263238"/>
<path d="M43.2327 111.483H38.3652L39.5711 107.9H44.2694L43.2327 111.483ZM38.81 111.17H42.9946L43.8403 108.216H39.7967L38.81 111.17Z" fill="white"/>
<path d="M87.6974 108.059L87.1117 105.012H82.8926L83.3342 108.059H87.6974Z" fill="#263238"/>
<path d="M87.8889 108.213H83.1906L82.7051 104.852H87.228L87.8889 108.213ZM83.4693 107.9H87.5099L86.9805 105.165H83.0747L83.4693 107.9Z" fill="white"/>
<path d="M83.3345 108.059L82.8929 105.012H78.6738L78.9683 108.059H83.3345Z" fill="#263238"/>
<path d="M83.5135 108.213H78.8152L78.502 104.852H83.028L83.5135 108.213ZM79.1096 107.9H83.1564L82.7617 105.165H78.8465L79.1096 107.9Z" fill="white"/>
<path d="M96.4262 108.059L95.5492 105.012H91.3301L92.063 108.059H96.4262Z" fill="#263238"/>
<path d="M96.6256 108.213H91.9272L91.1191 104.852H95.6546L96.6256 108.213ZM92.1747 107.9H96.209L95.4197 105.165H91.5295L92.1747 107.9Z" fill="white"/>
<path d="M70.2393 108.059L70.2362 105.012H66.0171L65.873 108.059H70.2393Z" fill="#263238"/>
<path d="M70.3956 108.213H65.6973L65.8539 104.852H70.3799L70.3956 108.213ZM66.0387 107.9H70.0824V105.165H66.1671L66.0387 107.9Z" fill="white"/>
<path d="M78.9686 108.059L78.6742 105.012H74.4551L74.6023 108.059H78.9686Z" fill="#263238"/>
<path d="M79.1397 108.213H74.4414L74.2754 104.852H78.8014L79.1397 108.213ZM74.7546 107.9H78.7983L78.5352 105.165H74.6199L74.7546 107.9Z" fill="white"/>
<path d="M74.6026 108.059L74.4554 105.012H70.2363L70.2395 108.059H74.6026Z" fill="#263238"/>
<path d="M74.7686 108.213H70.0703V104.855H74.6058L74.7686 108.213ZM70.3835 107.9H74.4272L74.2925 105.165H70.3929L70.3835 107.9Z" fill="white"/>
<path d="M65.8729 108.059L66.017 105.012H61.7979L61.5098 108.059H65.8729Z" fill="#263238"/>
<path d="M66.0225 108.213H61.3242L61.6374 104.852H66.1635L66.0225 108.213ZM61.6813 107.9H65.725L65.8534 105.165H61.9413L61.6813 107.9Z" fill="white"/>
<path d="M78.9688 108.059L79.2851 111.326H83.8049L83.335 108.059H78.9688Z" fill="#263238"/>
<path d="M83.9869 111.483H79.1414L78.7969 107.9H83.4701L83.9869 111.483ZM79.4265 111.17H83.6267L83.1976 108.213H79.1414L79.4265 111.17Z" fill="white"/>
<path d="M83.334 108.059L83.8038 111.326H88.3267L87.6971 108.059H83.334Z" fill="#263238"/>
<path d="M88.5154 111.483H83.6699L83.1562 107.9H87.8295L88.5154 111.483ZM83.9424 111.17H88.1365L87.5695 108.213H83.5133L83.9424 111.17Z" fill="white"/>
<path d="M44.0498 108.059L43.1133 111.326H47.633L48.413 108.059H44.0498Z" fill="#263238"/>
<path d="M47.7631 111.483H42.9082L43.9324 107.9H48.6151L47.7631 111.483ZM43.3248 111.17H47.5125L48.2173 108.216H44.1674L43.3248 111.17Z" fill="white"/>
<path d="M87.6973 108.059L88.3268 111.326H92.8466L92.0636 108.059H87.6973Z" fill="#263238"/>
<path d="M93.0475 111.483H88.1989L87.5098 107.9H92.1861L93.0475 111.483ZM88.4557 111.17H92.6497L91.9262 108.213H87.8888L88.4557 111.17Z" fill="white"/>
<path d="M70.2383 108.059L70.2414 111.326H74.7612L74.6014 108.059H70.2383Z" fill="#263238"/>
<path d="M74.9284 111.483H70.0859V107.9H74.7561L74.9284 111.483ZM70.3992 111.17H74.5995L74.4554 108.216H70.3835L70.3992 111.17Z" fill="white"/>
<path d="M92.0645 108.059L92.8475 111.326H97.3704L96.4276 108.059H92.0645Z" fill="#263238"/>
<path d="M97.5639 111.483H92.7246L91.8633 107.9H96.5459L97.5639 111.483ZM92.9596 111.17H97.1473L96.311 108.213H92.2611L92.9596 111.17Z" fill="white"/>
<path d="M74.6016 108.059L74.7613 111.326H79.2842L78.9679 108.059H74.6016Z" fill="#263238"/>
<path d="M79.4572 111.483H74.6149L74.4395 107.9H79.1096L79.4572 111.483ZM74.9124 111.17H79.1127L78.8277 108.216H74.7558L74.9124 111.17Z" fill="white"/>
<path d="M52.7796 108.059L52.1562 111.326H56.6792L57.1427 108.059H52.7796Z" fill="#263238"/>
<path d="M56.8143 111.483H51.9688L52.6484 107.9H57.3248L56.8143 111.483ZM52.3446 111.17H56.5324L56.9552 108.216H52.9084L52.3446 111.17Z" fill="white"/>
<path d="M48.4147 108.059L47.6348 111.326H52.1577L52.781 108.059H48.4147Z" fill="#263238"/>
<path d="M52.2853 111.483H47.4492L48.2918 107.9H52.9682L52.2853 111.483ZM47.8345 111.17H52.0285L52.5892 108.216H48.5392L47.8345 111.17Z" fill="white"/>
<path d="M65.873 108.059L65.7227 111.326H70.2424L70.2393 108.059H65.873Z" fill="#263238"/>
<path d="M70.399 111.483H65.5566L65.7258 107.903H70.3959L70.399 111.483ZM65.8855 111.17H70.0858V108.213H66.0139L65.8855 111.17Z" fill="white"/>
<path d="M61.5093 108.059L61.1992 111.326H65.7221L65.8725 108.059H61.5093Z" fill="#263238"/>
<path d="M65.8697 111.483H61.0273L61.3656 107.9H66.0389L65.8697 111.483ZM61.3719 111.17H65.5722L65.71 108.216H61.6381L61.3719 111.17Z" fill="white"/>
<path d="M57.1433 108.059L56.6797 111.326H61.1995L61.5096 108.059H57.1433Z" fill="#263238"/>
<path d="M61.3404 111.483H56.498L57.0086 107.9H61.6818L61.3404 111.483ZM56.8582 111.17H61.0554L61.3373 108.216H57.2654L56.8582 111.17Z" fill="white"/>
<path d="M92.0633 108.059L91.3304 105.012H87.1113L87.697 108.059H92.0633Z" fill="#263238"/>
<path d="M92.2607 108.213H87.5624L86.9141 104.855H91.4464L92.2607 108.213ZM87.8255 107.9H91.8629L91.2052 105.165H87.2993L87.8255 107.9Z" fill="white"/>
<path d="M41.6567 102.158L42.6308 99.2391H38.6873L37.5723 102.158H41.6567Z" fill="#263238"/>
<path d="M41.7703 102.315H37.3477L38.5817 99.0824H42.8509L41.7703 102.315ZM37.8018 102.002H41.5605L42.4312 99.3956H38.7979L37.8018 102.002Z" fill="white"/>
<path d="M37.5732 102.158H33.8051L32.5898 105.012H36.4863L37.5732 102.158Z" fill="#263238"/>
<path d="M36.5933 105.168H32.3555L33.7023 102.002H37.8024L36.5933 105.168ZM32.8347 104.855H36.3835L37.3545 102.315H33.909L32.8347 104.855Z" fill="white"/>
<path d="M38.6878 99.2391H35.0482L33.8047 102.158H37.5727L38.6878 99.2391Z" fill="#263238"/>
<path d="M37.6829 102.315H33.5703L34.9454 99.0824H38.917L37.6829 102.315ZM34.0433 102.002H37.4668L38.4628 99.3956H35.1552L34.0433 102.002Z" fill="white"/>
<path d="M36.4854 105.012H32.5889L31.2891 108.059H35.3202L36.4854 105.012Z" fill="#263238"/>
<path d="M35.428 108.213H31.043L32.4744 104.852H36.6997L35.428 108.213ZM31.5285 107.9H35.2119L36.2581 105.165H32.6936L31.5285 107.9Z" fill="white"/>
<path d="M35.3203 108.059H31.2891L29.8984 111.326H34.0705L35.3203 108.059Z" fill="#263238"/>
<path d="M34.1819 111.483H29.6621L31.1875 107.9H35.5475L34.1819 111.483ZM30.1351 111.17H33.9814L35.109 108.216H31.3942L30.1351 111.17Z" fill="white"/>
<path d="M34.0716 111.326H29.8995L28.4023 114.837H32.731L34.0716 111.326Z" fill="#263238"/>
<path d="M32.8373 114.994H28.1641L29.7959 111.17H34.2938L32.8373 114.994ZM28.6402 114.681H32.6212L33.8427 111.483H30.0027L28.6402 114.681Z" fill="white"/>
<path d="M103.988 105.012L105.157 108.059H109.019L107.719 105.012H103.988Z" fill="#263238"/>
<path d="M109.257 108.213H105.05L103.76 104.852H107.832L109.257 108.213ZM105.266 107.9H108.781L107.615 105.165H104.214L105.266 107.9Z" fill="white"/>
<path d="M106.412 111.326H110.412L109.018 108.059H105.156L106.412 111.326Z" fill="#263238"/>
<path d="M110.648 111.483H106.304L104.932 107.9H109.123L110.648 111.483ZM106.52 111.17H110.175L108.922 108.216H105.395L106.52 111.17Z" fill="white"/>
<path d="M107.759 114.837H111.906L110.412 111.326H106.412L107.759 114.837Z" fill="#263238"/>
<path d="M112.144 114.994H107.653L106.184 111.17H110.515L112.144 114.994ZM107.866 114.681H111.659L110.296 111.483H106.647L107.866 114.681Z" fill="white"/>
<path d="M74.316 102.158L74.1719 99.2391H70.2285L70.2317 102.158H74.316Z" fill="#263238"/>
<path d="M74.48 102.315H70.0762V99.0824H74.3234L74.48 102.315ZM70.3894 102.002H74.148L74.0196 99.3956H70.3863L70.3894 102.002Z" fill="white"/>
<path d="M103.989 105.012H107.719L106.504 102.158H102.893L103.989 105.012Z" fill="#263238"/>
<path d="M107.957 105.168H103.885L102.67 102.002H106.613L107.957 105.168ZM104.095 104.855H107.481L106.4 102.315H103.121L104.095 104.855Z" fill="white"/>
<path d="M101.889 111.326H106.412L105.156 108.059H100.793L101.889 111.326Z" fill="#263238"/>
<path d="M106.648 111.483H101.777L100.574 107.9H105.273L106.648 111.483ZM102.009 111.17H106.19L105.05 108.213H101.01L102.009 111.17Z" fill="white"/>
<path d="M45.7375 102.158L46.5738 99.2391H42.6304L41.6562 102.158H45.7375Z" fill="#263238"/>
<path d="M45.857 102.315H41.4375L42.5181 99.0824H46.781L45.857 102.315ZM41.8729 102.002H45.6315L46.3801 99.3956H42.7499L41.8729 102.002Z" fill="white"/>
<path d="M98.8105 102.158L99.769 105.012H103.988L102.892 102.158H98.8105Z" fill="#263238"/>
<path d="M104.214 105.168H99.6567L98.5918 102.002H102.999L104.214 105.168ZM99.8823 104.855H103.76L102.786 102.315H99.0272L99.8823 104.855Z" fill="white"/>
<path d="M106.502 102.158L105.259 99.2391H101.77L102.891 102.158H106.502Z" fill="#263238"/>
<path d="M106.742 102.315H102.786L101.533 99.0824H105.364L106.742 102.315ZM102.999 102.002H106.266L105.157 99.3956H102L102.999 102.002Z" fill="white"/>
<path d="M102.892 102.158L101.77 99.2391H97.8301L98.8105 102.158H102.892Z" fill="#263238"/>
<path d="M103.121 102.315H98.6982L97.6113 99.0824H101.881L103.121 102.315ZM98.9237 102.002H102.664L101.664 99.3956H98.0467L98.9237 102.002Z" fill="white"/>
<path d="M88.3262 111.326L89.0027 114.837H93.6916L92.8459 111.326H88.3262Z" fill="#263238"/>
<path d="M93.8902 114.994H88.8786L88.1426 111.17H92.9787L93.8902 114.994ZM89.1323 114.681H93.4924L92.725 111.483H88.5153L89.1323 114.681Z" fill="white"/>
<path d="M103.07 114.837H107.758L106.412 111.326H101.889L103.07 114.837Z" fill="#263238"/>
<path d="M107.988 114.994H102.958L101.674 111.17H106.519L107.988 114.994ZM103.184 114.681H107.531L106.303 111.483H102.109L103.184 114.681Z" fill="white"/>
<path d="M98.8105 102.158L97.8302 99.2391H93.8867L94.7261 102.158H98.8105Z" fill="#263238"/>
<path d="M99.026 102.315H94.6096L93.6699 99.0824H97.936L99.026 102.315ZM94.8445 102.002H98.6032L97.7293 99.3956H94.0928L94.8445 102.002Z" fill="white"/>
<path d="M97.3711 111.326L98.3828 114.837H103.072L101.891 111.326H97.3711Z" fill="#263238"/>
<path d="M103.288 114.994H98.2764L97.1738 111.17H102.016L103.288 114.994ZM98.4988 114.681H102.853L101.778 111.483H97.5654L98.4988 114.681Z" fill="white"/>
<path d="M92.8477 111.326L93.6934 114.837H98.3822L97.3706 111.326H92.8477Z" fill="#263238"/>
<path d="M98.5894 114.994H93.5779L92.6602 111.17H97.4963L98.5894 114.994ZM93.8159 114.681H98.1728L97.252 111.483H93.0485L93.8159 114.681Z" fill="white"/>
<path d="M100.794 108.059H105.157L103.989 105.012H99.7695L100.794 108.059Z" fill="#263238"/>
<path d="M105.395 108.213H100.697L99.5664 104.852H104.111L105.395 108.213ZM100.916 107.9H104.941L103.889 105.165H99.9861L100.916 107.9Z" fill="white"/>
<path d="M62.0707 102.158L62.3464 99.2391H58.4029L57.9863 102.158H62.0707Z" fill="#263238"/>
<path d="M62.2117 102.315H57.8047L58.2683 99.0824H62.5187L62.2117 102.315ZM58.168 102.002H61.9267L62.1741 99.3956H58.5408L58.168 102.002Z" fill="white"/>
<path d="M94.7262 102.158L93.8868 99.2391H89.9434L90.645 102.158H94.7262Z" fill="#263238"/>
<path d="M94.937 102.315H90.5237L89.7344 99.0824H93.991L94.937 102.315ZM90.768 102.002H94.5267L93.7749 99.3956H90.1447L90.768 102.002Z" fill="white"/>
<path d="M57.9856 102.158L58.4021 99.2391H54.4587L53.9043 102.158H57.9856Z" fill="#263238"/>
<path d="M58.123 102.315H53.7129L54.3393 99.0824H58.5929L58.123 102.315ZM54.0919 102.002H57.8505L58.2233 99.3956H54.5899L54.0919 102.002Z" fill="white"/>
<path d="M70.2336 102.158L70.2305 99.2391H66.2902L66.1523 102.158H70.2336Z" fill="#263238"/>
<path d="M70.389 102.315H65.9883L66.1386 99.0824H70.3859L70.389 102.315ZM66.3172 102.002H70.0758V99.3956H66.4362L66.3172 102.002Z" fill="white"/>
<path d="M53.9047 102.158L54.4591 99.2391H50.5188L49.8203 102.158H53.9047Z" fill="#263238"/>
<path d="M54.0269 102.315H49.623L50.3936 99.0824H54.6534L54.0269 102.315ZM50.0146 102.002H53.7732L54.2712 99.3956H50.641L50.0146 102.002Z" fill="white"/>
<path d="M49.8195 102.158L50.518 99.2391H46.5746L45.7383 102.158H49.8195Z" fill="#263238"/>
<path d="M49.9539 102.315H45.5312L46.4709 99.0824H50.7307L49.9539 102.315ZM45.9541 102.002H49.7127L50.3392 99.3956H46.6933L45.9541 102.002Z" fill="white"/>
<path d="M66.1516 102.158L66.2894 99.2391H62.3459L62.0703 102.158H66.1516Z" fill="#263238"/>
<path d="M66.3023 102.315H61.8984L62.2117 99.0824H66.4621L66.3023 102.315ZM62.2305 102.002H65.9891L66.1113 99.3956H62.4842L62.2305 102.002Z" fill="white"/>
<path d="M90.645 102.158L89.9434 99.2391H86L86.5638 102.158H90.645Z" fill="#263238"/>
<path d="M90.8432 102.315H86.4331L85.8066 99.0824H90.0633L90.8432 102.315ZM86.6931 102.002H90.4517L89.8253 99.3956H86.1919L86.6931 102.002Z" fill="white"/>
<path d="M86.5647 102.158L86.0009 99.2391H82.0605L82.4803 102.158H86.5647Z" fill="#263238"/>
<path d="M86.7526 102.315H82.3456L81.8789 99.0824H86.1324L86.7526 102.315ZM82.6181 102.002H86.3767L85.8756 99.3956H82.2422L82.6181 102.002Z" fill="white"/>
<path d="M78.3992 102.158L78.1173 99.2391H74.1738L74.3179 102.158H78.3992Z" fill="#263238"/>
<path d="M78.5703 102.315H74.1664L74.0098 99.0824H78.257L78.5703 102.315ZM74.4639 102.002H78.2226L77.9689 99.3956H74.3355L74.4639 102.002Z" fill="white"/>
<path d="M88.3282 111.326H83.8053H79.2855H74.7626H70.2428H65.7231H61.2002H56.6804H52.1575H47.6346H43.1148L42.1094 114.837H46.7983H51.4872H56.1792H60.8681H65.5571H70.246H74.9349H79.6238H84.3127H89.0047L88.3282 111.326Z" fill="#263238"/>
<path d="M89.1908 114.994H41.8945L42.9877 111.17H88.4547L89.1908 114.994ZM42.3142 114.681H88.8118L88.1854 111.483H43.232L42.3142 114.681Z" fill="white"/>
<path d="M82.4803 102.158L82.0606 99.2391H78.1172L78.3991 102.158H82.4803Z" fill="#263238"/>
<path d="M82.6605 102.315H78.2566L77.9434 99.0824H82.1937L82.6605 102.315ZM78.5385 102.002H82.2971L81.9181 99.3956H78.2848L78.5385 102.002Z" fill="white"/>
<path d="M75.3633 74.4417C79.9769 74.4417 83.7169 69.6808 83.7169 63.8079C83.7169 57.935 79.9769 53.1741 75.3633 53.1741C70.7498 53.1741 67.0098 57.935 67.0098 63.8079C67.0098 69.6808 70.7498 74.4417 75.3633 74.4417Z" fill="#263238"/>
<path d="M75.3629 74.5952C70.6646 74.5952 66.8496 69.756 66.8496 63.8079C66.8496 57.8598 70.6678 53.0175 75.3629 53.0175C80.0581 53.0175 83.8731 57.8567 83.8731 63.8079C83.8731 69.7591 80.055 74.5952 75.3629 74.5952ZM75.3629 53.3307C70.84 53.3307 67.1628 58.029 67.1628 63.8079C67.1628 69.5868 70.84 74.282 75.3629 74.282C79.8858 74.282 83.5599 69.5837 83.5599 63.8079C83.5599 58.0321 79.8827 53.3307 75.3629 53.3307Z" fill="#263238"/>
<path d="M56.5321 90.8888C55.7647 90.8888 54.894 90.2091 54.4304 89.7894C53.7789 89.1974 53.1055 88.3674 53.1055 87.9978C53.1055 87.4684 59.3699 68.5781 60.0934 66.4326C60.1015 66.4075 60.1158 66.3849 60.135 66.3668C60.1541 66.3488 60.1776 66.3358 60.203 66.3292C60.2281 66.3229 60.2542 66.3227 60.2793 66.3287C60.3044 66.3347 60.3277 66.3467 60.3471 66.3637L62.7182 68.528C62.7367 68.5448 62.7509 68.5658 62.7596 68.5893C62.7683 68.6127 62.7713 68.6379 62.7683 68.6627L60.4317 89.1849C60.4289 89.2087 60.4206 89.2315 60.4076 89.2516C60.3945 89.2717 60.3771 89.2885 60.3565 89.3008C60.2594 89.3603 57.9729 90.751 56.6543 90.8825L56.5321 90.8888ZM60.3158 66.7708C58.3425 72.722 53.4719 87.4434 53.425 88.0166C53.425 88.1951 53.901 88.8936 54.6465 89.567C55.392 90.2404 56.1343 90.6288 56.6292 90.5818C57.7599 90.4691 59.7614 89.3133 60.1341 89.0847L62.4551 68.7253L60.3158 66.7708Z" fill="#263238"/>
<path d="M74.0873 63.7075L60.2305 66.4795L62.4481 93.7798H89.4727L93.0748 65.3707L76.5806 63.5697L74.0873 63.7075Z" fill="#182252"/>
<path d="M89.4736 93.9364H62.4489C62.4098 93.9365 62.3721 93.9216 62.3436 93.8948C62.3151 93.868 62.2978 93.8314 62.2954 93.7923L60.0747 66.492C60.0717 66.4538 60.0827 66.4158 60.1058 66.3852C60.1289 66.3546 60.1624 66.3336 60.2 66.326L74.0725 63.554L76.5783 63.4131L93.0944 65.2172C93.1358 65.2217 93.1739 65.2419 93.2009 65.2736C93.2137 65.2904 93.2231 65.3096 93.2285 65.33C93.2339 65.3504 93.2351 65.3717 93.2322 65.3926L89.6302 93.8049C89.6242 93.8419 89.6051 93.8756 89.5763 93.8997C89.5476 93.9239 89.5111 93.9369 89.4736 93.9364ZM62.5961 93.6232H89.3358L92.9002 65.5117L76.5783 63.7357L74.1195 63.8735L60.4099 66.6173L62.5961 93.6232Z" fill="#263238"/>
<path opacity="0.3" d="M62.449 93.7799H89.4736L90.1533 88.4332L90.1032 88.1733L83.582 89.5953L86.426 77.624L70.7775 84.4992L66.9844 88.2923H69.3555L62.377 92.8841L62.449 93.7799Z" fill="black"/>
<path d="M72.6148 62.1696C72.6148 62.1696 70.3659 63.4006 69.7958 64.5063C69.2257 65.6119 66.8672 73.8246 66.8672 73.8246L70.748 74.6577L67.0081 76.4587L72.668 92.671L81.6762 92.1166L87.5397 75.0712L83.9346 73.5489L87.1231 72.1614C87.1231 72.1614 84.0755 66.3417 82.4248 63.8485C80.7742 61.3553 72.6148 62.1696 72.6148 62.1696Z" fill="#182252"/>
<path d="M72.6802 92.8277C72.648 92.8277 72.6166 92.8178 72.5903 92.7993C72.5639 92.7808 72.5439 92.7546 72.533 92.7244L66.8668 76.509C66.8547 76.4727 66.8563 76.4332 66.8713 76.398C66.8863 76.3628 66.9137 76.3343 66.9483 76.3179L70.2778 74.7142L66.8324 73.9781C66.8112 73.9736 66.7912 73.9649 66.7734 73.9525C66.7557 73.9401 66.7406 73.9244 66.729 73.9061C66.718 73.8874 66.711 73.8666 66.7083 73.8451C66.7056 73.8235 66.7073 73.8017 66.7133 73.7808C66.8104 73.4457 69.1001 65.5462 69.6545 64.4374C70.2089 63.3286 72.4296 62.0852 72.5236 62.0319C72.5418 62.0219 72.5623 62.0166 72.5831 62.0162C72.9182 61.9818 80.8208 61.2175 82.5153 63.7609C84.166 66.2322 87.2136 72.033 87.2355 72.0894C87.2447 72.109 87.2495 72.1304 87.2495 72.1521C87.2495 72.1737 87.2447 72.1951 87.2355 72.2147C87.2291 72.2352 87.2181 72.254 87.2035 72.2697C87.1889 72.2854 87.1709 72.2977 87.151 72.3055L84.2975 73.5584L87.5644 74.9397C87.6011 74.9557 87.6304 74.9848 87.6466 75.0213C87.6629 75.0579 87.6648 75.0991 87.6521 75.137L81.8105 92.1825C81.8002 92.2113 81.7816 92.2365 81.7571 92.2548C81.7326 92.2732 81.7033 92.284 81.6727 92.2859L72.6645 92.8403L72.6802 92.8277ZM67.2114 76.5403L72.7898 92.5145L81.56 91.9758L87.3201 75.1652L83.8527 73.6994C83.8241 73.6876 83.7997 73.6677 83.7824 73.642C83.7651 73.6164 83.7558 73.5862 83.7556 73.5553C83.7559 73.5248 83.7649 73.495 83.7816 73.4695C83.7982 73.444 83.8218 73.4238 83.8496 73.4112L86.8847 72.0925C86.3961 71.1529 83.7525 66.1789 82.2585 63.9488C80.7174 61.6372 73.2033 62.2887 72.6489 62.3389C72.392 62.4829 70.4313 63.5917 69.9364 64.5941C69.4415 65.5964 67.4024 72.5686 67.0641 73.7244L70.7821 74.52C70.8139 74.5269 70.8428 74.5437 70.8647 74.5678C70.8866 74.5919 70.9004 74.6223 70.9042 74.6547C70.9072 74.687 70.9004 74.7195 70.8848 74.748C70.8692 74.7764 70.8454 74.7996 70.8165 74.8144L67.2114 76.5403Z" fill="#263238"/>
<path d="M72.2643 94.0586L72.1484 65.5116L79.6313 64.8163L81.827 93.7798L72.2643 94.0586Z" fill="white"/>
<path d="M72.2647 94.2152C72.224 94.2149 72.1849 94.1992 72.1551 94.1714C72.1257 94.1411 72.1089 94.1008 72.1081 94.0586L71.9922 65.5117C71.9913 65.4726 72.0054 65.4345 72.0316 65.4054C72.0578 65.3763 72.0941 65.3583 72.1332 65.3551L79.616 64.6754C79.6367 64.6724 79.6577 64.674 79.6778 64.6799C79.6978 64.6859 79.7162 64.6961 79.7319 64.7099C79.7643 64.7376 79.7846 64.777 79.7883 64.8195L81.9808 93.783C81.982 93.804 81.979 93.8251 81.9721 93.845C81.9651 93.8649 81.9542 93.8832 81.9401 93.8989C81.9259 93.9147 81.9086 93.9274 81.8891 93.9361C81.8697 93.9447 81.8486 93.9491 81.8274 93.949L72.2679 94.2278L72.2647 94.2152ZM72.3055 65.6527L72.4214 93.8958L81.6582 93.6295L79.4876 64.9887L72.3055 65.6527Z" fill="#263238"/>
<path d="M71.0391 58.0258C71.0391 58.0258 72.0069 63.4319 72.1479 64.8164C72.2888 66.2008 75.8658 76.0453 76.937 74.4385C78.1053 72.6876 79.4929 67.1749 79.756 65.9252C80.0191 64.6754 80.0348 59.2755 80.0348 59.2755C80.0348 59.2755 76.4421 61.7687 71.0391 58.0258Z" fill="white"/>
<path d="M76.6562 74.7737C76.616 74.7729 76.5761 74.7676 76.5371 74.758C75.065 74.3915 72.127 66.1695 71.9923 64.832C71.8576 63.4946 70.896 58.1103 70.8835 58.054C70.8778 58.0233 70.8814 57.9917 70.8937 57.9631C70.9061 57.9345 70.9267 57.9102 70.9529 57.8934C70.9792 57.8766 71.0098 57.868 71.041 57.8687C71.0721 57.8694 71.1024 57.8794 71.1278 57.8973C76.3837 61.537 79.9231 59.169 79.9575 59.1502C79.9822 59.1356 80.0103 59.1279 80.0389 59.1279C80.0676 59.1279 80.0957 59.1356 80.1204 59.1502C80.1457 59.1641 80.1669 59.1845 80.1817 59.2093C80.1966 59.234 80.2046 59.2623 80.2049 59.2912C80.2049 59.5104 80.205 64.7255 79.9231 65.9753C79.6098 67.3347 78.2536 72.7659 77.0696 74.5419C77.0258 74.6122 76.9649 74.6703 76.8927 74.7109C76.8204 74.7514 76.739 74.773 76.6562 74.7737ZM71.2531 58.364C71.4724 59.6169 72.1928 63.6199 72.2961 64.8007C72.4308 66.1507 75.4001 74.1535 76.606 74.4542C76.6624 74.4542 76.7282 74.4542 76.8034 74.3539C77.9466 72.6344 79.3311 67.1499 79.6224 65.897C79.8573 64.8414 79.8917 60.6599 79.8949 59.5511C78.9928 60.0116 75.7353 61.3052 71.2531 58.364Z" fill="#263238"/>
<path d="M79.9909 62.8681C80.0473 61.0953 80.0473 59.2755 80.0473 59.2755C80.0473 59.2755 76.4421 61.7812 71.0391 58.0226C71.0391 58.0226 71.4368 60.2496 71.7595 62.2103C72.4987 63.15 73.905 64.6441 75.6403 64.9228C77.4225 65.211 78.8633 64.2651 79.9909 62.8681Z" fill="#182252"/>
<path opacity="0.5" d="M79.9909 62.8681C80.0473 61.0953 80.0473 59.2755 80.0473 59.2755C80.0473 59.2755 76.4421 61.7812 71.0391 58.0226C71.0391 58.0226 71.4368 60.2496 71.7595 62.2103C72.4987 63.15 73.905 64.6441 75.6403 64.9228C77.4225 65.211 78.8633 64.2651 79.9909 62.8681Z" fill="white"/>
<path d="M82.957 52.6226C82.957 52.6226 84.4793 50.6806 84.4793 52.8982C84.4793 55.1158 82.957 55.404 82.957 55.404V52.6226Z" fill="white"/>
<path d="M82.9575 55.5512C82.9205 55.5517 82.8847 55.5382 82.8572 55.5136C82.8391 55.4997 82.8245 55.4816 82.8146 55.4609C82.8048 55.4402 82.8001 55.4175 82.8009 55.3946V52.6226C82.8002 52.5876 82.8112 52.5534 82.8322 52.5255C82.9669 52.3563 83.6559 51.5232 84.1822 51.7048C84.4954 51.8113 84.6363 52.2028 84.6363 52.8982C84.6363 55.2192 83.0013 55.5449 82.9857 55.548L82.9575 55.5512ZM83.1141 52.6758V55.1816C83.4931 55.0312 84.3231 54.5144 84.3231 52.8982C84.3231 52.1653 84.154 52.0274 84.0819 52.0024C83.8501 51.9241 83.3834 52.3469 83.1141 52.6758Z" fill="#263238"/>
<path d="M67.8516 48.0497C67.8516 48.0497 69.6526 56.2154 69.6526 57.3336C69.6526 59.6858 74.0878 62.3232 76.0266 62.8776C77.9654 63.432 82.6794 59.1346 82.9582 58.0258C83.2369 56.917 83.3716 47.2165 82.8172 45.2777C82.2628 43.3389 79.0836 42.0891 76.9976 42.0891C74.9115 42.0891 68.8225 43.1979 67.8516 48.0497Z" fill="white"/>
<path d="M76.4083 63.0843C76.2654 63.0857 76.123 63.0667 75.9855 63.0279C74.1061 62.4892 69.4955 59.8268 69.4955 57.3335C69.4955 56.2467 67.7165 48.1656 67.6977 48.0841C67.6945 48.0623 67.6945 48.0402 67.6977 48.0184C68.6906 43.0507 74.9017 41.9325 76.9972 41.9325C79.0926 41.9325 82.3846 43.1854 82.9672 45.2338C83.5498 47.2823 83.3806 56.9765 83.1081 58.0759C82.9045 58.8934 80.6211 61.1517 78.5664 62.3388C77.6957 62.8306 76.9721 63.0843 76.4083 63.0843ZM68.0109 48.0497C68.1518 48.6918 69.8088 56.2404 69.8088 57.3367C69.8088 59.5793 74.1594 62.1822 76.0732 62.7303C76.59 62.8775 77.3981 62.6458 78.4129 62.06C80.4489 60.8855 82.6383 58.6647 82.798 57.9882C83.058 56.9452 83.2146 47.2572 82.6602 45.3215C82.1246 43.4422 78.9454 42.2457 76.9909 42.2457C74.9706 42.2457 68.985 43.3138 68.0109 48.0466V48.0497Z" fill="#263238"/>
<path d="M76.9976 42.0891C74.9209 42.0891 68.8225 43.1979 67.8516 48.0403C67.8516 48.0403 68.929 52.9265 69.4177 55.6578C69.4177 54.4049 69.6369 52.0057 70.9838 50.9595C72.8443 49.5124 75.9483 49.3026 77.7055 48.4757C79.4626 47.6488 79.8761 45.4782 79.8761 45.4782C79.8761 45.4782 79.9794 49.3026 80.8157 50.236C81.652 51.1694 82.4727 51.8021 82.576 53.4402C82.6794 55.0784 82.9895 56.7478 82.1626 58.0947C81.3357 59.4415 77.9216 62.0224 76.3712 62.5393C76.1331 62.6207 75.9013 62.6896 75.6821 62.7554C75.8042 62.7992 75.9232 62.84 76.0329 62.8713C77.9748 63.4257 82.6857 59.1283 82.9644 58.0195C83.2432 56.9107 83.3779 47.2103 82.8235 45.2714C82.2691 43.3326 79.0836 42.0891 76.9976 42.0891Z" fill="#182252"/>
<path d="M74.1181 62.057C73.3633 61.2959 71.2991 59.1879 70.3595 58.101C70.088 57.7914 69.8448 57.458 69.6328 57.105C69.6328 57.1958 69.6328 57.2773 69.6328 57.3336C69.6516 59.072 72.0697 60.9639 74.1181 62.057Z" fill="#182252"/>
<g opacity="0.5">
<path opacity="0.5" d="M76.9976 42.0891C74.9209 42.0891 68.8225 43.1979 67.8516 48.0403C67.8516 48.0403 68.929 52.9265 69.4177 55.6578C69.4177 54.4049 69.6369 52.0057 70.9838 50.9595C72.8443 49.5124 75.9483 49.3026 77.7055 48.4757C79.4626 47.6488 79.8761 45.4782 79.8761 45.4782C79.8761 45.4782 79.9794 49.3026 80.8157 50.236C81.652 51.1694 82.4727 51.8021 82.576 53.4402C82.6794 55.0784 82.9895 56.7478 82.1626 58.0947C81.3357 59.4415 77.9216 62.0224 76.3712 62.5393C76.1331 62.6207 75.9013 62.6896 75.6821 62.7554C75.8042 62.7992 75.9232 62.84 76.0329 62.8713C77.9748 63.4257 82.6857 59.1283 82.9644 58.0195C83.2432 56.9107 83.3779 47.2103 82.8235 45.2714C82.2691 43.3326 79.0836 42.0891 76.9976 42.0891Z" fill="white"/>
<path opacity="0.5" d="M74.1181 62.057C73.3633 61.2959 71.2991 59.1879 70.3595 58.101C70.088 57.7914 69.8448 57.458 69.6328 57.105C69.6328 57.1958 69.6328 57.2773 69.6328 57.3336C69.6516 59.072 72.0697 60.9639 74.1181 62.057Z" fill="white"/>
</g>
<path d="M75.028 53.0643C75.028 53.4527 74.8557 53.7659 74.6396 53.7659C74.4235 53.7659 74.248 53.4527 74.248 53.0643C74.248 52.6759 74.4235 52.3627 74.6396 52.3627C74.8557 52.3627 75.028 52.6759 75.028 53.0643Z" fill="#263238"/>
<path d="M79.5917 53.0643C79.5917 53.4527 79.4162 53.7659 79.2001 53.7659C78.984 53.7659 78.8086 53.4527 78.8086 53.0643C78.8086 52.6759 78.984 52.3627 79.2001 52.3627C79.4162 52.3627 79.5917 52.6759 79.5917 53.0643Z" fill="#263238"/>
<path d="M77.4701 56.0305C77.4386 56.0309 77.4078 56.0215 77.3819 56.0035C77.3561 55.9856 77.3365 55.9599 77.326 55.9302C77.3105 55.892 77.3106 55.8492 77.3264 55.811C77.3423 55.7729 77.3725 55.7426 77.4106 55.7266C78.0371 55.4823 78.9204 55 78.9767 54.6993C79.0018 54.5834 78.9548 54.5427 78.557 54.4549C78.268 54.4156 77.9957 54.2962 77.7708 54.1104C77.3041 53.6437 77.6862 52.3344 77.7332 52.1872C77.7453 52.1457 77.7733 52.1106 77.8112 52.0898C77.83 52.0795 77.8506 52.0729 77.8719 52.0706C77.8932 52.0682 77.9147 52.0701 77.9353 52.076C77.9558 52.082 77.975 52.092 77.9917 52.1053C78.0084 52.1187 78.0224 52.1353 78.0327 52.154C78.043 52.1728 78.0496 52.1934 78.0519 52.2147C78.0543 52.236 78.0524 52.2575 78.0465 52.2781C77.8961 52.7667 77.752 53.6374 78.0057 53.8912C78.189 54.0292 78.4048 54.1177 78.6322 54.148C78.9454 54.22 79.3808 54.3171 79.29 54.7744C79.1772 55.3508 77.8053 55.924 77.5328 56.0273C77.5124 56.033 77.491 56.034 77.4701 56.0305Z" fill="#263238"/>
<path d="M76.0831 58.1167C75.7615 58.1355 75.4406 58.0714 75.151 57.9304C74.8614 57.7894 74.6129 57.5764 74.4293 57.3118C74.4176 57.2948 74.4095 57.2757 74.4054 57.2555C74.4013 57.2353 74.4013 57.2146 74.4054 57.1944C74.4095 57.1742 74.4176 57.1551 74.4292 57.1381C74.4409 57.1212 74.4558 57.1067 74.4731 57.0956C74.5076 57.073 74.5497 57.0649 74.5902 57.0731C74.6307 57.0813 74.6663 57.1052 74.6892 57.1395C75.441 58.2702 77.195 57.6062 77.195 57.5999C77.2336 57.5846 77.2768 57.5852 77.315 57.6016C77.3532 57.6181 77.3832 57.649 77.3986 57.6876C77.414 57.7263 77.4134 57.7694 77.3969 57.8076C77.3805 57.8458 77.3495 57.8758 77.3109 57.8912C76.9168 58.0335 76.502 58.1097 76.0831 58.1167Z" fill="#263238"/>
<path d="M73.2087 51.9742C73.19 51.9772 73.171 51.9772 73.1523 51.9742C73.1329 51.967 73.1152 51.9559 73.1001 51.9417C73.0849 51.9275 73.0728 51.9104 73.0644 51.8914C73.0559 51.8725 73.0513 51.8521 73.0508 51.8313C73.0503 51.8106 73.054 51.79 73.0615 51.7707C73.2238 51.3872 73.5231 51.0779 73.9009 50.903C74.1325 50.8133 74.3798 50.7714 74.628 50.78C74.8762 50.7886 75.1201 50.8475 75.3449 50.9531C75.3835 50.9685 75.4144 50.9986 75.4309 51.0368C75.4473 51.075 75.4479 51.1181 75.4326 51.1567C75.4172 51.1954 75.3871 51.2263 75.3489 51.2428C75.3108 51.2592 75.2676 51.2598 75.229 51.2444C75.0427 51.1544 74.8401 51.1031 74.6334 51.0934C74.4267 51.0837 74.2202 51.1159 74.0262 51.1881C73.7257 51.3317 73.4868 51.5785 73.3528 51.8834C73.3408 51.9113 73.3206 51.935 73.2949 51.9512C73.2691 51.9674 73.2391 51.9754 73.2087 51.9742Z" fill="#263238"/>
<path d="M79.9014 51.4607C79.8775 51.4604 79.8539 51.4549 79.8323 51.4446C79.8106 51.4344 79.7915 51.4195 79.7761 51.4012C79.4629 51.0096 79.1779 50.8186 78.896 50.8311C78.7598 50.8542 78.63 50.9058 78.515 50.9824C78.4001 51.059 78.3026 51.159 78.2288 51.2759C78.2063 51.3106 78.1712 51.3352 78.1309 51.3446C78.0906 51.3539 78.0482 51.3473 78.0127 51.326C77.9949 51.3154 77.9794 51.3013 77.9671 51.2846C77.9549 51.2679 77.9462 51.2488 77.9415 51.2286C77.9368 51.2084 77.9362 51.1875 77.9399 51.1671C77.9435 51.1467 77.9512 51.1272 77.9626 51.1099C78.0622 50.95 78.1957 50.8141 78.3538 50.7118C78.5119 50.6095 78.6906 50.5433 78.8772 50.5179C79.2781 50.496 79.6571 50.7309 80.0236 51.2101C80.0488 51.2429 80.06 51.2845 80.0548 51.3255C80.0495 51.3666 80.0281 51.404 79.9954 51.4294C79.9684 51.4499 79.9353 51.4609 79.9014 51.4607Z" fill="#263238"/>
<path d="M83.5124 43.1979C82.1405 41.6318 80.6934 41.7257 79.829 42.064C78.6575 40.0907 74.7861 38.5246 69.8059 40.4259C63.9863 42.6435 64.6785 48.604 64.9573 49.7128C65.236 50.8216 67.1749 53.7315 68.4215 53.8693C68.4215 53.8693 69.5303 52.8983 69.5303 51.9304C69.5303 50.9626 72.1645 49.0206 74.7955 48.1875C76.4524 47.6644 78.2722 46.7028 79.3247 45.475C79.3052 46.2812 79.5125 47.0767 79.9229 47.7709C80.7561 49.0238 82.0027 49.7128 82.0027 50.1294C82.0027 50.546 82.6949 52.0683 83.2556 52.0683C83.8163 52.0683 83.81 49.8507 83.9478 48.8797C84.0856 47.9087 85.4513 45.4155 83.5124 43.1979Z" fill="#263238"/>
<path d="M68.4068 54.0259H68.388C67.0255 53.8725 65.071 50.8655 64.7891 49.7505C64.7735 49.6816 63.2418 42.7563 69.738 40.2818C74.5334 38.4526 78.5082 39.7274 79.8958 41.873C80.6036 41.6349 82.1509 41.4031 83.6293 43.0945C85.2487 44.9457 84.6348 46.9785 84.2558 48.1969C84.1792 48.4276 84.1175 48.663 84.071 48.9016C84.0365 49.1366 84.0115 49.4529 83.9833 49.7849C83.8643 51.2602 83.7452 52.2249 83.2222 52.2249C82.5331 52.2249 81.8189 50.5711 81.8189 50.1295C81.8189 49.9979 81.5057 49.7035 81.1925 49.4216C80.656 48.9599 80.1784 48.4339 79.7705 47.8555C79.3939 47.2541 79.1782 46.5659 79.144 45.8571C78.148 46.8688 76.56 47.7803 74.8028 48.3347C72.1467 49.1741 69.6472 51.0691 69.6472 51.9274C69.6472 52.9547 68.5321 53.9414 68.4851 53.9852C68.4635 54.006 68.4363 54.0201 68.4068 54.0259ZM74.1513 39.7274C72.6773 39.7453 71.2188 40.0319 69.8476 40.5731C63.6052 42.9536 65.0773 49.6064 65.093 49.6753C65.3686 50.7778 67.2103 53.4778 68.3567 53.7033C68.5697 53.5029 69.359 52.701 69.359 51.9305C69.359 50.8436 72.0715 48.8797 74.7339 48.0372C76.5975 47.4514 78.2639 46.4523 79.191 45.3716C79.2124 45.3475 79.2406 45.3303 79.2719 45.3225C79.3032 45.3147 79.3362 45.3165 79.3664 45.3278C79.3961 45.3392 79.4216 45.3595 79.4395 45.3858C79.4574 45.4121 79.4669 45.4432 79.4666 45.475C79.4469 46.2512 79.6455 47.0174 80.0398 47.6863C80.4344 48.2423 80.8963 48.7473 81.4149 49.1898C81.8534 49.5939 82.1447 49.8601 82.1447 50.1295C82.1447 50.5335 82.8212 51.9117 83.2347 51.9117C83.5103 51.9117 83.6325 50.4051 83.6857 49.7599C83.7108 49.4216 83.739 49.1021 83.7734 48.8578C83.8214 48.6032 83.8863 48.3521 83.9676 48.1061C84.3372 46.8782 84.9073 45.0208 83.3944 43.3013C82.0037 41.7132 80.6005 41.9356 79.8864 42.2113C79.8515 42.2243 79.8132 42.2246 79.7781 42.212C79.7431 42.1993 79.7138 42.1747 79.6953 42.1423C78.9592 40.9083 76.9578 39.7274 74.1513 39.7274Z" fill="#263238"/>
<path d="M67.2399 50.4082H67.2118C67.1711 50.4006 67.1351 50.3772 67.1117 50.3432C67.0882 50.3092 67.0791 50.2672 67.0865 50.2265C67.1773 49.741 67.5187 49.3276 68.1326 48.9549C68.1683 48.9345 68.2105 48.929 68.2502 48.9395C68.2899 48.9501 68.3239 48.9757 68.3449 49.0111C68.3658 49.0464 68.372 49.0885 68.3622 49.1284C68.3524 49.1683 68.3273 49.2027 68.2924 49.2242C67.763 49.5375 67.4686 49.8914 67.3934 50.286C67.3861 50.3211 67.3668 50.3525 67.3387 50.3748C67.3107 50.3972 67.2758 50.409 67.2399 50.4082Z" fill="white"/>
<path d="M69.2233 48.7637C69.1916 48.7635 69.1607 48.7539 69.1344 48.736C69.1082 48.7182 69.0879 48.6929 69.0761 48.6635C69.0618 48.6248 69.0634 48.5821 69.0804 48.5446C69.0974 48.5071 69.1285 48.4778 69.1669 48.463C70.254 48.0775 71.3652 47.7636 72.4933 47.5234C73.3328 47.3292 74.1283 47.1412 74.7892 46.9314C77.27 46.1421 78.6607 43.9808 78.6763 43.962C78.6869 43.9442 78.701 43.9287 78.7177 43.9165C78.7344 43.9042 78.7535 43.8955 78.7737 43.8908C78.7939 43.8861 78.8148 43.8856 78.8352 43.8892C78.8556 43.8928 78.8751 43.9006 78.8924 43.9119C78.9273 43.9344 78.9518 43.9698 78.9606 44.0103C78.9694 44.0508 78.9618 44.0932 78.9394 44.1281C77.9511 45.5736 76.5233 46.6621 74.8675 47.2321C74.1973 47.4451 73.3954 47.633 72.5497 47.8303C71.4361 48.062 70.3385 48.3654 69.264 48.7387C69.2516 48.7488 69.2379 48.7572 69.2233 48.7637Z" fill="white"/>
<path d="M66.7744 45.9699C66.7429 45.9702 66.7122 45.9603 66.6867 45.9417C66.6524 45.9188 66.6285 45.8832 66.6203 45.8427C66.6121 45.8022 66.6202 45.7601 66.6429 45.7256C66.9561 45.2401 67.8018 45.2746 69.0641 45.3247C70.0877 45.382 71.1139 45.3758 72.1368 45.3059C74.9839 45.0773 77.5273 43.3639 77.5523 43.3451C77.5869 43.3225 77.629 43.3144 77.6694 43.3226C77.7099 43.3308 77.7455 43.3547 77.7685 43.389C77.7803 43.4058 77.7886 43.4247 77.7929 43.4448C77.7972 43.4648 77.7975 43.4855 77.7937 43.5057C77.7899 43.5258 77.7821 43.545 77.7708 43.5621C77.7595 43.5791 77.7448 43.5938 77.7278 43.6051C77.6213 43.6772 75.0904 45.3842 72.1618 45.6191C71.1265 45.6906 70.0877 45.6968 69.0515 45.6379C67.9365 45.5941 67.1315 45.5596 66.9029 45.901C66.8888 45.9223 66.8698 45.9397 66.8473 45.9517C66.8249 45.9637 66.7999 45.97 66.7744 45.9699Z" fill="white"/>
<path d="M83.6 47.6049C83.5794 47.6041 83.5592 47.5992 83.5405 47.5906C83.5218 47.582 83.505 47.5698 83.4911 47.5546C83.4771 47.5395 83.4663 47.5218 83.4592 47.5025C83.4521 47.4831 83.4488 47.4626 83.4497 47.442C83.4638 47.0548 83.4355 46.6672 83.3651 46.2862C83.3605 46.2661 83.3601 46.2452 83.3638 46.2248C83.3676 46.2044 83.3754 46.1851 83.3868 46.1678C83.3982 46.1505 83.413 46.1358 83.4302 46.1244C83.4475 46.1129 83.4669 46.1052 83.4872 46.1014C83.5076 46.0974 83.5286 46.0974 83.549 46.1015C83.5693 46.1056 83.5887 46.1137 83.6059 46.1254C83.6231 46.137 83.6378 46.152 83.6492 46.1694C83.6605 46.1868 83.6683 46.2063 83.672 46.2267C83.746 46.6316 83.7765 47.0432 83.7629 47.4546C83.7621 47.4751 83.7572 47.4953 83.7486 47.514C83.74 47.5327 83.7277 47.5495 83.7126 47.5635C83.6975 47.5775 83.6797 47.5883 83.6604 47.5954C83.6411 47.6025 83.6206 47.6057 83.6 47.6049Z" fill="white"/>
<path d="M83.3439 45.7851C83.3112 45.7853 83.2793 45.7751 83.2529 45.756C83.2264 45.7368 83.2067 45.7097 83.1967 45.6786C82.9944 45.1213 82.67 44.6163 82.2473 44.2006C81.8246 43.7849 81.3142 43.4691 80.7536 43.2762C80.7136 43.2645 80.6798 43.2377 80.6593 43.2014C80.6388 43.1651 80.6333 43.1223 80.644 43.082C80.6497 43.0623 80.6593 43.0438 80.6722 43.0278C80.6851 43.0118 80.701 42.9984 80.719 42.9885C80.7371 42.9786 80.7569 42.9724 80.7773 42.9702C80.7978 42.9679 80.8184 42.9697 80.8382 42.9755C81.4494 43.1777 82.0063 43.5171 82.4661 43.9677C82.926 44.4183 83.2766 44.9682 83.4911 45.5752C83.498 45.5948 83.501 45.6155 83.4999 45.6362C83.4987 45.6568 83.4935 45.6771 83.4844 45.6957C83.4754 45.7144 83.4628 45.731 83.4473 45.7448C83.4317 45.7585 83.4136 45.769 83.394 45.7757C83.378 45.7818 83.3611 45.785 83.3439 45.7851Z" fill="white"/>
<path d="M73.27 60.0022C72.8623 60.0181 72.457 59.9342 72.0891 59.7578C70.8958 59.1314 68.7753 56.3124 68.6876 56.1809C68.6627 56.1476 68.652 56.1059 68.6578 56.0648C68.6637 56.0236 68.6857 55.9865 68.7189 55.9616C68.7521 55.9367 68.7939 55.926 68.835 55.9319C68.8761 55.9377 68.9132 55.9597 68.9381 55.9929C68.9601 56.0211 71.1025 58.884 72.2364 59.4822C73.3702 60.0805 75.497 59.2473 75.5189 59.2379C75.5382 59.2305 75.5588 59.227 75.5795 59.2275C75.6002 59.2281 75.6206 59.2327 75.6395 59.2411C75.6584 59.2496 75.6755 59.2617 75.6897 59.2767C75.704 59.2917 75.7151 59.3094 75.7225 59.3287C75.7299 59.3481 75.7334 59.3687 75.7329 59.3894C75.7323 59.4101 75.7277 59.4304 75.7192 59.4493C75.7108 59.4682 75.6987 59.4853 75.6837 59.4995C75.6687 59.5138 75.651 59.5249 75.6317 59.5323C74.8741 59.8122 74.077 59.9708 73.27 60.0022Z" fill="#263238"/>
<path d="M76.3528 59.4102C76.3528 59.6952 76.002 59.9302 75.5729 59.9302C75.1438 59.9302 74.793 59.6952 74.793 59.4102C74.793 59.1252 75.1406 58.8903 75.5729 58.8903C76.0051 58.8903 76.3528 59.122 76.3528 59.4102Z" fill="#263238"/>
<path d="M67.5912 52.1214C67.5912 52.1214 65.0196 45.4624 67.5912 41.4907C67.5912 41.4907 63.6164 45.5783 67.1245 53.058L67.5912 52.1214Z" fill="white"/>
<path d="M69.3738 54.2796C69.6087 55.8457 69.1827 57.1988 68.4184 57.3147C67.6542 57.4306 66.8523 56.256 66.6143 54.693C66.3762 53.1301 66.8085 51.7738 67.5696 51.6579C68.3307 51.542 69.1514 52.7166 69.3738 54.2796Z" fill="white"/>
<path d="M68.3249 57.4714C67.5074 57.4714 66.7087 56.3031 66.4707 54.7119C66.3485 54.0016 66.386 53.2729 66.5803 52.5789C66.7776 51.9524 67.1253 51.5609 67.5575 51.4983C68.4158 51.3698 69.2896 52.5757 69.5402 54.2483C69.6608 54.9588 69.6234 55.687 69.4306 56.3814C69.2301 57.0078 68.8856 57.3993 68.4533 57.462C68.4108 57.4682 68.3679 57.4714 68.3249 57.4714ZM67.6985 51.8021C67.6704 51.799 67.642 51.799 67.6139 51.8021C67.3007 51.8459 67.0501 52.1623 66.8904 52.6666C66.7112 53.3153 66.6781 53.9956 66.7933 54.6587C67.0094 56.1057 67.7517 57.249 68.4189 57.1456C68.7321 57.1018 68.9858 56.7854 69.1456 56.2811C69.3232 55.6322 69.3563 54.9522 69.2427 54.2891C69.0203 52.9109 68.3281 51.8084 67.686 51.8084L67.6985 51.8021Z" fill="#263238"/>
<path d="M67.9929 57.2679C68.6703 57.1661 69.0291 55.8174 68.7943 54.2556C68.5595 52.6938 67.82 51.5103 67.1426 51.6121C66.4652 51.7139 66.1064 53.0626 66.3412 54.6244C66.576 56.1862 67.3155 57.3698 67.9929 57.2679Z" fill="white"/>
<path d="M67.9047 57.4337C67.5476 57.4337 67.1812 57.1612 66.8648 56.657C66.5058 56.041 66.2736 55.3594 66.182 54.6523C65.9283 52.9766 66.3417 51.5765 67.1217 51.4606C67.9016 51.3447 68.6878 52.5632 68.954 54.2358C69.0728 54.9388 69.0515 55.6584 68.8914 56.3531C68.7222 56.9796 68.4121 57.368 68.0175 57.4275L67.9047 57.4337ZM67.2156 51.7645H67.1624C66.655 51.8396 66.254 53.0173 66.4921 54.5834C66.5756 55.2449 66.7884 55.8835 67.1185 56.4628C67.3942 56.8981 67.6949 57.1268 67.9548 57.0892C68.2148 57.0516 68.4403 56.7415 68.5813 56.2435C68.7314 55.5908 68.7506 54.9147 68.6376 54.2546C68.409 52.773 67.7199 51.7645 67.2156 51.7645Z" fill="#263238"/>
<path d="M93.0747 65.3707L96.6861 93.9208L89.4727 93.7798L93.0747 65.3707Z" fill="#182252"/>
<path d="M96.6861 94.0774L89.482 93.9364C89.46 93.9362 89.4384 93.9313 89.4184 93.9221C89.3984 93.913 89.3806 93.8997 89.3661 93.8832C89.3522 93.8664 89.3419 93.8468 89.336 93.8258C89.33 93.8047 89.3286 93.7827 89.3317 93.761L92.9306 65.3519C92.9352 65.3137 92.9537 65.2786 92.9826 65.2532C93.0115 65.2277 93.0487 65.2138 93.0872 65.2141C93.1251 65.2146 93.1616 65.2288 93.1898 65.2542C93.218 65.2795 93.2361 65.3143 93.2407 65.3519L96.8521 93.8988C96.8557 93.9212 96.8541 93.9441 96.8476 93.9658C96.8411 93.9875 96.8298 94.0074 96.8145 94.0241C96.7986 94.0423 96.7788 94.0565 96.7565 94.0658C96.7342 94.075 96.7101 94.079 96.6861 94.0774ZM89.6511 93.6263L96.5075 93.761L93.0621 66.6173L89.6511 93.6263Z" fill="#263238"/>
<path opacity="0.3" d="M95.0417 80.9409L91.2862 83.1961L91.3488 78.9771L89.4727 93.7798L96.6861 93.9208L96.0941 89.2569L92.9463 89.3603L95.7402 86.4568L95.7183 86.2657L91.8782 87.5812L95.3518 83.3747L95.0417 80.9409Z" fill="black"/>
<path d="M67.2681 56.9513C67.2681 56.9513 68.333 56.5786 68.5648 56.9889C68.7966 57.3992 69.0659 59.1815 69.0597 59.4352C69.0534 59.6889 68.9657 59.9207 68.4833 59.7484C68.001 59.5761 67.2305 58.0069 67.2305 58.0069L67.2681 56.9513Z" fill="white"/>
<path d="M68.7699 59.977C68.654 59.9739 68.5395 59.9505 68.4316 59.9081C67.9179 59.7171 67.2288 58.3608 67.0973 58.0883C67.0926 58.0645 67.0926 58.0401 67.0973 58.0163L67.1286 56.9639C67.1293 56.9322 67.1395 56.9015 67.1579 56.8758C67.1764 56.8501 67.2022 56.8305 67.232 56.8198C67.4324 56.7509 68.4347 56.4282 68.7166 56.9294C68.9641 57.3648 69.2428 59.194 69.2334 59.4571C69.2379 59.5417 69.2227 59.6261 69.189 59.7038C69.1553 59.7816 69.104 59.8504 69.0392 59.905C68.9592 59.9566 68.865 59.9818 68.7699 59.977ZM67.3949 57.9849C67.6861 58.5707 68.2374 59.5009 68.5381 59.6137C68.7542 59.692 68.8294 59.6575 68.8513 59.645C68.8732 59.6325 68.9077 59.5542 68.9108 59.4477C68.9108 59.2316 68.6509 57.4681 68.4347 57.0829C68.3314 56.8949 67.8083 56.967 67.4293 57.0829L67.3949 57.9849Z" fill="#263238"/>
<path d="M62.607 62.6018C62.607 62.6018 63.5936 56.2591 63.6156 55.57C63.6375 54.8809 64.5552 54.3171 64.9937 54.148C65.4322 53.9788 67.938 54.0603 68.2042 54.0697C68.4705 54.0791 69.5417 54.0227 69.5323 54.3829C69.5229 54.7431 69.4289 54.8966 68.5331 55.0407C67.6373 55.1847 65.4949 55.2975 65.4949 55.2975L64.9342 56.1432L67.5935 56.6506C67.5935 56.6506 68.2199 56.9262 68.1071 57.3554C67.9944 57.7845 67.6843 59.6669 67.678 59.9238C67.6718 60.1806 67.3961 60.3466 66.7603 60.7601C66.3807 61.0056 65.9539 61.1688 65.5074 61.2393C65.5074 61.2393 65.5575 62.5329 65.1942 62.6926L64.289 63.0967L64.1637 70.4981L60.0762 70.0345L62.607 62.6018Z" fill="white"/>
<path d="M64.1612 70.6266H64.1424L60.0706 70.163C60.0471 70.1603 60.0246 70.1524 60.0045 70.14C59.9845 70.1275 59.9675 70.1108 59.9547 70.091C59.9447 70.0699 59.9395 70.0469 59.9395 70.0236C59.9395 70.0003 59.9447 69.9773 59.9547 69.9563L62.4855 62.5517C62.5356 62.2385 63.469 56.209 63.4878 55.5544C63.5097 54.7651 64.5152 54.148 64.9693 53.9883C65.4235 53.8286 67.3999 53.8755 68.2362 53.9006H68.3772C68.8971 53.9006 69.4202 53.9163 69.6301 54.1293C69.6598 54.1593 69.6833 54.195 69.6989 54.2343C69.7145 54.2736 69.722 54.3156 69.7209 54.3579C69.7209 54.8528 69.4641 55.0251 68.5902 55.1691C67.7821 55.3007 66.0155 55.4009 65.6146 55.4229L65.2293 56.0054L67.6568 56.469H67.6912C67.7194 56.469 68.4242 56.8042 68.2926 57.3523C68.183 57.8127 67.8729 59.6639 67.8666 59.8925C67.8666 60.2057 67.5753 60.4031 66.9614 60.8008L66.88 60.8541C66.5172 61.0857 66.1147 61.2482 65.6929 61.3333C65.6929 61.7593 65.6616 62.63 65.2857 62.7992L64.4744 63.1625L64.3492 70.4637C64.3485 70.4856 64.3435 70.5072 64.3343 70.5271C64.3252 70.547 64.3121 70.5648 64.2959 70.5796C64.2788 70.5975 64.2576 70.6111 64.2342 70.6193C64.2108 70.6275 64.1858 70.63 64.1612 70.6266ZM60.2898 69.8874L64.0077 70.3133L64.1299 63.0842C64.131 63.0547 64.1404 63.0261 64.157 63.0018C64.1736 62.9774 64.1968 62.9582 64.2239 62.9464L65.1259 62.5424C65.2826 62.4703 65.3671 61.7969 65.3452 61.2362C65.3433 61.1967 65.3565 61.1579 65.3821 61.1277C65.4077 61.0975 65.4437 61.0781 65.483 61.0733C65.9083 61.0076 66.315 60.8528 66.6764 60.6192L66.761 60.5659C67.2966 60.2151 67.5158 60.0679 67.5221 59.9113C67.5221 59.6231 67.8635 57.7188 67.9575 57.3084C68.0201 57.0453 67.6442 56.8323 67.5471 56.7916L64.9067 56.2873C64.8812 56.2823 64.8573 56.2711 64.8371 56.2547C64.8169 56.2383 64.801 56.2173 64.7908 56.1934C64.7792 56.1706 64.7732 56.1453 64.7732 56.1198C64.7732 56.0942 64.7792 56.069 64.7908 56.0462L65.3483 55.2005C65.3628 55.1804 65.3815 55.1638 65.4032 55.1518C65.4249 55.1399 65.4489 55.133 65.4736 55.1316C65.4924 55.1316 67.616 55.0219 68.4931 54.8778C69.3701 54.7338 69.3544 54.5991 69.3607 54.3673C69.3325 54.3203 69.1634 54.2326 68.3521 54.2326H68.183C66.9301 54.195 65.3421 54.1919 65.032 54.3015C64.6091 54.4519 63.7791 54.9969 63.7572 55.5826C63.7352 56.2717 62.7893 62.3732 62.7486 62.6332C62.7486 62.6332 62.7486 62.652 62.7486 62.6582L60.2898 69.8874Z" fill="#263238"/>
<path d="M67.8951 57.8566H67.8669L64.6407 57.2772C64.5992 57.2697 64.5623 57.246 64.5382 57.2114C64.5141 57.1767 64.5048 57.1339 64.5123 57.0924C64.5198 57.0508 64.5434 57.014 64.5781 56.9899C64.6127 56.9658 64.6556 56.9565 64.6971 56.9639L67.9233 57.5465C67.9648 57.5503 68.0032 57.5704 68.0299 57.6024C68.0566 57.6344 68.0695 57.6757 68.0658 57.7172C68.062 57.7588 68.042 57.7971 68.0099 57.8238C67.9779 57.8506 67.9366 57.8635 67.8951 57.8597V57.8566Z" fill="#263238"/>
<path d="M67.5281 59.3037H67.4937L64.8376 58.6585C64.796 58.6489 64.76 58.6233 64.7374 58.5872C64.7148 58.551 64.7074 58.5074 64.717 58.4659C64.7265 58.4243 64.7522 58.3883 64.7883 58.3657C64.8244 58.3431 64.8681 58.3357 64.9096 58.3453L67.5689 58.9905C67.5889 58.9949 67.6079 59.0033 67.6246 59.0153C67.6413 59.0272 67.6553 59.0425 67.6659 59.0601C67.6764 59.0777 67.6833 59.0973 67.686 59.1176C67.6887 59.138 67.6872 59.1587 67.6816 59.1784C67.675 59.2141 67.6559 59.2462 67.6278 59.2692C67.5997 59.2921 67.5644 59.3044 67.5281 59.3037Z" fill="#263238"/>
<path d="M65.5027 61.3803C65.4763 61.3809 65.4503 61.3745 65.4273 61.3619C65.4042 61.3492 65.3848 61.3307 65.3711 61.3083C65.2583 61.1329 65.0046 60.7038 65.0892 60.4688C65.1025 60.4315 65.1245 60.3978 65.1533 60.3705C65.1822 60.3433 65.2171 60.3233 65.2552 60.3122C65.5027 60.2371 66.079 60.0898 66.079 60.0898L66.1573 60.4031C66.1573 60.4031 65.6436 60.5346 65.3836 60.6098C65.4356 60.8024 65.5204 60.9847 65.6342 61.1485C65.6566 61.1834 65.6642 61.2258 65.6554 61.2663C65.6466 61.3068 65.6221 61.3422 65.5872 61.3646C65.5608 61.3768 65.5317 61.3822 65.5027 61.3803Z" fill="#263238"/>
<path d="M60.4438 66.2008L64.8602 67.8671C64.8602 67.8671 61.7844 87.174 61.0452 88.69C60.306 90.206 58.577 91.9663 56.3469 92.1793C54.1168 92.3923 52.5037 89.9868 52.4379 87.4591C52.3721 84.9314 60.4438 66.2008 60.4438 66.2008Z" fill="#182252"/>
<path d="M56.0619 92.3483C55.2915 92.3407 54.5514 92.0471 53.9853 91.5245C52.9704 90.6225 52.3127 89.0689 52.2719 87.4527C52.203 84.9313 59.9709 66.8929 60.2998 66.1255C60.3163 66.0887 60.3464 66.0598 60.3837 66.0446C60.421 66.0294 60.4628 66.0292 60.5002 66.0441L64.9166 67.7073C64.9505 67.7193 64.9791 67.7428 64.9974 67.7737C65.0157 67.8046 65.0226 67.8409 65.0169 67.8764C64.8916 68.6657 61.9285 87.2272 61.1831 88.7431C60.3875 90.3719 58.5833 92.1103 56.3501 92.3232C56.2561 92.3452 56.159 92.3483 56.0619 92.3483ZM60.5284 66.4011C59.7955 68.1113 52.5225 85.1161 52.5852 87.4558C52.6227 88.9749 53.2398 90.4439 54.1951 91.2896C54.4778 91.555 54.8135 91.7575 55.18 91.8838C55.5466 92.0101 55.9357 92.0574 56.3219 92.0226C58.433 91.8221 60.1432 90.1683 60.9043 88.621C61.5965 87.2084 64.4186 69.6398 64.688 67.9672L60.5284 66.4011Z" fill="#263238"/>
<path opacity="0.3" d="M56.7885 82.3663C55.7111 82.9157 54.5863 83.3664 53.4276 83.7131C53.0299 84.8689 52.726 85.8493 52.5632 86.5509L54.6523 86.2878C56.1408 86.1163 57.6093 85.8016 59.0374 85.3481C59.0374 85.3481 55.592 87.4811 52.5193 87.8382H52.4473C52.6509 90.2124 54.2044 92.3924 56.3343 92.1888C58.5738 91.9759 60.2997 90.2124 61.0326 88.6996C61.396 87.9541 62.3231 82.9238 63.1719 77.9968C61.2042 79.6744 59.0645 81.1391 56.7885 82.3663Z" fill="black"/>
<path d="M104.057 33.0399V32.1817C104.057 32.0604 104.009 31.9441 103.923 31.8583C103.838 31.7726 103.721 31.7244 103.6 31.7244H102.939C102.839 31.292 102.667 30.8792 102.432 30.5028L102.898 30.033C102.984 29.9468 103.032 29.8303 103.032 29.7088C103.032 29.5874 102.984 29.4709 102.898 29.3846L102.294 28.7801C102.208 28.6946 102.091 28.6467 101.97 28.6467C101.848 28.6467 101.732 28.6946 101.646 28.7801L101.176 29.2468C100.799 29.0113 100.387 28.8399 99.9541 28.7394V28.0785C99.9541 27.9572 99.9059 27.8409 99.8202 27.7552C99.7344 27.6694 99.6181 27.6212 99.4968 27.6212H98.6386C98.5173 27.6212 98.401 27.6694 98.3152 27.7552C98.2295 27.8409 98.1813 27.9572 98.1813 28.0785V28.7394C97.7489 28.8399 97.3361 29.0113 96.9597 29.2468L96.4899 28.7801C96.4037 28.6946 96.2872 28.6467 96.1657 28.6467C96.0443 28.6467 95.9278 28.6946 95.8416 28.7801L95.237 29.3846C95.1515 29.4709 95.1036 29.5874 95.1036 29.7088C95.1036 29.8303 95.1515 29.9468 95.237 30.033L95.7037 30.5028C95.468 30.8787 95.2975 31.2917 95.1995 31.7244H94.5354C94.4141 31.7244 94.2978 31.7726 94.2121 31.8583C94.1263 31.9441 94.0781 32.0604 94.0781 32.1817V33.0399C94.0781 33.1612 94.1263 33.2775 94.2121 33.3633C94.2978 33.4491 94.4141 33.4972 94.5354 33.4972H95.1995C95.2975 33.9299 95.468 34.343 95.7037 34.7188L95.237 35.1886C95.1515 35.2749 95.1036 35.3914 95.1036 35.5128C95.1036 35.6342 95.1515 35.7508 95.237 35.837L95.8416 36.4415C95.9278 36.527 96.0443 36.575 96.1657 36.575C96.2872 36.575 96.4037 36.527 96.4899 36.4415L96.9597 35.9748C97.338 36.2137 97.7543 36.3864 98.1907 36.4854V37.1494C98.1907 37.2707 98.2389 37.387 98.3246 37.4727C98.4104 37.5585 98.5267 37.6067 98.648 37.6067H99.5062C99.6275 37.6067 99.7438 37.5585 99.8296 37.4727C99.9153 37.387 99.9635 37.2707 99.9635 37.1494V36.4854C100.396 36.3873 100.809 36.2168 101.185 35.9811L101.655 36.4478C101.741 36.5333 101.858 36.5812 101.979 36.5812C102.101 36.5812 102.217 36.5333 102.303 36.4478L102.889 35.8589C102.974 35.7727 103.022 35.6562 103.022 35.5347C103.022 35.4133 102.974 35.2968 102.889 35.2105L102.422 34.7407C102.658 34.3644 102.829 33.9516 102.93 33.5192H103.591C103.653 33.5205 103.716 33.509 103.774 33.4852C103.832 33.4614 103.884 33.426 103.928 33.381C103.972 33.3361 104.006 33.2826 104.028 33.2239C104.05 33.1652 104.06 33.1026 104.057 33.0399ZM99.2682 34.5622C98.8649 34.6052 98.4582 34.5222 98.104 34.3244C97.7499 34.1267 97.4659 33.824 97.2909 33.4581C97.116 33.0922 97.0589 32.681 97.1274 32.2812C97.196 31.8815 97.3868 31.5128 97.6735 31.226C97.9603 30.9392 98.329 30.7484 98.7287 30.6799C99.1285 30.6114 99.5397 30.6685 99.9056 30.8434C100.272 31.0184 100.574 31.3024 100.772 31.6566C100.97 32.0107 101.053 32.4174 101.01 32.8207C100.964 33.2677 100.765 33.6855 100.449 34.0041C100.132 34.3228 99.715 34.5231 99.2682 34.5716V34.5622Z" fill="#263238"/>
<path d="M23.8732 70.4572V69.812C23.8732 69.7197 23.8365 69.6313 23.7713 69.5661C23.7061 69.5009 23.6177 69.4643 23.5255 69.4643H23.0181C22.9427 69.1383 22.8135 68.8271 22.6359 68.5434L22.9899 68.1926C23.0221 68.1606 23.0476 68.1225 23.0651 68.0806C23.0825 68.0387 23.0915 67.9937 23.0915 67.9483C23.0915 67.9029 23.0825 67.8579 23.0651 67.816C23.0476 67.7741 23.0221 67.736 22.9899 67.704L22.5326 67.2467C22.5006 67.2145 22.4625 67.1889 22.4206 67.1715C22.3786 67.1541 22.3337 67.1451 22.2883 67.1451C22.2429 67.1451 22.1979 67.1541 22.156 67.1715C22.114 67.1889 22.076 67.2145 22.044 67.2467L21.69 67.5975C21.4068 67.4198 21.0954 67.2917 20.7691 67.2185V66.7173C20.7691 66.626 20.7328 66.5383 20.6682 66.4737C20.6036 66.4091 20.516 66.3728 20.4246 66.3728H19.7888C19.6971 66.3728 19.6091 66.409 19.544 66.4735C19.4789 66.538 19.4419 66.6257 19.4411 66.7173V67.2185C19.1149 67.2917 18.8035 67.4198 18.5202 67.5975L18.1663 67.2467C18.1343 67.2145 18.0962 67.1889 18.0543 67.1715C18.0123 67.1541 17.9674 67.1451 17.922 67.1451C17.8766 67.1451 17.8316 67.1541 17.7897 67.1715C17.7477 67.1889 17.7097 67.2145 17.6777 67.2467L17.2235 67.704C17.1909 67.7358 17.165 67.7738 17.1473 67.8157C17.1297 67.8577 17.1206 67.9028 17.1206 67.9483C17.1206 67.9938 17.1297 68.0389 17.1473 68.0809C17.165 68.1228 17.1909 68.1608 17.2235 68.1926L17.5743 68.5434C17.3967 68.8271 17.2676 69.1383 17.1922 69.4643H16.6942C16.6025 69.4651 16.5149 69.5021 16.4503 69.5672C16.3858 69.6323 16.3496 69.7203 16.3496 69.812V70.4572C16.3496 70.5486 16.3859 70.6362 16.4505 70.7008C16.5151 70.7654 16.6028 70.8017 16.6942 70.8017H17.1922C17.2664 71.1281 17.3957 71.4395 17.5743 71.7226L17.2235 72.0765C17.1909 72.1083 17.165 72.1463 17.1473 72.1883C17.1297 72.2302 17.1206 72.2753 17.1206 72.3209C17.1206 72.3664 17.1297 72.4114 17.1473 72.4534C17.165 72.4954 17.1909 72.5334 17.2235 72.5652L17.6933 73.0225C17.7253 73.0547 17.7634 73.0802 17.8053 73.0976C17.8473 73.1151 17.8922 73.1241 17.9376 73.1241C17.983 73.1241 18.028 73.1151 18.0699 73.0976C18.1119 73.0802 18.1499 73.0547 18.1819 73.0225L18.5359 72.6685C18.819 72.8472 19.1304 72.9764 19.4568 73.0506V73.5487C19.4568 73.6409 19.4934 73.7293 19.5586 73.7945C19.6238 73.8597 19.7122 73.8963 19.8044 73.8963H20.4497C20.5413 73.8955 20.629 73.8585 20.6935 73.7934C20.758 73.7283 20.7942 73.6403 20.7942 73.5487V73.0506C21.1206 72.9764 21.432 72.8472 21.7151 72.6685L22.069 73.0225C22.101 73.0547 22.1391 73.0802 22.181 73.0976C22.223 73.1151 22.2679 73.1241 22.3133 73.1241C22.3587 73.1241 22.4037 73.1151 22.4456 73.0976C22.4875 73.0802 22.5256 73.0547 22.5576 73.0225L23.0149 72.5652C23.0471 72.5331 23.0727 72.4951 23.0901 72.4531C23.1076 72.4112 23.1165 72.3663 23.1165 72.3209C23.1165 72.2754 23.1076 72.2305 23.0901 72.1885C23.0727 72.1466 23.0471 72.1086 23.0149 72.0765L22.661 71.7226C22.8396 71.4395 22.9689 71.1281 23.0431 70.8017H23.5411C23.6301 70.7977 23.7141 70.7598 23.7758 70.6957C23.8376 70.6316 23.8724 70.5462 23.8732 70.4572ZM20.2617 71.6036C19.958 71.635 19.652 71.5715 19.3857 71.4219C19.1195 71.2724 18.9061 71.044 18.7749 70.7683C18.6436 70.4925 18.601 70.1829 18.6529 69.882C18.7047 69.581 18.8485 69.3036 19.0644 69.0876C19.2804 68.8717 19.5579 68.7279 19.8588 68.6761C20.1597 68.6242 20.4694 68.6668 20.7451 68.7981C21.0208 68.9293 21.2492 69.1427 21.3987 69.4089C21.5483 69.6751 21.6118 69.9812 21.5804 70.2849C21.5455 70.6227 21.3953 70.9382 21.1552 71.1784C20.9151 71.4185 20.5995 71.5687 20.2617 71.6036Z" fill="#263238"/>
<path d="M119.902 61.8562V61.211C119.902 61.1188 119.866 61.0304 119.801 60.9652C119.735 60.9 119.647 60.8633 119.555 60.8633H119.057C118.982 60.5369 118.853 60.2255 118.675 59.9425L119.029 59.5917C119.061 59.5596 119.086 59.5216 119.104 59.4796C119.121 59.4377 119.13 59.3928 119.13 59.3473C119.13 59.3019 119.121 59.257 119.104 59.215C119.086 59.1731 119.061 59.1351 119.029 59.103L118.571 58.6457C118.539 58.6135 118.501 58.588 118.459 58.5705C118.417 58.5531 118.372 58.5441 118.327 58.5441C118.282 58.5441 118.237 58.5531 118.195 58.5705C118.153 58.588 118.115 58.6135 118.083 58.6457L117.729 58.9965C117.445 58.8192 117.134 58.69 116.808 58.6144V58.0976C116.808 58.0523 116.799 58.0075 116.782 57.9657C116.764 57.9239 116.739 57.886 116.707 57.854C116.675 57.822 116.637 57.7966 116.595 57.7793C116.553 57.762 116.509 57.7531 116.463 57.7531H115.815C115.724 57.7531 115.636 57.7894 115.571 57.854C115.507 57.9186 115.47 58.0062 115.47 58.0976V58.5956C115.144 58.6712 114.833 58.8004 114.55 58.9777L114.196 58.6269C114.164 58.5947 114.125 58.5692 114.084 58.5517C114.042 58.5343 113.997 58.5253 113.951 58.5253C113.906 58.5253 113.861 58.5343 113.819 58.5517C113.777 58.5692 113.739 58.5947 113.707 58.6269L113.253 59.0842C113.22 59.116 113.194 59.154 113.177 59.196C113.159 59.238 113.15 59.283 113.15 59.3285C113.15 59.3741 113.159 59.4191 113.177 59.4611C113.194 59.5031 113.22 59.5411 113.253 59.5729L113.604 59.9237C113.425 60.2068 113.296 60.5181 113.221 60.8445H112.723C112.632 60.8454 112.544 60.8824 112.48 60.9475C112.415 61.0126 112.379 61.1005 112.379 61.1922V61.8562C112.379 61.9476 112.415 62.0353 112.48 62.0999C112.544 62.1645 112.632 62.2008 112.723 62.2008H113.225C113.299 62.5272 113.428 62.8386 113.607 63.1216L113.256 63.4756C113.223 63.5074 113.197 63.5454 113.18 63.5873C113.162 63.6293 113.153 63.6744 113.153 63.7199C113.153 63.7654 113.162 63.8105 113.18 63.8525C113.197 63.8944 113.223 63.9324 113.256 63.9642L113.71 64.4215C113.742 64.4537 113.78 64.4793 113.822 64.4967C113.864 64.5141 113.909 64.5231 113.954 64.5231C114 64.5231 114.045 64.5141 114.087 64.4967C114.129 64.4793 114.167 64.4537 114.199 64.4215L114.553 64.0676C114.836 64.2462 115.147 64.3754 115.474 64.4497V64.9477C115.474 65.0394 115.51 65.1273 115.574 65.1925C115.639 65.2576 115.726 65.2946 115.818 65.2954H116.466C116.558 65.2946 116.646 65.2576 116.71 65.1925C116.775 65.1273 116.811 65.0394 116.811 64.9477V64.4497C117.137 64.3754 117.449 64.2462 117.732 64.0676L118.086 64.4215C118.118 64.4537 118.156 64.4793 118.198 64.4967C118.24 64.5141 118.285 64.5231 118.33 64.5231C118.376 64.5231 118.42 64.5141 118.462 64.4967C118.504 64.4793 118.542 64.4537 118.574 64.4215L119.032 63.9642C119.064 63.9322 119.089 63.8941 119.107 63.8522C119.124 63.8103 119.133 63.7653 119.133 63.7199C119.133 63.6745 119.124 63.6295 119.107 63.5876C119.089 63.5457 119.064 63.5076 119.032 63.4756L118.675 63.1091C118.853 62.826 118.982 62.5146 119.057 62.1883H119.555C119.644 62.1883 119.73 62.1539 119.795 62.092C119.86 62.0302 119.898 61.9457 119.902 61.8562ZM116.291 63.0026C115.987 63.034 115.681 62.9705 115.415 62.821C115.149 62.6714 114.935 62.4431 114.804 62.1673C114.673 61.8916 114.63 61.582 114.682 61.281C114.734 60.9801 114.878 60.7026 115.094 60.4867C115.31 60.2707 115.587 60.127 115.888 60.0751C116.189 60.0233 116.499 60.0659 116.774 60.1971C117.05 60.3283 117.278 60.5417 117.428 60.808C117.578 61.0742 117.641 61.3802 117.61 61.684C117.573 62.0207 117.423 62.3347 117.183 62.5736C116.943 62.8125 116.628 62.9617 116.291 62.9964V63.0026Z" fill="#263238"/>
<path d="M67.1163 19.822V19.49C67.1163 19.4667 67.1116 19.4437 67.1026 19.4222C67.0936 19.4007 67.0804 19.3812 67.0638 19.3649C67.0472 19.3486 67.0275 19.3357 67.0058 19.3271C66.9842 19.3184 66.961 19.3142 66.9377 19.3146H66.684C66.6447 19.1472 66.578 18.9874 66.4867 18.8417L66.6684 18.6631C66.7013 18.6297 66.7197 18.5847 66.7197 18.5378C66.7197 18.491 66.7013 18.446 66.6684 18.4126L66.4335 18.1776C66.4006 18.1449 66.3561 18.1266 66.3097 18.1266C66.2634 18.1266 66.2189 18.1449 66.186 18.1776L66.0043 18.3593C65.8586 18.268 65.6988 18.2013 65.5314 18.162V17.9083C65.5314 17.8615 65.513 17.8165 65.4802 17.7831C65.4474 17.7497 65.4028 17.7306 65.356 17.7297H65.024C64.9772 17.7306 64.9325 17.7497 64.8997 17.7831C64.8669 17.8165 64.8486 17.8615 64.8486 17.9083V18.162C64.681 18.201 64.5212 18.2676 64.3756 18.3593L64.1939 18.1776C64.1605 18.1447 64.1155 18.1263 64.0686 18.1263C64.0218 18.1263 63.9768 18.1447 63.9434 18.1776L63.7116 18.4126C63.6787 18.446 63.6602 18.491 63.6602 18.5378C63.6602 18.5847 63.6787 18.6297 63.7116 18.6631L63.8901 18.8417C63.7999 18.9876 63.7343 19.1474 63.6959 19.3146H63.4391C63.3926 19.3146 63.3479 19.3331 63.315 19.366C63.2822 19.3989 63.2637 19.4435 63.2637 19.49V19.822C63.2637 19.8689 63.282 19.9138 63.3148 19.9472C63.3477 19.9806 63.3923 19.9998 63.4391 20.0006H63.6959C63.7338 20.167 63.7994 20.3258 63.8901 20.4704L63.7116 20.6521C63.6787 20.6855 63.6602 20.7305 63.6602 20.7774C63.6602 20.8243 63.6787 20.8693 63.7116 20.9027L63.9434 21.1376C63.9768 21.1705 64.0218 21.1889 64.0686 21.1889C64.1155 21.1889 64.1605 21.1705 64.1939 21.1376L64.3756 20.9559C64.5206 21.0479 64.6807 21.1136 64.8486 21.1501V21.4069C64.8486 21.4535 64.867 21.4981 64.8999 21.531C64.9328 21.5639 64.9774 21.5823 65.024 21.5823H65.356C65.4025 21.5823 65.4471 21.5639 65.48 21.531C65.5129 21.4981 65.5314 21.4535 65.5314 21.4069V21.1376C65.699 21.1005 65.859 21.0348 66.0043 20.9434L66.186 21.125C66.2189 21.1578 66.2634 21.1761 66.3097 21.1761C66.3561 21.1761 66.4006 21.1578 66.4335 21.125L66.6684 20.8901C66.7013 20.8567 66.7197 20.8117 66.7197 20.7648C66.7197 20.718 66.7013 20.673 66.6684 20.6396L66.4867 20.4579C66.5784 20.3134 66.6451 20.1546 66.684 19.9881H66.9377C66.983 19.9882 67.0266 19.9711 67.0598 19.9403C67.0929 19.9095 67.1131 19.8672 67.1163 19.822ZM65.2683 20.4109C65.1123 20.4302 64.9542 20.4006 64.8159 20.3262C64.6775 20.2518 64.5656 20.1361 64.4959 19.9954C64.4261 19.8546 64.4017 19.6956 64.4263 19.5404C64.4508 19.3852 64.5229 19.2414 64.6327 19.129C64.7426 19.0166 64.8846 18.9411 65.0392 18.9129C65.1938 18.8848 65.3533 18.9054 65.4957 18.9719C65.638 19.0383 65.7562 19.1474 65.8339 19.284C65.9116 19.4206 65.9449 19.578 65.9292 19.7343C65.9115 19.9051 65.8365 20.0649 65.7166 20.1877C65.5966 20.3106 65.4386 20.3892 65.2683 20.4109Z" fill="#263238"/>
<path d="M26.8233 41.7538H24.6934V43.8837H26.8233V41.7538ZM25.1256 42.186H26.3785V43.4546H25.1256V42.186Z" fill="#263238"/>
<path d="M112.86 83.3776H110.721V85.5075H112.851L112.86 83.3776ZM111.159 83.8098H112.428V85.0784H111.159V83.8098Z" fill="#263238"/>
<path d="M80.9045 22.3654H78.7715V24.4953H80.9014L80.9045 22.3654ZM79.2037 22.7945H80.4723V24.0474H79.2037V22.7945Z" fill="#263238"/>
<path d="M25.5713 75.7664H23.4414V77.8994H25.5713V75.7664ZM23.8705 76.1986H25.1234V77.4515H23.8705V76.1986Z" fill="#263238"/>
<path opacity="0.9" d="M87.7608 37.1119C87.5073 37.1113 87.2593 37.1859 87.0482 37.3263C86.8371 37.4667 86.6724 37.6666 86.575 37.9006C86.4775 38.1346 86.4517 38.3923 86.5008 38.641C86.5499 38.8897 86.6716 39.1183 86.8507 39.2977C87.0297 39.4772 87.258 39.5995 87.5066 39.6492C87.7551 39.6989 88.0129 39.6737 88.2472 39.5769C88.4814 39.48 88.6817 39.3158 88.8226 39.1051C88.9635 38.8943 89.0387 38.6465 89.0387 38.393C89.0387 38.0538 88.9042 37.7284 88.6646 37.4883C88.425 37.2481 88.1 37.1128 87.7608 37.1119ZM87.7608 39.1604C87.609 39.1604 87.4606 39.1154 87.3344 39.0311C87.2082 38.9467 87.1099 38.8269 87.0518 38.6867C86.9937 38.5465 86.9785 38.3922 87.0081 38.2433C87.0377 38.0944 87.1108 37.9577 87.2181 37.8504C87.3255 37.7431 87.4622 37.67 87.6111 37.6404C87.7599 37.6108 87.9142 37.626 88.0544 37.684C88.1947 37.7421 88.3145 37.8405 88.3988 37.9667C88.4832 38.0929 88.5282 38.2412 88.5282 38.393C88.5249 38.5944 88.4426 38.7863 88.299 38.9276C88.1555 39.0688 87.9621 39.1479 87.7608 39.1479V39.1604Z" fill="#263238"/>
<path d="M64.9884 43.1194L62.1193 39.1478C62.6455 39.1461 63.1496 38.9364 63.5217 38.5643C63.8937 38.1923 64.1035 37.6881 64.1051 37.162V26.3496C64.1027 25.8237 63.8927 25.32 63.5208 24.9481C63.1489 24.5763 62.6452 24.3662 62.1193 24.3638H37.187C36.6608 24.3654 36.1567 24.5752 35.7846 24.9472C35.4126 25.3193 35.2028 25.8234 35.2012 26.3496V37.162C35.202 37.6884 35.4115 38.193 35.7837 38.5652C36.156 38.9375 36.6606 39.1469 37.187 39.1478H58.7459L64.9884 43.1194Z" fill="#263238"/>
<path d="M43.4853 31.314C43.4853 31.0737 43.414 30.8387 43.2805 30.6389C43.1469 30.439 42.9571 30.2832 42.7351 30.1913C42.513 30.0993 42.2686 30.0752 42.0329 30.1221C41.7971 30.169 41.5806 30.2847 41.4106 30.4547C41.2407 30.6247 41.1249 30.8412 41.078 31.077C41.0311 31.3127 41.0552 31.5571 41.1472 31.7791C41.2392 32.0012 41.3949 32.191 41.5948 32.3245C41.7947 32.4581 42.0296 32.5293 42.27 32.5293C42.4296 32.5293 42.5876 32.4979 42.7351 32.4368C42.8825 32.3758 43.0165 32.2862 43.1293 32.1734C43.2422 32.0605 43.3317 31.9266 43.3928 31.7791C43.4538 31.6317 43.4853 31.4736 43.4853 31.314Z" fill="#F0F2F9"/>
<path d="M50.6552 31.314C50.6552 31.0735 50.5838 30.8385 50.4502 30.6385C50.3165 30.4386 50.1265 30.2829 49.9043 30.191C49.682 30.0991 49.4375 30.0752 49.2017 30.1223C48.9658 30.1695 48.7493 30.2855 48.5795 30.4558C48.4096 30.6261 48.2941 30.8429 48.2476 31.0789C48.201 31.3148 48.2256 31.5593 48.318 31.7813C48.4105 32.0033 48.5667 32.1929 48.767 32.326C48.9673 32.4592 49.2025 32.53 49.443 32.5293C49.6025 32.5293 49.7604 32.4979 49.9076 32.4368C50.0549 32.3757 50.1887 32.2861 50.3013 32.1732C50.4139 32.0603 50.5031 31.9263 50.5638 31.7789C50.6246 31.6315 50.6556 31.4735 50.6552 31.314Z" fill="#F0F2F9"/>
<path d="M57.8271 31.314C57.8271 31.0737 57.7558 30.8387 57.6223 30.6389C57.4887 30.439 57.2989 30.2832 57.0769 30.1913C56.8548 30.0993 56.6104 30.0752 56.3747 30.1221C56.1389 30.169 55.9224 30.2847 55.7524 30.4547C55.5825 30.6247 55.4667 30.8412 55.4198 31.077C55.3729 31.3127 55.397 31.5571 55.489 31.7791C55.581 32.0012 55.7367 32.191 55.9366 32.3245C56.1365 32.4581 56.3714 32.5293 56.6118 32.5293C56.7714 32.5293 56.9294 32.4979 57.0769 32.4368C57.2243 32.3758 57.3583 32.2862 57.4711 32.1734C57.584 32.0605 57.6735 31.9266 57.7346 31.7791C57.7956 31.6317 57.8271 31.4736 57.8271 31.314Z" fill="#F0F2F9"/>
</g>
<defs>
<clipPath id="clip0_1883_13489">
<rect width="140" height="140" rx="8" fill="white"/>
</clipPath>
</defs>
</svg>
