<svg width="33" height="32" viewBox="0 0 33 32" fill="none" xmlns="http://www.w3.org/2000/svg">
<path opacity="0.4" d="M16.2198 18.947L11.8598 23.307C11.3798 22.8803 10.9132 22.4403 10.4598 21.987C9.0865 20.6003 7.8465 19.147 6.73984 17.627C5.6465 16.107 4.7665 14.587 4.1265 13.0803C3.4865 11.5603 3.1665 10.107 3.1665 8.72033C3.1665 7.81366 3.3265 6.94699 3.6465 6.14699C3.9665 5.33366 4.47317 4.58699 5.17984 3.92033C6.03317 3.08033 6.9665 2.66699 7.95317 2.66699C8.3265 2.66699 8.69984 2.74699 9.03317 2.90699C9.37984 3.06699 9.6865 3.30699 9.9265 3.65366L13.0198 8.01366C13.2598 8.34699 13.4332 8.65366 13.5532 8.94699C13.6732 9.22699 13.7398 9.50699 13.7398 9.76033C13.7398 10.0803 13.6465 10.4003 13.4598 10.707C13.2865 11.0137 13.0332 11.3337 12.7132 11.6537L11.6998 12.707C11.5532 12.8537 11.4865 13.027 11.4865 13.2403C11.4865 13.347 11.4998 13.4403 11.5265 13.547C11.5665 13.6537 11.6065 13.7337 11.6332 13.8137C11.8732 14.2537 12.2865 14.827 12.8732 15.5203C13.4732 16.2137 14.1132 16.9203 14.8065 17.627C15.2865 18.0937 15.7532 18.547 16.2198 18.947Z" fill="#4C11AB"/>
<path d="M29.7926 24.4387C29.7926 24.8121 29.726 25.1988 29.5926 25.5721C29.5526 25.6788 29.5126 25.7854 29.4593 25.8921C29.2326 26.3721 28.9393 26.8254 28.5526 27.2521C27.8993 27.9721 27.1793 28.4921 26.366 28.8254C26.3526 28.8254 26.3393 28.8388 26.326 28.8388C25.5393 29.1588 24.686 29.3321 23.766 29.3321C22.406 29.3321 20.9526 29.0121 19.4193 28.3588C17.886 27.7054 16.3526 26.8254 14.8326 25.7188C14.3126 25.3321 13.7926 24.9454 13.2993 24.5321L17.6593 20.1721C18.0326 20.4521 18.366 20.6654 18.646 20.8121C18.7126 20.8388 18.7926 20.8788 18.886 20.9188C18.9926 20.9588 19.0993 20.9721 19.2193 20.9721C19.446 20.9721 19.6193 20.8921 19.766 20.7454L20.7793 19.7454C21.1126 19.4121 21.4326 19.1588 21.7393 18.9988C22.046 18.8121 22.3526 18.7188 22.686 18.7188C22.9393 18.7188 23.206 18.7721 23.4993 18.8921C23.7926 19.0121 24.0993 19.1854 24.4326 19.4121L28.846 22.5454C29.1926 22.7854 29.4326 23.0654 29.5793 23.3988C29.7126 23.7321 29.7926 24.0654 29.7926 24.4387Z" fill="#4C11AB"/>
</svg>
