<svg width="15" height="14" viewBox="0 0 15 14" fill="none" xmlns="http://www.w3.org/2000/svg">
<path fill-rule="evenodd" clip-rule="evenodd" d="M2.06524 2.2C1.57655 2.2 1.10789 2.39413 0.762336 2.73968C0.416785 3.08523 0.222656 3.5539 0.222656 4.04259V11.4129C0.222656 11.9016 0.416785 12.3703 0.762336 12.7158C1.10789 13.0614 1.57655 13.2555 2.06524 13.2555H13.1207C13.6094 13.2555 14.0781 13.0614 14.4236 12.7158C14.7692 12.3703 14.9633 11.9016 14.9633 11.4129V4.04259C14.9633 3.5539 14.7692 3.08523 14.4236 2.73968C14.0781 2.39413 13.6094 2.2 13.1207 2.2H11.6596C11.4152 2.19995 11.1809 2.10285 11.0082 1.93007L9.97544 0.897298C9.62997 0.551723 9.16138 0.357526 8.67273 0.357422H6.51323C6.02459 0.357526 5.55599 0.551723 5.21052 0.897298L4.17776 1.93007C4.00502 2.10285 3.77073 2.19995 3.5264 2.2H2.06524ZM7.59298 10.4916C7.95594 10.4916 8.31534 10.4201 8.65067 10.2812C8.986 10.1423 9.29068 9.93875 9.54733 9.6821C9.80398 9.42545 10.0076 9.12076 10.1465 8.78544C10.2854 8.45011 10.3569 8.09071 10.3569 7.72775C10.3569 7.36479 10.2854 7.00539 10.1465 6.67006C10.0076 6.33473 9.80398 6.03004 9.54733 5.7734C9.29068 5.51675 8.986 5.31316 8.65067 5.17426C8.31534 5.03537 7.95594 4.96388 7.59298 4.96388C6.85996 4.96388 6.15695 5.25507 5.63863 5.7734C5.1203 6.29172 4.82911 6.99472 4.82911 7.72775C4.82911 8.46077 5.1203 9.16378 5.63863 9.6821C6.15695 10.2004 6.85996 10.4916 7.59298 10.4916Z" fill="#182252"/>
</svg>
