<svg width="16" height="16" viewBox="0 0 16 16" fill="none" xmlns="http://www.w3.org/2000/svg">
<path d="M11.0001 4.00032V11.667C11.0001 13.1403 9.80675 14.3337 8.33341 14.3337C6.86008 14.3337 5.66675 13.1403 5.66675 11.667V3.33366C5.66675 2.41366 6.41341 1.66699 7.33341 1.66699C8.25341 1.66699 9.00008 2.41366 9.00008 3.33366V10.3337C9.00008 10.7003 8.70341 11.0003 8.33341 11.0003C7.96341 11.0003 7.66675 10.7003 7.66675 10.3337V4.00032H6.66675V10.3337C6.66675 11.2537 7.41341 12.0003 8.33341 12.0003C9.25341 12.0003 10.0001 11.2537 10.0001 10.3337V3.33366C10.0001 1.86033 8.80675 0.666992 7.33341 0.666992C5.86008 0.666992 4.66675 1.86033 4.66675 3.33366V11.667C4.66675 13.6937 6.31008 15.3337 8.33341 15.3337C10.3567 15.3337 12.0001 13.6937 12.0001 11.667V4.00032H11.0001Z" fill="white"/>
</svg>
