<svg width="852" height="800" viewBox="0 0 852 800" fill="none" xmlns="http://www.w3.org/2000/svg">
<g opacity="0.07" clip-path="url(#clip0_26:5635)">
<path d="M706.207 544.472L728.513 544.472L728.513 616.404L706.207 616.404L706.207 544.472Z" fill="#35488B"/>
<path d="M652.417 544.472L706.208 544.472L706.208 616.404L652.417 616.404L652.417 544.472Z" fill="#2C3A64"/>
<path d="M721.083 607.419C721.083 609.474 719.417 611.14 717.361 611.14C715.306 611.14 713.64 609.474 713.64 607.419C713.64 605.364 715.306 603.699 717.361 603.699C719.417 603.695 721.083 605.364 721.083 607.419Z" fill="#DDE7FE"/>
<path d="M719.993 607.42C719.993 608.875 718.814 610.051 717.362 610.051C715.91 610.051 714.73 608.872 714.73 607.42C714.73 605.968 715.91 604.789 717.362 604.789C718.814 604.789 719.993 605.965 719.993 607.42Z" fill="#6C7AFF"/>
<path d="M712.03 579.509L722.522 579.509L722.522 598.455L712.03 598.455L712.03 579.509Z" fill="#8FADEF"/>
<path d="M664.595 544.472L686.901 544.472L686.901 616.404L664.595 616.404L664.595 544.472Z" fill="#35488B"/>
<path d="M610.806 544.472L664.597 544.472L664.597 616.404L610.806 616.404L610.806 544.472Z" fill="#2C3A64"/>
<path d="M679.471 607.419C679.471 609.474 677.805 611.14 675.749 611.14C673.693 611.14 672.027 609.474 672.027 607.419C672.027 605.364 673.693 603.699 675.749 603.699C677.805 603.695 679.471 605.364 679.471 607.419Z" fill="#DDE7FE"/>
<path d="M678.381 607.42C678.381 608.875 677.201 610.051 675.749 610.051C674.297 610.051 673.117 608.872 673.117 607.42C673.117 605.968 674.297 604.789 675.749 604.789C677.201 604.789 678.381 605.965 678.381 607.42Z" fill="#6C7AFF"/>
<path d="M670.42 579.508L680.913 579.508L680.913 598.455L670.42 598.455L670.42 579.508Z" fill="#8FADEF"/>
<path d="M626.544 544.472L648.851 544.472L648.851 616.404L626.544 616.404L626.544 544.472Z" fill="#35488B"/>
<path d="M572.755 544.472L626.545 544.472L626.545 616.404L572.755 616.404L572.755 544.472Z" fill="#2C3A64"/>
<path d="M641.422 607.419C641.422 609.474 639.756 611.14 637.7 611.14C635.644 611.14 633.979 609.474 633.979 607.419C633.979 605.364 635.644 603.699 637.7 603.699C639.756 603.695 641.422 605.364 641.422 607.419Z" fill="#DDE7FE"/>
<path d="M640.332 607.42C640.332 608.875 639.152 610.051 637.7 610.051C636.248 610.051 635.068 608.872 635.068 607.42C635.068 605.968 636.248 604.789 637.7 604.789C639.152 604.789 640.332 605.965 640.332 607.42Z" fill="#6C7AFF"/>
<path d="M632.372 579.509L642.864 579.509L642.864 598.455L632.372 598.455L632.372 579.509Z" fill="#8FADEF"/>
<path d="M569.405 476.481L695.43 476.481L695.43 569.56L569.405 569.56L569.405 476.481Z" fill="#D8DAE0"/>
<path d="M636.938 476.481L736.859 476.481L736.859 569.56L636.938 569.56L636.938 476.481Z" fill="#F0F2F9"/>
<path d="M679.654 554.366L705.537 554.366C707.141 554.366 708.452 555.676 708.452 557.279L708.452 557.655C708.452 559.259 707.141 560.569 705.537 560.569L679.654 560.569C678.05 560.569 676.739 559.259 676.739 557.655L676.739 557.279C676.743 555.676 678.053 554.366 679.654 554.366Z" fill="#2C3A64"/>
<path d="M433.779 691.21L416.736 488.641C416.736 488.641 414.95 476.362 424.087 476.338C439.108 476.304 498.863 476.338 498.863 476.338C498.863 476.338 487.556 478.893 487.694 484.644C487.856 491.423 507.614 693.124 507.614 693.124L433.779 691.21Z" fill="#798EE8"/>
<path d="M504.489 480.02C501.533 480.01 443.685 479.913 429.057 480.103C422.683 480.182 421.562 485.771 421.51 489.385C421.483 491.119 421.703 492.402 421.703 492.402L422.148 497.667L423.28 511.086L424.276 522.941L425.56 538.174L426.639 551.031L438.749 694.972L512.584 696.885C512.584 696.885 504.264 612.475 498.376 551.031C497.718 544.187 497.093 537.622 496.517 531.495C496.331 529.54 496.152 527.626 495.976 525.764C495.431 519.951 494.931 514.614 494.496 509.9C494.268 507.414 494.055 505.108 493.865 502.994C493.113 494.708 492.675 489.416 492.668 488.409C492.665 487.823 492.716 487.278 492.813 486.768C494.017 480.313 503.378 480.02 504.489 480.02Z" fill="#AEC3FF"/>
<path d="M254.47 801.525L295.985 634.839L301.67 612.01L321.003 534.371L680.21 534.371L608.945 801.525L254.47 801.525Z" fill="#AEC3FF"/>
<path d="M254.471 801.525L248.717 799.608L313.356 528.571L321.003 534.371L254.471 801.525Z" fill="#798EE8"/>
<path d="M313.356 528.572L670.352 528.572L680.21 534.371L321.003 534.371L313.356 528.572Z" fill="#849DEF"/>
<path d="M438.722 476.351L516.016 476.351L516.016 480.023L438.722 480.023L438.722 476.351Z" fill="#AEC3FF"/>
<path d="M496.366 528.571L495.969 525.765L423.276 511.087L424.273 522.941L424.749 528.571L496.366 528.571Z" fill="#8C9DF4"/>
<g opacity="0.5">
<path opacity="0.5" d="M504.489 480.02C501.533 480.01 443.685 479.913 429.057 480.103C422.683 480.182 421.562 485.771 421.51 489.385L493.858 502.991C493.106 494.705 492.668 489.413 492.661 488.406C492.658 487.82 492.709 487.275 492.806 486.764C494.017 480.313 503.378 480.02 504.489 480.02Z" fill="#8C9DF4"/>
</g>
<path d="M254.47 801.525L608.945 801.525L666.461 586.819L307.94 586.819L254.47 801.525Z" fill="#8C9DF4"/>
<path d="M649.743 596.121L317.847 596.121L305.985 643.351L301.398 661.626L299.525 669.077L287.335 717.614L286.704 720.142L280.261 745.798L277.377 757.277L274.918 767.073L272.911 775.058L269.154 790.022L596.266 790.022L600.395 775.058L602.596 767.073L605.297 757.277L608.459 745.798L629.32 670.17L629.32 670.166L631.083 663.76L631.907 660.784L646.305 608.575L649.743 596.121Z" fill="#505ABA"/>
<path d="M758.198 474L239.288 474C238.95 474 238.674 474.351 238.674 474.78L238.674 475.123C238.674 475.553 238.95 475.903 239.288 475.903L758.198 475.903C758.536 475.903 758.812 475.553 758.812 475.123L758.812 474.78C758.81 474.351 758.534 474 758.198 474Z" fill="#233862"/>
<path d="M343.154 732.941L340.091 737.458C336.807 742.302 331.236 745.474 326.011 745.474L292.339 745.474L298.182 724.117L321.365 639.372C322.403 635.573 325.856 632.938 329.795 632.938L450.952 632.938C456.72 632.938 460.904 638.421 459.382 643.979L437.466 724.121L358.647 724.121C352.894 724.121 346.765 727.61 343.154 732.941Z" fill="#F4AB54"/>
<g opacity="0.5">
<path opacity="0.5" d="M543.61 739.03L533.628 751.777L533.155 752.377L532.593 752.481L486.518 760.956L471.014 676.711L530.744 665.726L544.006 737.792L544.117 738.382L543.61 739.03Z" fill="#8C9DF4"/>
</g>
<path d="M513.639 765.169L513.664 764.569L516.506 691.347L455.816 688.992L452.495 774.589L499.308 776.403L499.88 776.427L500.47 775.941L513.005 765.686L513.639 765.169Z" fill="#8C9DF4"/>
<path d="M473.718 744.202L372.438 738.561C372.234 738.551 372.075 738.375 372.089 738.171L379.481 605.596C379.491 605.392 379.667 605.234 379.871 605.247L481.006 610.881C481.209 610.892 481.368 611.068 481.354 611.271L473.956 743.991C473.949 744.112 473.842 744.209 473.718 744.202Z" fill="#233862"/>
<path d="M473.532 615.064L387.746 609.682C385.173 609.52 382.955 611.475 382.793 614.047L375.477 730.572C375.315 733.144 377.27 735.361 379.843 735.523L465.629 740.906C468.203 741.068 470.421 739.113 470.583 736.54L477.898 620.015C478.061 617.44 476.105 615.223 473.532 615.064Z" fill="#EBF3FA"/>
<path d="M439.677 721.684L385.71 718.298C385.683 718.298 385.658 718.318 385.658 718.346L385.572 719.694C385.569 719.722 385.589 719.746 385.617 719.746L439.584 723.132C439.611 723.132 439.635 723.111 439.635 723.084L439.722 721.735C439.725 721.708 439.704 721.687 439.677 721.684Z" fill="#BDD1F9"/>
<path d="M440.406 710.102L386.44 706.716C386.412 706.713 386.388 706.737 386.388 706.761L386.302 708.109C386.298 708.137 386.322 708.161 386.35 708.161L440.317 711.547C440.344 711.547 440.368 711.526 440.368 711.499L440.455 710.15C440.455 710.126 440.434 710.102 440.406 710.102Z" fill="#BDD1F9"/>
<path d="M460.659 717.188L386.073 712.509C386.045 712.509 386.021 712.529 386.021 712.557L385.935 713.905C385.935 713.933 385.955 713.957 385.983 713.957L460.566 718.636C460.593 718.639 460.617 718.615 460.617 718.591L460.704 717.243C460.707 717.212 460.686 717.188 460.659 717.188Z" fill="#BDD1F9"/>
<path d="M427.359 673.281L390.642 670.978C390.618 670.978 390.601 670.995 390.597 671.016L390.511 672.381C390.511 672.405 390.528 672.422 390.549 672.426L427.266 674.729C427.29 674.729 427.308 674.712 427.311 674.691L427.397 673.326C427.401 673.302 427.384 673.281 427.359 673.281Z" fill="#BDD1F9"/>
<path d="M441.033 679.952L390.28 676.77C390.256 676.77 390.239 676.787 390.236 676.808L390.149 678.173C390.149 678.197 390.167 678.214 390.187 678.218L440.939 681.4C440.964 681.4 440.981 681.383 440.984 681.362L441.071 679.997C441.071 679.973 441.053 679.952 441.033 679.952Z" fill="#BDD1F9"/>
<path d="M444.772 667.901L390.805 664.515C390.777 664.512 390.753 664.536 390.753 664.56L390.667 665.908C390.667 665.936 390.688 665.96 390.715 665.96L444.682 669.346C444.71 669.346 444.734 669.325 444.734 669.298L444.82 667.95C444.82 667.926 444.799 667.901 444.772 667.901Z" fill="#BDD1F9"/>
<path d="M451.173 662.489L391.167 658.724C391.142 658.724 391.122 658.741 391.118 658.765L391.032 660.124C391.029 660.148 391.049 660.168 391.074 660.172L451.08 663.937C451.104 663.937 451.125 663.92 451.128 663.896L451.215 662.537C451.215 662.513 451.197 662.489 451.173 662.489Z" fill="#BDD1F9"/>
<path d="M430.75 651L392.129 648.576C392.104 648.576 392.087 648.593 392.084 648.617L391.998 649.979C391.998 650.004 392.015 650.024 392.039 650.024L430.66 652.448C430.684 652.448 430.705 652.431 430.705 652.407L430.791 651.045C430.791 651.021 430.774 651 430.75 651Z" fill="#BDD1F9"/>
<path d="M431.478 639.414L392.857 636.99C392.833 636.99 392.812 637.007 392.812 637.028L392.726 638.39C392.726 638.414 392.743 638.435 392.764 638.435L431.385 640.859C431.409 640.859 431.43 640.842 431.43 640.818L431.516 639.455C431.52 639.438 431.502 639.418 431.478 639.414Z" fill="#BDD1F9"/>
<path d="M445.876 646.131L392.495 642.783C392.471 642.783 392.45 642.801 392.45 642.825L392.364 644.187C392.364 644.211 392.382 644.228 392.406 644.232L445.786 647.58C445.81 647.58 445.827 647.562 445.831 647.542L445.917 646.18C445.917 646.156 445.9 646.135 445.876 646.131Z" fill="#BDD1F9"/>
<path d="M446.128 749.977L398.897 747.347C395.782 747.174 393.389 744.688 393.551 741.799L393.947 734.665C393.985 733.996 394.599 733.489 395.317 733.527L451.219 736.64C451.94 736.682 452.491 737.254 452.454 737.923L452.057 745.057C451.895 747.946 449.239 750.15 446.128 749.977Z" fill="#F4AB54"/>
<path d="M302.883 577.025L301.031 581.607C299.048 586.521 294.278 589.734 288.979 589.734L254.839 589.734L254.839 568.081L254.839 475.633L396.061 475.633L396.061 568.081L316.149 568.081C310.316 568.081 305.067 571.619 302.883 577.025Z" fill="#F4AB54"/>
<rect x="193" y="476" width="589" height="326" fill="url(#paint0_linear_26:5635)" fill-opacity="0.8"/>
</g>
<g clip-path="url(#clip1_26:5635)">
<path d="M706.208 402.528H728.514V330.596H706.208V402.528Z" fill="#35488B"/>
<path d="M652.418 402.528H706.209V330.596H652.418V402.528Z" fill="#2C3A64"/>
<path d="M721.084 339.58C721.084 337.525 719.418 335.86 717.362 335.86C715.307 335.86 713.641 337.525 713.641 339.58C713.641 341.635 715.307 343.301 717.362 343.301C719.418 343.304 721.084 341.635 721.084 339.58Z" fill="#DDE7FE"/>
<path d="M719.994 339.58C719.994 338.125 718.815 336.949 717.363 336.949C715.911 336.949 714.731 338.128 714.731 339.58C714.731 341.031 715.911 342.211 717.363 342.211C718.815 342.211 719.994 341.035 719.994 339.58Z" fill="#6C7AFF"/>
<path d="M712.032 367.491H722.524V348.544H712.032V367.491Z" fill="#8FADEF"/>
<path d="M664.596 402.528H686.902V330.596H664.596V402.528Z" fill="#35488B"/>
<path d="M610.807 402.528H664.598V330.596H610.807V402.528Z" fill="#2C3A64"/>
<path d="M679.472 339.58C679.472 337.525 677.806 335.86 675.75 335.86C673.694 335.86 672.028 337.525 672.028 339.58C672.028 341.635 673.694 343.301 675.75 343.301C677.806 343.304 679.472 341.635 679.472 339.58Z" fill="#DDE7FE"/>
<path d="M678.382 339.58C678.382 338.125 677.202 336.949 675.75 336.949C674.298 336.949 673.118 338.128 673.118 339.58C673.118 341.031 674.298 342.211 675.75 342.211C677.202 342.211 678.382 341.035 678.382 339.58Z" fill="#6C7AFF"/>
<path d="M670.421 367.491H680.914V348.545H670.421V367.491Z" fill="#8FADEF"/>
<path d="M626.546 402.528H648.853V330.596H626.546V402.528Z" fill="#35488B"/>
<path d="M572.757 402.528H626.547V330.596H572.757V402.528Z" fill="#2C3A64"/>
<path d="M641.424 339.58C641.424 337.525 639.758 335.86 637.702 335.86C635.646 335.86 633.98 337.525 633.98 339.58C633.98 341.635 635.646 343.301 637.702 343.301C639.758 343.304 641.424 341.635 641.424 339.58Z" fill="#DDE7FE"/>
<path d="M640.334 339.58C640.334 338.125 639.154 336.949 637.702 336.949C636.25 336.949 635.07 338.128 635.07 339.58C635.07 341.031 636.25 342.211 637.702 342.211C639.154 342.211 640.334 341.035 640.334 339.58Z" fill="#6C7AFF"/>
<path d="M632.374 367.491H642.866V348.544H632.374V367.491Z" fill="#8FADEF"/>
<path d="M569.406 470.519H695.431V377.44H569.406V470.519Z" fill="#AECFCC"/>
<path d="M636.939 470.519H736.86V377.44H636.939V470.519Z" fill="#D3F2F0"/>
<path d="M679.655 392.634H705.538C707.142 392.634 708.453 391.324 708.453 389.721V389.345C708.453 387.742 707.142 386.431 705.538 386.431H679.655C678.051 386.431 676.74 387.742 676.74 389.345V389.721C676.744 391.324 678.054 392.634 679.655 392.634Z" fill="#2C3A64"/>
<path d="M447.062 255.79L430.02 458.359C430.02 458.359 428.233 470.638 437.37 470.662C452.391 470.696 512.146 470.662 512.146 470.662C512.146 470.662 500.84 468.107 500.977 462.356C501.14 455.577 520.897 253.876 520.897 253.876L447.062 255.79Z" fill="#798EE8"/>
<path d="M517.772 466.98C514.816 466.99 456.969 467.087 442.34 466.897C435.966 466.818 434.845 461.229 434.793 457.615C434.766 455.881 434.987 454.598 434.987 454.598L435.432 449.333L436.563 435.913L437.56 424.059L438.843 408.826L439.922 395.968L452.033 252.028L525.867 250.115C525.867 250.115 517.548 334.525 511.66 395.968C511.001 402.813 510.377 409.378 509.801 415.505C509.614 417.46 509.435 419.373 509.259 421.235C508.714 427.049 508.214 432.386 507.779 437.1C507.552 439.586 507.338 441.892 507.148 444.006C506.396 452.291 505.958 457.584 505.951 458.591C505.948 459.177 505.999 459.722 506.096 460.232C507.3 466.687 516.661 466.98 517.772 466.98Z" fill="#AEC3FF"/>
<path d="M267.753 145.475L309.268 312.161L314.953 334.99L334.286 412.629H693.493L622.228 145.475H267.753Z" fill="#AEC3FF"/>
<path d="M267.754 145.475L262 147.392L326.639 418.429L334.286 412.629L267.754 145.475Z" fill="#798EE8"/>
<path d="M326.639 418.428H683.635L693.493 412.629H334.286L326.639 418.428Z" fill="#849DEF"/>
<path d="M452.005 470.65H529.299V466.978H452.005V470.65Z" fill="#AEC3FF"/>
<path d="M509.649 418.429L509.252 421.235L436.56 435.913L437.556 424.059L438.032 418.429H509.649Z" fill="#8C9DF4"/>
<g opacity="0.5">
<path opacity="0.5" d="M517.772 466.98C514.816 466.99 456.969 467.087 442.341 466.897C435.967 466.818 434.846 461.229 434.794 457.615L507.142 444.009C506.39 452.295 505.952 457.587 505.945 458.594C505.941 459.18 505.993 459.725 506.09 460.236C507.3 466.687 516.662 466.98 517.772 466.98Z" fill="#8C9DF4"/>
</g>
<path d="M267.753 145.475H622.228L679.745 360.181H321.224L267.753 145.475Z" fill="#8C9DF4"/>
<path d="M663.027 350.879H331.13L319.268 303.649L314.681 285.374L312.808 277.923L300.618 229.386L299.987 226.858L293.544 201.202L290.66 189.723L288.201 179.927L286.194 171.942L282.438 156.978H609.55L613.678 171.942L615.879 179.927L618.58 189.723L621.743 201.202L642.604 276.83V276.833L644.366 283.24L645.191 286.215L659.588 338.425L663.027 350.879Z" fill="#505ABA"/>
<path opacity="0.2" d="M776.342 473H220.658C220.296 473 220 472.632 220 472.18V471.82C220 471.368 220.296 471 220.658 471H776.342C776.704 471 777 471.368 777 471.82V472.18C776.998 472.632 776.702 473 776.342 473Z" fill="white"/>
<path d="M384.815 211.991L381.752 207.474C378.468 202.63 372.898 199.458 367.672 199.458H334L339.843 220.814L363.026 305.559C364.064 309.359 367.517 311.993 371.456 311.993H492.614C498.381 311.993 502.565 306.511 501.044 300.953L479.127 220.811H400.309C394.555 220.811 388.426 217.322 384.815 211.991Z" fill="url(#paint1_linear_26:5635)"/>
<g opacity="0.5">
<path opacity="0.5" d="M585.271 205.902L575.289 193.155L574.816 192.555L574.254 192.451L528.179 183.976L512.675 268.221L572.405 279.206L585.668 207.14L585.778 206.55L585.271 205.902Z" fill="#8C9DF4"/>
</g>
<path d="M555.301 179.763L555.325 180.363L558.167 253.585L497.477 255.94L494.156 170.343L540.969 168.529L541.541 168.505L542.131 168.992L554.666 179.246L555.301 179.763Z" fill="#8C9DF4"/>
<path d="M506.23 195.136L406.567 214.025C406.367 214.062 406.233 214.257 406.273 214.457L431.006 344.915C431.043 345.115 431.238 345.249 431.438 345.209L530.958 326.346C531.159 326.309 531.293 326.114 531.253 325.914L506.494 195.314C506.471 195.195 506.352 195.113 506.23 195.136Z" fill="#233862"/>
<path d="M523 323.181L438.663 339.779C436.133 340.278 433.678 338.631 433.18 336.102L410.629 221.546C410.131 219.017 411.778 216.563 414.308 216.064L498.645 199.466C501.174 198.967 503.63 200.614 504.128 203.143L526.679 317.699C527.178 320.231 525.53 322.686 523 323.181Z" fill="#EBF3FA"/>
<path d="M475.441 221.929L422.386 232.371C422.358 232.374 422.332 232.357 422.328 232.329L422.065 231.004C422.058 230.977 422.076 230.951 422.103 230.947L475.158 220.505C475.186 220.502 475.212 220.519 475.216 220.546L475.478 221.872C475.485 221.899 475.468 221.922 475.441 221.929Z" fill="#BDD1F9"/>
<path d="M477.684 233.315L424.629 243.756C424.602 243.763 424.575 243.742 424.572 243.719L424.31 242.393C424.303 242.367 424.323 242.339 424.351 242.336L477.406 231.894C477.433 231.89 477.46 231.908 477.463 231.935L477.726 233.26C477.729 233.284 477.712 233.311 477.684 233.315Z" fill="#BDD1F9"/>
<path d="M496.831 223.631L423.505 238.062C423.477 238.065 423.451 238.048 423.447 238.021L423.185 236.695C423.181 236.668 423.198 236.641 423.226 236.638L496.549 222.208C496.576 222.201 496.603 222.221 496.606 222.245L496.868 223.57C496.876 223.601 496.858 223.627 496.831 223.631Z" fill="#BDD1F9"/>
<path d="M469.584 271.53L433.487 278.634C433.463 278.637 433.444 278.622 433.438 278.602L433.173 277.26C433.17 277.236 433.185 277.217 433.205 277.21L469.302 270.107C469.326 270.104 469.345 270.118 469.351 270.138L469.616 271.481C469.622 271.504 469.608 271.527 469.584 271.53Z" fill="#BDD1F9"/>
<path d="M482.264 263.121L432.369 272.939C432.345 272.942 432.325 272.927 432.319 272.907L432.055 271.565C432.051 271.541 432.066 271.522 432.086 271.516L481.981 261.697C482.005 261.694 482.025 261.709 482.031 261.729L482.295 263.071C482.299 263.095 482.284 263.118 482.264 263.121Z" fill="#BDD1F9"/>
<path d="M487.552 274.577L434.497 285.019C434.47 285.026 434.443 285.005 434.44 284.981L434.177 283.656C434.174 283.628 434.191 283.602 434.218 283.598L487.274 273.156C487.301 273.153 487.328 273.17 487.331 273.197L487.594 274.523C487.597 274.546 487.58 274.573 487.552 274.577Z" fill="#BDD1F9"/>
<path d="M494.609 279.102L435.616 290.713C435.593 290.716 435.57 290.701 435.563 290.678L435.299 289.343C435.293 289.319 435.311 289.296 435.334 289.289L494.327 277.679C494.351 277.676 494.374 277.69 494.38 277.713L494.644 279.049C494.647 279.073 494.633 279.099 494.609 279.102Z" fill="#BDD1F9"/>
<path d="M475.871 293.173L437.902 300.646C437.879 300.649 437.859 300.635 437.853 300.611L437.588 299.272C437.585 299.248 437.599 299.226 437.623 299.222L475.592 291.749C475.616 291.746 475.639 291.76 475.642 291.784L475.906 293.123C475.909 293.147 475.895 293.17 475.871 293.173Z" fill="#BDD1F9"/>
<path d="M478.114 304.563L440.145 312.036C440.121 312.039 440.098 312.025 440.096 312.004L439.831 310.666C439.828 310.642 439.843 310.619 439.863 310.616L477.832 303.143C477.856 303.139 477.878 303.154 477.882 303.178L478.146 304.517C478.152 304.533 478.137 304.556 478.114 304.563Z" fill="#BDD1F9"/>
<path d="M491.505 296.013L439.026 306.341C439.002 306.344 438.979 306.329 438.976 306.305L438.712 304.967C438.708 304.943 438.723 304.923 438.747 304.917L491.226 294.59C491.249 294.586 491.269 294.601 491.275 294.621L491.539 295.96C491.542 295.984 491.528 296.007 491.505 296.013Z" fill="#BDD1F9"/>
<path d="M478.121 193.033L431.644 201.842C428.579 202.422 426.532 205.2 427.072 208.043L428.402 215.064C428.528 215.722 429.203 216.144 429.909 216.012L484.918 205.586C485.628 205.45 486.1 204.81 485.974 204.152L484.644 197.132C484.104 194.289 481.182 192.454 478.121 193.033Z" fill="#182252"/>
<path d="M262.875 472.125C260.764 472.125 258.74 471.357 257.247 469.989C255.755 468.622 254.917 466.767 254.917 464.833V348.167C254.917 346.233 255.755 344.378 257.247 343.011C258.74 341.643 260.764 340.875 262.875 340.875H321.878L337.795 355.458H398.167C400.277 355.458 402.301 356.227 403.794 357.594C405.286 358.961 406.125 360.816 406.125 362.75V384.625H270.833V457.512L286.75 399.208H418.062L399.679 466.605C399.247 468.182 398.254 469.582 396.855 470.582C395.456 471.582 393.733 472.125 391.959 472.125H262.875Z" fill="url(#paint2_linear_26:5635)"/>
<path d="M308.474 354.814L306.297 349.473C303.965 343.75 298.358 340 292.131 340H252V365.24V473H418V365.24H324.063C317.207 365.24 311.04 361.116 308.474 354.814Z" fill="url(#paint3_linear_26:5635)"/>
</g>
<defs>
<linearGradient id="paint0_linear_26:5635" x1="450" y1="406.5" x2="552.5" y2="716.5" gradientUnits="userSpaceOnUse">
<stop stop-color="#182252" stop-opacity="0"/>
<stop offset="1" stop-color="#182252"/>
</linearGradient>
<linearGradient id="paint1_linear_26:5635" x1="424.848" y1="255.414" x2="453.52" y2="329.012" gradientUnits="userSpaceOnUse">
<stop stop-color="#F2B12E"/>
<stop offset="1" stop-color="#F2B12E" stop-opacity="0.41"/>
</linearGradient>
<linearGradient id="paint2_linear_26:5635" x1="336.489" y1="340.875" x2="336.489" y2="472.125" gradientUnits="userSpaceOnUse">
<stop stop-color="#CF9727"/>
<stop offset="1" stop-color="#F2B12E" stop-opacity="0.65"/>
</linearGradient>
<linearGradient id="paint3_linear_26:5635" x1="286.5" y1="362" x2="367.5" y2="465.5" gradientUnits="userSpaceOnUse">
<stop stop-color="#EDA71D"/>
<stop offset="1" stop-color="#E8C88B"/>
</linearGradient>
<clipPath id="clip0_26:5635">
<rect width="852" height="326" fill="white" transform="matrix(1 -8.74228e-08 -8.74228e-08 -1 0 800)"/>
</clipPath>
<clipPath id="clip1_26:5635">
<rect width="852" height="473" fill="white"/>
</clipPath>
</defs>
</svg>
