<svg width="10" height="12" viewBox="0 0 10 12" fill="none" xmlns="http://www.w3.org/2000/svg">
<path d="M5.96975 0H2C1.60218 0 1.22064 0.158035 0.93934 0.43934C0.658035 0.720644 0.5 1.10218 0.5 1.5V10.5C0.5 10.8978 0.658035 11.2794 0.93934 11.5607C1.22064 11.842 1.60218 12 2 12H8C8.39782 12 8.77936 11.842 9.06066 11.5607C9.34196 11.2794 9.5 10.8978 9.5 10.5V3.53025C9.49996 3.33135 9.42091 3.14062 9.28025 3L6.5 0.21975C6.35938 0.079088 6.16865 4.24781e-05 5.96975 0V0ZM6.125 2.625V1.125L8.375 3.375H6.875C6.67609 3.375 6.48532 3.29598 6.34467 3.15533C6.20402 3.01468 6.125 2.82391 6.125 2.625ZM2.375 6.75C2.27554 6.75 2.18016 6.71049 2.10984 6.64017C2.03951 6.56984 2 6.47446 2 6.375C2 6.27554 2.03951 6.18016 2.10984 6.10983C2.18016 6.03951 2.27554 6 2.375 6H7.625C7.72446 6 7.81984 6.03951 7.89017 6.10983C7.96049 6.18016 8 6.27554 8 6.375C8 6.47446 7.96049 6.56984 7.89017 6.64017C7.81984 6.71049 7.72446 6.75 7.625 6.75H2.375ZM2 7.875C2 7.77554 2.03951 7.68016 2.10984 7.60983C2.18016 7.53951 2.27554 7.5 2.375 7.5H7.625C7.72446 7.5 7.81984 7.53951 7.89017 7.60983C7.96049 7.68016 8 7.77554 8 7.875C8 7.97446 7.96049 8.06984 7.89017 8.14017C7.81984 8.21049 7.72446 8.25 7.625 8.25H2.375C2.27554 8.25 2.18016 8.21049 2.10984 8.14017C2.03951 8.06984 2 7.97446 2 7.875ZM2.375 9.75C2.27554 9.75 2.18016 9.71049 2.10984 9.64017C2.03951 9.56984 2 9.47446 2 9.375C2 9.27554 2.03951 9.18016 2.10984 9.10983C2.18016 9.03951 2.27554 9 2.375 9H5.375C5.47446 9 5.56984 9.03951 5.64017 9.10983C5.71049 9.18016 5.75 9.27554 5.75 9.375C5.75 9.47446 5.71049 9.56984 5.64017 9.64017C5.56984 9.71049 5.47446 9.75 5.375 9.75H2.375Z" fill="white"/>
</svg>
