<svg width="31" height="33" viewBox="0 0 31 33" fill="none" xmlns="http://www.w3.org/2000/svg">
<path d="M1.74701 33.0001C1.10808 32.8144 0.541947 32.5157 0.258878 31.8861C0.129476 31.5874 0.0243363 31.2484 0.0162486 30.9335C-0.00801434 28.2374 7.33227e-05 25.5412 7.33227e-05 22.845C7.33227e-05 22.8046 0.00816098 22.7643 0.0162486 22.7078C1.37498 22.7078 2.7337 22.7078 4.11669 22.7078C4.11669 24.7501 4.11669 26.7924 4.11669 28.8589C11.711 28.8589 19.2649 28.8589 26.8592 28.8589C26.8592 26.8166 26.8592 24.7743 26.8592 22.7078C28.2422 22.7078 29.5928 22.7078 31.0001 22.7078C31.0001 22.8288 31.0001 22.9499 31.0001 23.071C31.0001 25.5412 31.0001 28.0113 31.0001 30.4815C31.0001 31.9668 30.6442 32.4834 29.2531 33.0001C20.0817 33.0001 10.9103 33.0001 1.74701 33.0001Z" fill="#187226"/>
<path d="M12.3985 14.4415C12.3985 14.272 12.3985 14.1429 12.3985 14.0218C12.3985 9.76761 12.3985 5.52153 12.3985 1.26737C12.3985 0.379403 12.7786 0 13.6521 0C14.9138 0 16.1674 0 17.429 0C18.1974 0 18.6018 0.40362 18.6018 1.17857C18.6018 5.46502 18.6018 9.7434 18.6018 14.0298C18.6018 14.159 18.6018 14.2801 18.6018 14.4415C18.7473 14.4415 18.8606 14.4415 18.9819 14.4415C20.1869 14.4415 21.392 14.4415 22.5971 14.4415C23.0823 14.4415 23.4705 14.603 23.6727 15.055C23.8749 15.499 23.7455 15.8865 23.4382 16.2417C21.0766 18.9298 18.7231 21.626 16.3615 24.3141C15.8358 24.9115 15.1807 24.9115 14.6469 24.306C12.2934 21.626 9.93987 18.9379 7.59445 16.2578C7.27903 15.8946 7.13345 15.499 7.35182 15.047C7.5621 14.5949 7.9503 14.4415 8.43556 14.4415C9.72959 14.4415 11.0398 14.4415 12.3985 14.4415Z" fill="#187226"/>
</svg>
