<svg width="72" height="72" viewBox="0 0 72 72" fill="none" xmlns="http://www.w3.org/2000/svg">
<g filter="url(#filter0_d_26_36921)">
<rect x="8" y="4" width="56" height="56" rx="28" fill="#2A095E"/>
<g clip-path="url(#clip0_26_36921)">
<path d="M44.9999 27.9999C45.5303 27.9999 46.039 28.2106 46.4141 28.5857C46.7892 28.9608 46.9999 29.4695 46.9999 29.9999V33.9999C46.9999 34.5303 46.7892 35.039 46.4141 35.4141C46.039 35.7892 45.5303 35.9999 44.9999 35.9999H43.9379C43.6941 37.9332 42.7531 39.7111 41.2916 40.9999C39.8301 42.2887 37.9485 42.9999 35.9999 42.9999V40.9999C37.5912 40.9999 39.1173 40.3678 40.2425 39.2425C41.3677 38.1173 41.9999 36.5912 41.9999 34.9999V28.9999C41.9999 27.4086 41.3677 25.8825 40.2425 24.7573C39.1173 23.632 37.5912 22.9999 35.9999 22.9999C34.4086 22.9999 32.8825 23.632 31.7572 24.7573C30.632 25.8825 29.9999 27.4086 29.9999 28.9999V35.9999H26.9999C26.4694 35.9999 25.9607 35.7892 25.5857 35.4141C25.2106 35.039 24.9999 34.5303 24.9999 33.9999V29.9999C24.9999 29.4695 25.2106 28.9608 25.5857 28.5857C25.9607 28.2106 26.4694 27.9999 26.9999 27.9999H28.0619C28.3059 26.0668 29.247 24.2892 30.7085 23.0006C32.1699 21.712 34.0514 21.001 35.9999 21.001C37.9483 21.001 39.8298 21.712 41.2913 23.0006C42.7528 24.2892 43.6938 26.0668 43.9379 27.9999H44.9999ZM31.7599 35.7849L32.8199 34.0889C33.773 34.6859 34.8752 35.0017 35.9999 34.9999C37.1245 35.0017 38.2268 34.6859 39.1799 34.0889L40.2399 35.7849C38.9691 36.581 37.4994 37.0022 35.9999 36.9999C34.5003 37.0022 33.0306 36.581 31.7599 35.7849Z" fill="white"/>
</g>
</g>
<defs>
<filter id="filter0_d_26_36921" x="0" y="0" width="72" height="72" filterUnits="userSpaceOnUse" color-interpolation-filters="sRGB">
<feFlood flood-opacity="0" result="BackgroundImageFix"/>
<feColorMatrix in="SourceAlpha" type="matrix" values="0 0 0 0 0 0 0 0 0 0 0 0 0 0 0 0 0 0 127 0" result="hardAlpha"/>
<feOffset dy="4"/>
<feGaussianBlur stdDeviation="4"/>
<feComposite in2="hardAlpha" operator="out"/>
<feColorMatrix type="matrix" values="0 0 0 0 0.0941176 0 0 0 0 0.133333 0 0 0 0 0.321569 0 0 0 0.2 0"/>
<feBlend mode="normal" in2="BackgroundImageFix" result="effect1_dropShadow_26_36921"/>
<feBlend mode="normal" in="SourceGraphic" in2="effect1_dropShadow_26_36921" result="shape"/>
</filter>
<clipPath id="clip0_26_36921">
<rect width="24" height="24" fill="white" transform="translate(24 20)"/>
</clipPath>
</defs>
</svg>
