<svg width="72" height="72" viewBox="0 0 72 72" fill="none" xmlns="http://www.w3.org/2000/svg">
<g filter="url(#filter0_d_1883_13468)">
<rect x="8" y="4" width="56" height="56" rx="28" fill="#182252"/>
<path d="M45 28.0001C45.5304 28.0001 46.0391 28.2108 46.4142 28.5859C46.7893 28.9609 47 29.4697 47 30.0001V34.0001C47 34.5305 46.7893 35.0392 46.4142 35.4143C46.0391 35.7894 45.5304 36.0001 45 36.0001H43.938C43.6942 37.9334 42.7533 39.7113 41.2917 41.0001C39.8302 42.2889 37.9486 43.0001 36 43.0001V41.0001C37.5913 41.0001 39.1174 40.3679 40.2426 39.2427C41.3679 38.1175 42 36.5914 42 35.0001V29.0001C42 27.4088 41.3679 25.8827 40.2426 24.7574C39.1174 23.6322 37.5913 23.0001 36 23.0001C34.4087 23.0001 32.8826 23.6322 31.7574 24.7574C30.6321 25.8827 30 27.4088 30 29.0001V36.0001H27C26.4696 36.0001 25.9609 35.7894 25.5858 35.4143C25.2107 35.0392 25 34.5305 25 34.0001V30.0001C25 29.4697 25.2107 28.9609 25.5858 28.5859C25.9609 28.2108 26.4696 28.0001 27 28.0001H28.062C28.306 26.067 29.2471 24.2894 30.7086 23.0008C32.1701 21.7122 34.0516 21.0012 36 21.0012C37.9484 21.0012 39.8299 21.7122 41.2914 23.0008C42.7529 24.2894 43.694 26.067 43.938 28.0001H45ZM31.76 35.7851L32.82 34.0891C33.7731 34.6861 34.8754 35.0019 36 35.0001C37.1246 35.0019 38.2269 34.6861 39.18 34.0891L40.24 35.7851C38.9693 36.5812 37.4995 37.0024 36 37.0001C34.5005 37.0024 33.0307 36.5812 31.76 35.7851Z" fill="white"/>
</g>
<defs>
<filter id="filter0_d_1883_13468" x="0" y="0" width="72" height="72" filterUnits="userSpaceOnUse" color-interpolation-filters="sRGB">
<feFlood flood-opacity="0" result="BackgroundImageFix"/>
<feColorMatrix in="SourceAlpha" type="matrix" values="0 0 0 0 0 0 0 0 0 0 0 0 0 0 0 0 0 0 127 0" result="hardAlpha"/>
<feOffset dy="4"/>
<feGaussianBlur stdDeviation="4"/>
<feComposite in2="hardAlpha" operator="out"/>
<feColorMatrix type="matrix" values="0 0 0 0 0.0941176 0 0 0 0 0.133333 0 0 0 0 0.321569 0 0 0 0.2 0"/>
<feBlend mode="normal" in2="BackgroundImageFix" result="effect1_dropShadow_1883_13468"/>
<feBlend mode="normal" in="SourceGraphic" in2="effect1_dropShadow_1883_13468" result="shape"/>
</filter>
</defs>
</svg>
