<svg width="50" height="51" viewBox="0 0 50 51" fill="none" xmlns="http://www.w3.org/2000/svg">
<g clip-path="url(#clip0_14_154)">
<path d="M45.8333 8.41132C43.75 9.43216 41.7083 9.84674 39.5833 10.4738C37.2479 7.83841 33.7854 7.69257 30.4583 8.93841C27.1312 10.1842 24.9521 13.2301 25 16.7238V18.8072C18.2396 18.9801 12.2187 15.9009 8.33332 10.4738C8.33332 10.4738 -0.379178 25.9592 16.6667 33.3905C12.7667 35.9884 8.87707 37.7405 4.16666 37.5572C11.0583 41.3134 18.5687 42.6051 25.0708 40.7176C32.5292 38.5509 38.6583 32.9613 41.0104 24.5884C41.7121 22.0419 42.0605 19.411 42.0458 16.7697C42.0417 16.2509 45.1917 10.9947 45.8333 8.40924V8.41132Z" stroke="white" stroke-width="3" stroke-linecap="round" stroke-linejoin="round"/>
</g>
<defs>
<clipPath id="clip0_14_154">
<rect width="50" height="50" fill="white" transform="translate(0 0.0571289)"/>
</clipPath>
</defs>
</svg>
