<svg width="251" height="61" viewBox="0 0 251 61" fill="none" xmlns="http://www.w3.org/2000/svg">
<path d="M72.1035 50.8144L76.3471 20.885H80.6988L78.8819 33.7312H93.8108L95.6277 20.8818H100.002L95.7675 50.8144H91.3936L93.2994 37.366H78.3705L76.4647 50.8144H72.1035Z" fill="white"/>
<path d="M99.2837 42.3059C99.2449 40.2844 99.5863 38.2734 100.291 36.3761C100.893 34.7774 101.826 33.3213 103.029 32.1014C104.18 30.9574 105.564 30.0707 107.088 29.5006C108.677 28.9067 110.362 28.6075 112.059 28.6179C112.863 28.6167 113.665 28.6746 114.46 28.7913C115.186 28.8972 115.905 29.0445 116.614 29.2327C117.255 29.4042 117.885 29.6148 118.501 29.8632C119.085 30.1006 119.622 30.3413 120.111 30.5851L117.252 50.8238H113.66L113.444 48.718C112.952 49.049 112.463 49.3642 111.97 49.6637C111.47 49.9713 110.945 50.238 110.401 50.4613C109.821 50.6965 109.22 50.879 108.606 51.0067C107.904 51.15 107.189 51.2187 106.472 51.2116C105.468 51.2236 104.471 51.0371 103.54 50.6631C102.656 50.3017 101.875 49.73 101.266 48.9986C100.596 48.1773 100.099 47.2307 99.8047 46.2149C99.4351 44.9451 99.2595 43.6274 99.2837 42.3059ZM103.413 41.6754C103.413 43.7539 103.843 45.286 104.703 46.2717C105.128 46.7616 105.66 47.1497 106.258 47.4068C106.855 47.6639 107.504 47.7835 108.155 47.7565C108.688 47.7554 109.22 47.7047 109.744 47.6052C110.267 47.5079 110.781 47.3677 111.281 47.1859C111.758 47.0109 112.221 46.8001 112.666 46.5554C113.077 46.3374 113.462 46.0753 113.816 45.7736L115.633 32.9021C115.449 32.8171 115.261 32.7414 115.07 32.6751C114.765 32.5698 114.454 32.4804 114.14 32.4072C113.778 32.321 113.377 32.2454 112.939 32.1802C112.476 32.1157 112.009 32.0841 111.541 32.0856C110.438 32.0788 109.345 32.2933 108.327 32.7161C107.348 33.1298 106.475 33.7569 105.773 34.5509C105.005 35.4308 104.42 36.4529 104.051 37.5583C103.61 38.8815 103.396 40.2691 103.419 41.6628L103.413 41.6754Z" fill="white"/>
<path d="M123.002 32.2499C123.536 31.922 124.213 31.55 125.035 31.1339C125.931 30.6854 126.853 30.2896 127.795 29.9486C128.874 29.5594 129.977 29.2434 131.099 29.0028C132.301 28.7422 133.528 28.6121 134.758 28.6151C135.941 28.5716 137.118 28.8003 138.198 29.2834C139.034 29.6759 139.746 30.2888 140.256 31.0551C140.746 31.832 141.046 32.7118 141.133 33.6243C141.24 34.6399 141.221 35.6647 141.079 36.6759L139.087 50.8115H134.929L136.899 36.9092C136.972 36.3575 136.994 35.8004 136.965 35.2447C136.946 34.7093 136.817 34.1835 136.584 33.7C136.345 33.2267 135.973 32.8317 135.514 32.562C134.912 32.2401 134.233 32.0875 133.551 32.1206C132.94 32.1246 132.333 32.2008 131.74 32.3476C131.119 32.4962 130.508 32.6793 129.908 32.8961C129.312 33.1063 128.751 33.3385 128.224 33.5928C127.697 33.845 127.252 34.0688 126.89 34.2706L124.546 50.8147H120.385L123.002 32.2499Z" fill="white"/>
<path d="M156.373 50.8145L156.157 48.7086C155.159 49.4242 154.084 50.0269 152.952 50.5055C151.77 50.9827 150.504 51.2196 149.229 51.2022C148.245 51.2126 147.269 51.0416 146.348 50.6978C145.467 50.3628 144.68 49.8222 144.055 49.1216C143.359 48.3168 142.842 47.376 142.536 46.36C142.151 45.0554 141.969 43.6999 141.996 42.3407C141.981 40.8665 142.159 39.3966 142.527 37.9682C142.842 36.7532 143.323 35.5866 143.956 34.5005C145.047 32.629 146.635 31.0905 148.546 30.0524C149.399 29.5856 150.309 29.2276 151.252 28.9869C152.119 28.7651 153.01 28.6497 153.905 28.6432C154.475 28.6401 155.046 28.6696 155.613 28.7315C156.05 28.7796 156.484 28.8511 156.913 28.9459C157.247 29.0189 157.577 29.1158 157.897 29.2359C158.18 29.3431 158.444 29.4408 158.688 29.5259L160.089 19.8101H164.374L159.978 50.8145H156.373ZM146.132 41.7039C146.132 43.7698 146.561 45.2924 147.418 46.2718C147.85 46.7596 148.387 47.1451 148.989 47.3998C149.591 47.6546 150.243 47.7722 150.897 47.744C151.839 47.7316 152.775 47.5862 153.676 47.3121C154.68 47.02 155.628 46.5629 156.481 45.9597L158.32 32.9589C157.774 32.656 157.181 32.4431 156.566 32.3285C155.792 32.153 155 32.0662 154.206 32.07C153.139 32.0641 152.081 32.2643 151.09 32.6595C150.105 33.0555 149.224 33.6702 148.514 34.4564C147.734 35.3313 147.141 36.3545 146.77 37.4638C146.32 38.8317 146.104 40.265 146.132 41.7039Z" fill="white"/>
<path d="M162.681 59.0013C163.158 58.4885 163.681 57.9084 164.25 57.2611C164.82 56.6138 165.401 55.9339 165.994 55.2215C166.585 54.5027 167.169 53.7714 167.747 53.0148C168.326 52.2582 168.866 51.53 169.371 50.808H168.735C167.939 48.9907 167.238 47.1335 166.636 45.244C165.516 41.7386 164.764 38.1277 164.393 34.4689C164.213 32.6846 164.116 30.8898 164.101 29.0845L168.583 28.8701C168.555 30.4758 168.606 32.1014 168.735 33.747C168.864 35.3925 169.062 37.0077 169.329 38.5923C169.596 40.179 169.929 41.7048 170.327 43.1697C170.693 44.5464 171.145 45.8993 171.68 47.2206H171.918C172.987 45.6929 173.962 44.1033 174.84 42.4604C175.736 40.7917 176.533 39.145 177.232 37.5205C177.931 35.8959 178.53 34.3375 179.03 32.8454C179.528 31.3574 179.92 30.0323 180.208 28.8701L184.655 29.0845C184.35 30.2593 183.967 31.4919 183.505 32.7823C183.044 34.0727 182.525 35.3799 181.949 36.704C181.352 38.0322 180.725 39.3531 180.069 40.6666C179.412 41.9801 178.729 43.2411 178.02 44.4495C177.321 45.6664 176.618 46.816 175.911 47.8983C175.203 48.9807 174.517 49.9506 173.852 50.808C173.429 51.4385 172.9 52.1951 172.264 53.0778C171.629 53.9605 170.959 54.8758 170.254 55.8236C169.544 56.7693 168.84 57.6962 168.141 58.6041C167.443 59.512 166.807 60.3106 166.236 60.9999L162.681 59.0013Z" fill="white"/>
<path d="M186.615 19.6587H192.914L191.421 30.1784C191.767 30.0082 192.183 29.8159 192.666 29.6015C193.185 29.3728 193.715 29.1697 194.254 28.9931C194.865 28.7942 195.486 28.63 196.116 28.5013C196.79 28.3636 197.476 28.2949 198.164 28.2964C199.283 28.2634 200.396 28.4788 201.42 28.9269C202.301 29.3252 203.066 29.9379 203.644 30.708C204.224 31.5068 204.616 32.4247 204.79 33.3939C204.994 34.5017 205.009 35.6355 204.835 36.7481L202.843 50.7986H196.586L198.492 37.3755C198.52 37.1895 198.546 36.9594 198.568 36.6883C198.591 36.4019 198.591 36.114 198.568 35.8276C198.539 35.5205 198.477 35.2172 198.384 34.9229C198.293 34.6244 198.138 34.349 197.929 34.1158C197.698 33.8643 197.414 33.6663 197.097 33.5358C196.684 33.3724 196.242 33.2952 195.798 33.3088C195.36 33.3162 194.925 33.3701 194.499 33.4696C194.007 33.5778 193.523 33.7146 193.047 33.8794C192.571 34.0433 192.126 34.2199 191.716 34.4059C191.384 34.5507 191.066 34.7236 190.763 34.9229L188.511 50.7986H182.197L186.615 19.6587Z" fill="white"/>
<path d="M207.97 28.8984H214.25L212.452 41.6627C212.32 42.4084 212.32 43.1711 212.452 43.9167C212.547 44.4321 212.774 44.9143 213.112 45.3164C213.423 45.66 213.825 45.9092 214.272 46.0352C214.757 46.1746 215.26 46.2436 215.765 46.2401C216.574 46.2462 217.378 46.1227 218.147 45.8744C218.862 45.6415 219.541 45.3081 220.161 44.8845L222.432 28.8984H228.699L225.602 50.8143H220.123L219.754 48.6234C219.348 48.9776 218.918 49.3041 218.468 49.6006C217.971 49.9307 217.444 50.2156 216.896 50.4518C216.316 50.7 215.715 50.8972 215.101 51.0413C213.226 51.4636 211.265 51.295 209.491 50.559C208.556 50.1259 207.755 49.4494 207.176 48.6013C206.596 47.7254 206.222 46.7308 206.083 45.6916C205.918 44.4963 205.929 43.2836 206.115 42.0915L207.97 28.8984Z" fill="white"/>
<path d="M232.336 19.6587H238.638L237.141 30.2951C237.504 30.0849 237.927 29.8632 238.412 29.6299C238.917 29.3938 239.433 29.1834 239.959 28.9994C240.533 28.7883 241.123 28.6186 241.722 28.4919C242.349 28.3613 242.987 28.2958 243.628 28.2964C244.762 28.2637 245.89 28.479 246.931 28.9269C247.835 29.335 248.626 29.9536 249.237 30.7301C249.866 31.5523 250.321 32.4914 250.578 33.4917C250.877 34.6383 251.023 35.819 251.013 37.0035C251.038 38.9941 250.756 40.9767 250.177 42.8828C249.676 44.5408 248.82 46.0719 247.668 47.3719C246.507 48.6391 245.065 49.6212 243.456 50.2407C241.569 50.9503 239.562 51.2938 237.545 51.2526C236.651 51.2516 235.757 51.1937 234.87 51.0792C233.985 50.9657 233.138 50.8186 232.329 50.6379C231.52 50.4571 230.759 50.2564 230.045 50.0357C229.332 49.8151 228.697 49.5902 228.14 49.3611L232.336 19.6587ZM234.956 45.7106C235.474 45.8787 236.005 46.0042 236.544 46.0857C237.157 46.1825 237.776 46.2299 238.396 46.2276C240.575 46.2276 242.173 45.5256 243.189 44.1217C244.206 42.7178 244.715 40.7213 244.717 38.1321C244.717 36.6399 244.399 35.4619 243.764 34.5982C243.129 33.7344 242.176 33.3004 240.905 33.2962C240.498 33.3004 240.093 33.3469 239.695 33.4349C239.265 33.5282 238.841 33.6472 238.425 33.7911C238.04 33.9222 237.663 34.0759 237.297 34.2514C237.021 34.382 236.757 34.5371 236.509 34.7148L234.956 45.7106Z" fill="white"/>
<path d="M28.3334 41.5303L37.8911 47.1227L37.872 52.8823C31.8052 52.8823 24.8489 52.898 18.7153 52.9106L18.7407 46.9052L28.3334 41.5303Z" fill="#016323"/>
<path d="M52.6548 52.7313C51.667 52.7786 49.3577 52.8101 46.2513 52.8354C47.8764 48.7066 48.0066 44.1459 46.6197 39.9324C45.03 35.1268 41.6102 31.1286 37.0906 28.7916C34.2226 27.0133 30.8837 26.1283 27.5043 26.2507C24.4474 26.3707 21.4827 27.3228 18.9345 29.0028C15.9502 30.6341 13.46 33.0283 11.7224 35.9368C9.98485 38.8454 9.06308 42.1624 9.05277 45.5437C9.04824 48.0761 9.54916 50.5844 10.5266 52.9236C6.92778 52.9236 4.27233 52.9425 3.29083 52.9615C0.619504 53.015 -0.358818 52.0441 0.114461 49.333C1.90593 39.1632 3.51953 28.9713 5.26971 18.7952C5.82875 15.5481 7.81081 13.8805 11.146 13.8616C21.8567 13.8111 32.5685 13.8111 43.2813 13.8616C46.5339 13.8616 48.4969 15.4094 49.0496 18.5114C50.9142 28.9776 52.7025 39.45 54.3478 49.9477C54.4812 50.8083 53.2933 52.6935 52.6548 52.725" fill="#016323"/>
<path d="M40.7497 10.1036C31.9892 3.30695 22.7937 3.43935 13.9411 10.3401L10.9585 7.10566C15.8342 -0.460234 34.146 -4.05719 44.231 6.97956L40.737 10.1036" fill="#A3C626"/>
</svg>
