<svg width="251" height="62" viewBox="0 0 251 62" fill="none" xmlns="http://www.w3.org/2000/svg">
<path d="M72.1038 51.3145L76.3474 21.3851H80.699L78.8821 34.2313H93.8111L95.628 21.3819H100.002L95.7677 51.3145H91.3939L93.2997 37.8661H78.3707L76.4649 51.3145H72.1038Z" fill="#212322"/>
<path d="M99.2837 42.806C99.2449 40.7844 99.5863 38.7734 100.291 36.8762C100.893 35.2774 101.826 33.8214 103.029 32.6015C104.18 31.4575 105.564 30.5708 107.088 30.0007C108.677 29.4068 110.362 29.1076 112.059 29.118C112.863 29.1167 113.665 29.1747 114.46 29.2914C115.186 29.3972 115.905 29.5446 116.614 29.7327C117.255 29.9043 117.885 30.1149 118.501 30.3632C119.085 30.6007 119.622 30.8413 120.111 31.0851L117.252 51.3239H113.66L113.444 49.218C112.952 49.5491 112.463 49.8643 111.97 50.1638C111.47 50.4714 110.945 50.7381 110.401 50.9614C109.821 51.1965 109.22 51.3791 108.606 51.5067C107.904 51.65 107.189 51.7187 106.472 51.7116C105.468 51.7236 104.471 51.5372 103.54 51.1631C102.656 50.8017 101.875 50.2301 101.266 49.4986C100.596 48.6774 100.099 47.7307 99.8047 46.715C99.4351 45.4452 99.2595 44.1275 99.2837 42.806ZM103.413 42.1755C103.413 44.254 103.843 45.7861 104.703 46.7717C105.128 47.2617 105.66 47.6497 106.258 47.9069C106.855 48.164 107.504 48.2835 108.155 48.2566C108.688 48.2554 109.22 48.2048 109.744 48.1052C110.267 48.008 110.781 47.8678 111.281 47.686C111.758 47.511 112.221 47.3002 112.666 47.0555C113.077 46.8375 113.462 46.5753 113.816 46.2737L115.633 33.4022C115.449 33.3172 115.261 33.2414 115.07 33.1752C114.765 33.0699 114.454 32.9804 114.14 32.9073C113.778 32.8211 113.377 32.7454 112.939 32.6803C112.476 32.6158 112.009 32.5842 111.541 32.5857C110.438 32.5789 109.345 32.7933 108.327 33.2162C107.348 33.6299 106.475 34.2569 105.773 35.0509C105.005 35.9309 104.42 36.953 104.051 38.0584C103.61 39.3815 103.396 40.7692 103.419 42.1629L103.413 42.1755Z" fill="#212322"/>
<path d="M123.002 32.7496C123.536 32.4218 124.213 32.0498 125.035 31.6337C125.931 31.1852 126.853 30.7894 127.795 30.4483C128.874 30.0592 129.977 29.7432 131.099 29.5026C132.301 29.2419 133.528 29.1119 134.758 29.1148C135.941 29.0714 137.118 29.3001 138.198 29.7832C139.034 30.1757 139.746 30.7885 140.256 31.5548C140.746 32.3318 141.046 33.2116 141.133 34.1241C141.24 35.1397 141.221 36.1644 141.079 37.1757L139.087 51.3113H134.929L136.899 37.4089C136.972 36.8573 136.994 36.3001 136.965 35.7445C136.946 35.2091 136.817 34.6833 136.584 34.1997C136.345 33.7265 135.973 33.3315 135.514 33.0617C134.912 32.7399 134.233 32.5873 133.551 32.6204C132.94 32.6244 132.333 32.7006 131.74 32.8473C131.119 32.9959 130.508 33.179 129.908 33.3959C129.312 33.606 128.751 33.8383 128.224 34.0926C127.697 34.3448 127.252 34.5686 126.89 34.7703L124.546 51.3144H120.385L123.002 32.7496Z" fill="#212322"/>
<path d="M156.373 51.3145L156.157 49.2086C155.159 49.9242 154.084 50.5269 152.952 51.0055C151.77 51.4827 150.504 51.7196 149.229 51.7022C148.245 51.7126 147.269 51.5416 146.348 51.1978C145.467 50.8628 144.68 50.3222 144.055 49.6216C143.359 48.8168 142.842 47.876 142.536 46.86C142.151 45.5554 141.969 44.1999 141.996 42.8407C141.981 41.3665 142.159 39.8966 142.527 38.4682C142.842 37.2532 143.323 36.0866 143.956 35.0005C145.047 33.129 146.635 31.5905 148.546 30.5524C149.399 30.0856 150.309 29.7276 151.252 29.4869C152.119 29.2651 153.01 29.1497 153.905 29.1432C154.475 29.1401 155.046 29.1696 155.613 29.2315C156.05 29.2796 156.484 29.3511 156.913 29.4459C157.247 29.5189 157.577 29.6158 157.897 29.7359C158.18 29.8431 158.444 29.9408 158.688 30.0259L160.089 20.3101H164.374L159.978 51.3145H156.373ZM146.132 42.2039C146.132 44.2698 146.561 45.7924 147.418 46.7718C147.85 47.2596 148.387 47.6451 148.989 47.8998C149.591 48.1546 150.243 48.2722 150.897 48.244C151.839 48.2316 152.775 48.0862 153.676 47.8121C154.68 47.52 155.628 47.0629 156.481 46.4597L158.32 33.4589C157.774 33.156 157.181 32.9431 156.566 32.8285C155.792 32.653 155 32.5662 154.206 32.57C153.139 32.5641 152.081 32.7643 151.09 33.1595C150.105 33.5555 149.224 34.1702 148.514 34.9564C147.734 35.8313 147.141 36.8545 146.77 37.9638C146.32 39.3317 146.104 40.765 146.132 42.2039Z" fill="#212322"/>
<path d="M162.681 59.5013C163.158 58.9885 163.681 58.4085 164.25 57.7612C164.82 57.1139 165.401 56.434 165.994 55.7215C166.585 55.0028 167.169 54.2714 167.747 53.5148C168.326 52.7582 168.866 52.03 169.371 51.3081H168.735C167.939 49.4908 167.238 47.6336 166.636 45.744C165.516 42.2387 164.764 38.6278 164.393 34.9689C164.213 33.1846 164.116 31.3899 164.101 29.5845L168.583 29.3702C168.555 30.9758 168.606 32.6014 168.735 34.247C168.864 35.8926 169.062 37.5077 169.329 39.0923C169.596 40.6791 169.929 42.2049 170.327 43.6697C170.693 45.0465 171.145 46.3994 171.68 47.7206H171.918C172.987 46.1929 173.962 44.6034 174.84 42.9604C175.736 41.2917 176.533 39.6451 177.232 38.0205C177.931 36.3959 178.53 34.8376 179.03 33.3454C179.528 31.8575 179.92 30.5324 180.208 29.3702L184.655 29.5845C184.35 30.7594 183.967 31.992 183.505 33.2824C183.044 34.5728 182.525 35.88 181.949 37.204C181.352 38.5323 180.725 39.8531 180.069 41.1667C179.412 42.4802 178.729 43.7412 178.02 44.9496C177.321 46.1665 176.618 47.3161 175.911 48.3984C175.203 49.4807 174.517 50.4506 173.852 51.3081C173.429 51.9386 172.9 52.6952 172.264 53.5779C171.629 54.4606 170.959 55.3758 170.254 56.3237C169.544 57.2694 168.84 58.1962 168.141 59.1041C167.443 60.012 166.807 60.8107 166.236 61.5L162.681 59.5013Z" fill="#212322"/>
<path d="M186.615 20.1588H192.914L191.421 30.6785C191.767 30.5083 192.183 30.316 192.666 30.1016C193.185 29.8728 193.715 29.6698 194.254 29.4932C194.865 29.2942 195.486 29.1301 196.116 29.0014C196.79 28.8636 197.476 28.795 198.164 28.7965C199.283 28.7635 200.396 28.9789 201.42 29.427C202.301 29.8253 203.066 30.438 203.644 31.2081C204.224 32.0069 204.616 32.9248 204.79 33.894C204.994 35.0018 205.009 36.1355 204.835 37.2482L202.843 51.2987H196.586L198.492 37.8755C198.52 37.6896 198.546 37.4594 198.568 37.1883C198.591 36.9019 198.591 36.6141 198.568 36.3277C198.539 36.0205 198.477 35.7173 198.384 35.4229C198.293 35.1244 198.138 34.8491 197.929 34.6159C197.698 34.3644 197.414 34.1664 197.097 34.0359C196.684 33.8725 196.242 33.7952 195.798 33.8089C195.36 33.8163 194.925 33.8702 194.499 33.9697C194.007 34.0778 193.523 34.2147 193.047 34.3795C192.571 34.5434 192.126 34.7199 191.716 34.9059C191.384 35.0507 191.066 35.2237 190.763 35.4229L188.511 51.2987H182.197L186.615 20.1588Z" fill="#212322"/>
<path d="M207.97 29.3986H214.25L212.452 42.1629C212.32 42.9085 212.32 43.6712 212.452 44.4169C212.547 44.9322 212.774 45.4144 213.112 45.8165C213.423 46.1601 213.825 46.4093 214.272 46.5353C214.757 46.6747 215.26 46.7437 215.765 46.7402C216.574 46.7463 217.378 46.6228 218.147 46.3745C218.862 46.1416 219.541 45.8083 220.161 45.3847L222.432 29.3986H228.699L225.602 51.3144H220.123L219.754 49.1235C219.348 49.4777 218.918 49.8042 218.468 50.1007C217.971 50.4308 217.444 50.7157 216.896 50.9519C216.316 51.2001 215.715 51.3973 215.101 51.5414C213.226 51.9637 211.265 51.7951 209.491 51.0591C208.556 50.626 207.755 49.9495 207.176 49.1014C206.596 48.2255 206.222 47.2309 206.083 46.1917C205.918 44.9965 205.929 43.7838 206.115 42.5916L207.97 29.3986Z" fill="#212322"/>
<path d="M232.336 20.1588H238.638L237.141 30.7951C237.504 30.585 237.927 30.3632 238.412 30.13C238.917 29.8939 239.433 29.6834 239.959 29.4995C240.533 29.2883 241.123 29.1187 241.722 28.9919C242.349 28.8613 242.987 28.7958 243.628 28.7965C244.762 28.7638 245.89 28.979 246.931 29.427C247.835 29.8351 248.626 30.4537 249.237 31.2302C249.866 32.0524 250.321 32.9915 250.578 33.9917C250.877 35.1383 251.023 36.3191 251.013 37.5036C251.038 39.4941 250.756 41.4768 250.177 43.3829C249.676 45.0408 248.82 46.572 247.668 47.872C246.507 49.1392 245.065 50.1213 243.456 50.7407C241.569 51.4503 239.562 51.7939 237.545 51.7527C236.651 51.7516 235.757 51.6937 234.87 51.5793C233.985 51.4658 233.138 51.3187 232.329 51.1379C231.52 50.9572 230.759 50.7565 230.045 50.5358C229.332 50.3151 228.697 50.0903 228.14 49.8612L232.336 20.1588ZM234.956 46.2106C235.474 46.3788 236.005 46.5042 236.544 46.5858C237.157 46.6826 237.776 46.73 238.396 46.7276C240.575 46.7276 242.173 46.0257 243.189 44.6218C244.206 43.2179 244.715 41.2214 244.717 38.6321C244.717 37.14 244.399 35.962 243.764 35.0982C243.129 34.2345 242.176 33.8005 240.905 33.7963C240.498 33.8004 240.093 33.8469 239.695 33.935C239.265 34.0283 238.841 34.1473 238.425 34.2912C238.04 34.4223 237.663 34.576 237.297 34.7515C237.021 34.8821 236.757 35.0372 236.509 35.2149L234.956 46.2106Z" fill="#212322"/>
<path d="M28.3334 42.0305L37.8911 47.6229L37.872 53.3824C31.8052 53.3824 24.8489 53.3982 18.7153 53.4108L18.7407 47.4054L28.3334 42.0305Z" fill="#016323"/>
<path d="M52.6548 53.2311C51.667 53.2784 49.3577 53.31 46.2513 53.3352C47.8764 49.2064 48.0066 44.6457 46.6197 40.4322C45.03 35.6267 41.6102 31.6285 37.0906 29.2914C34.2226 27.5131 30.8837 26.6281 27.5043 26.7505C24.4474 26.8705 21.4827 27.8226 18.9345 29.5026C15.9502 31.1339 13.46 33.5281 11.7224 36.4366C9.98485 39.3452 9.06308 42.6622 9.05277 46.0435C9.04824 48.576 9.54916 51.0842 10.5266 53.4234C6.92778 53.4234 4.27233 53.4424 3.29083 53.4613C0.619504 53.5149 -0.358818 52.5439 0.114461 49.8328C1.90593 39.663 3.51953 29.4711 5.26971 19.295C5.82875 16.0479 7.81081 14.3803 11.146 14.3614C21.8567 14.3109 32.5685 14.3109 43.2813 14.3614C46.5339 14.3614 48.4969 15.9092 49.0496 19.0112C50.9142 29.4774 52.7025 39.9499 54.3478 50.4475C54.4812 51.3081 53.2933 53.1933 52.6548 53.2248" fill="#016323"/>
<path d="M40.7497 10.6036C31.9892 3.80695 22.7937 3.93935 13.9411 10.8401L10.9585 7.60566C15.8342 0.0397658 34.146 -3.55719 44.231 7.47956L40.737 10.6036" fill="#A3C626"/>
</svg>
