<svg width="32" height="32" viewBox="0 0 32 32" fill="none" xmlns="http://www.w3.org/2000/svg">
<rect width="32" height="32" rx="8" fill="#182252"/>
<path d="M8.00391 11.884L16.0009 15.882L23.9979 11.884C23.9683 11.3744 23.745 10.8955 23.3737 10.5452C23.0025 10.195 22.5113 9.99991 22.0009 10H10.0009C9.49049 9.99991 8.99935 10.195 8.62808 10.5452C8.25681 10.8955 8.03351 11.3744 8.00391 11.884Z" fill="white"/>
<path d="M24 14.118L16 18.118L8 14.118V20C8 20.5305 8.21071 21.0392 8.58579 21.4143C8.96086 21.7893 9.46957 22 10 22H22C22.5304 22 23.0391 21.7893 23.4142 21.4143C23.7893 21.0392 24 20.5305 24 20V14.118Z" fill="white"/>
</svg>
