<svg width="18" height="24" viewBox="0 0 18 24" fill="none" xmlns="http://www.w3.org/2000/svg">
<path fill-rule="evenodd" clip-rule="evenodd" d="M3 0H10.9395C11.3373 8.49561e-05 11.7188 0.158176 12 0.4395L17.5605 6C17.8418 6.28124 17.9999 6.66271 18 7.0605V21C18 21.7957 17.6839 22.5587 17.1213 23.1213C16.5587 23.6839 15.7956 24 15 24H3C2.20435 24 1.44129 23.6839 0.87868 23.1213C0.31607 22.5587 0 21.7957 0 21V3C0 2.20435 0.31607 1.44129 0.87868 0.87868C1.44129 0.316071 2.20435 0 3 0V0ZM11.25 2.25V5.25C11.25 5.64782 11.408 6.02936 11.6893 6.31066C11.9706 6.59196 12.3522 6.75 12.75 6.75H15.75L11.25 2.25ZM3.2475 20.502C3.3825 20.772 3.5925 21.0165 3.9045 21.1305C4.215 21.243 4.5225 21.1905 4.7745 21.0855C5.2515 20.8905 5.727 20.4315 6.1635 19.9065C6.663 19.305 7.188 18.516 7.695 17.6415C8.6738 17.3514 9.67613 17.1476 10.6905 17.0325C11.1405 17.607 11.6055 18.102 12.0555 18.4575C12.4755 18.7875 12.96 19.062 13.4565 19.083C13.7269 19.0964 13.9947 19.0239 14.2215 18.876C14.454 18.7245 14.6265 18.5055 14.7525 18.252C14.8875 17.9805 14.97 17.697 14.9595 17.4075C14.95 17.1221 14.8443 16.8483 14.6595 16.6305C14.3205 16.2255 13.7655 16.0305 13.2195 15.933C12.5572 15.8304 11.8851 15.8052 11.217 15.858C10.6528 15.0604 10.1608 14.214 9.747 13.329C10.122 12.339 10.4025 11.403 10.527 10.638C10.581 10.311 10.6095 9.999 10.599 9.717C10.5971 9.43708 10.532 9.1612 10.4085 8.91C10.3373 8.77137 10.2362 8.65031 10.1125 8.55561C9.9887 8.46091 9.84542 8.39495 9.693 8.3625C9.39 8.298 9.078 8.3625 8.7915 8.478C8.226 8.703 7.9275 9.183 7.815 9.7125C7.7055 10.2225 7.755 10.8165 7.884 11.4165C8.016 12.0255 8.241 12.6885 8.529 13.359C8.06833 14.5047 7.53629 15.6204 6.936 16.6995C6.16296 16.9427 5.41782 17.267 4.713 17.667C4.158 17.997 3.6645 18.387 3.3675 18.8475C3.0525 19.3365 2.955 19.9185 3.2475 20.502Z" fill="#EA1601"/>
</svg>
