<svg width="32" height="32" viewBox="0 0 32 32" fill="none" xmlns="http://www.w3.org/2000/svg">
<rect width="32" height="32" rx="8" fill="#182252"/>
<path d="M8 9C8 8.73478 8.10536 8.48043 8.29289 8.29289C8.48043 8.10536 8.73478 8 9 8H11.153C11.3897 8.00011 11.6187 8.08418 11.7992 8.23726C11.9798 8.39034 12.1002 8.6025 12.139 8.836L12.879 13.271C12.9144 13.4822 12.881 13.6992 12.7838 13.89C12.6866 14.0809 12.5306 14.2354 12.339 14.331L10.791 15.104C11.3461 16.4797 12.1728 17.7293 13.2218 18.7782C14.2707 19.8272 15.5203 20.6539 16.896 21.209L17.67 19.661C17.7655 19.4695 17.9199 19.3138 18.1106 19.2166C18.3012 19.1194 18.5179 19.0859 18.729 19.121L23.164 19.861C23.3975 19.8998 23.6097 20.0202 23.7627 20.2008C23.9158 20.3813 23.9999 20.6103 24 20.847V23C24 23.2652 23.8946 23.5196 23.7071 23.7071C23.5196 23.8946 23.2652 24 23 24H21C13.82 24 8 18.18 8 11V9Z" fill="white"/>
</svg>
