<svg width="119" height="119" viewBox="0 0 119 119" fill="none" xmlns="http://www.w3.org/2000/svg">
<path fill-rule="evenodd" clip-rule="evenodd" d="M109.341 92.0111C115.449 82.6659 119 71.4976 119 59.5C119 26.6391 92.3609 0 59.5 0C26.6391 0 0 26.6391 0 59.5C0 92.3609 26.6391 119 59.5 119C66.239 119 72.7163 117.88 78.7558 115.815C74.0372 112.157 71 106.433 71 100C71 88.9543 79.9543 80 91 80C99.2056 80 106.257 84.9416 109.341 92.0111Z" fill="#F0F2F9"/>
<ellipse cx="90.9315" cy="99.9949" rx="16.6659" ry="16.6658" fill="#F0F2F9"/>
<path fill-rule="evenodd" clip-rule="evenodd" d="M85.0652 95.2C84.5766 95.2 84.1079 95.3941 83.7623 95.7397C83.4168 96.0852 83.2227 96.5539 83.2227 97.0426V104.413C83.2227 104.902 83.4168 105.37 83.7623 105.716C84.1079 106.061 84.5766 106.255 85.0652 106.255H96.1207C96.6094 106.255 97.0781 106.061 97.4236 105.716C97.7692 105.37 97.9633 104.902 97.9633 104.413V97.0426C97.9633 96.5539 97.7692 96.0852 97.4236 95.7397C97.0781 95.3941 96.6094 95.2 96.1207 95.2H94.6596C94.4152 95.2 94.1809 95.1029 94.0082 94.9301L92.9754 93.8973C92.63 93.5517 92.1614 93.3575 91.6727 93.3574H89.5132C89.0246 93.3575 88.556 93.5517 88.2105 93.8973L87.1778 94.9301C87.005 95.1029 86.7707 95.2 86.5264 95.2H85.0652ZM90.593 103.492C90.9559 103.492 91.3153 103.42 91.6507 103.281C91.986 103.142 92.2907 102.939 92.5473 102.682C92.804 102.425 93.0076 102.121 93.1465 101.785C93.2854 101.45 93.3569 101.091 93.3569 100.728C93.3569 100.365 93.2854 100.005 93.1465 99.6701C93.0076 99.3347 92.804 99.03 92.5473 98.7734C92.2907 98.5167 91.986 98.3132 91.6507 98.1743C91.3153 98.0354 90.9559 97.9639 90.593 97.9639C89.86 97.9639 89.157 98.2551 88.6386 98.7734C88.1203 99.2917 87.8291 99.9947 87.8291 100.728C87.8291 101.461 88.1203 102.164 88.6386 102.682C89.157 103.2 89.86 103.492 90.593 103.492V103.492Z" fill="#182252"/>
<path d="M50.085 69.04H39.605L37.925 74H30.765L40.925 45.92H48.845L59.005 74H51.765L50.085 69.04ZM48.325 63.76L44.845 53.48L41.405 63.76H48.325ZM86.4172 45.92V74H79.5772V62.44H68.9372V74H62.0972V45.92H68.9372V56.92H79.5772V45.92H86.4172Z" fill="#182252"/>
</svg>
