<svg width="37" height="29" viewBox="0 0 37 29" fill="none" xmlns="http://www.w3.org/2000/svg">
<path d="M-0.000110093 22.6736C0.144723 21.8743 0.299211 21.075 0.424733 20.2756C0.82061 17.8679 1.21649 15.4602 1.61236 13.0524C1.64133 12.877 1.65099 12.6918 1.65099 12.5066C1.65099 9.15328 1.65099 5.79025 1.65099 2.43698C1.65099 0.926051 2.56826 0 4.05521 0C10.9203 0 17.7854 0 24.6505 0C26.1278 0 27.0547 0.916303 27.0547 2.39798C27.0547 6.75529 27.0643 11.1029 27.0547 15.4602C27.0547 16.9224 26.1278 17.8484 24.6794 17.8484C19.1468 17.8484 13.6238 17.8484 8.09123 17.8582C7.86915 17.8582 7.6181 17.9361 7.42499 18.0531C5.04973 19.5835 2.68413 21.1237 0.308867 22.6541C0.212312 22.7224 0.0964452 22.7613 -0.00976562 22.8101C-0.000110093 22.7711 -0.000110093 22.7224 -0.000110093 22.6736ZM14.5991 8.92908C16.4529 8.92908 18.3068 8.92908 20.1606 8.92908C20.3151 8.92908 20.5082 8.94857 20.6145 8.87059C20.7689 8.75361 20.9524 8.55866 20.9524 8.38319C20.9621 8.20773 20.7979 8.00303 20.6531 7.8763C20.5565 7.78857 20.3538 7.80807 20.1993 7.80807C16.4915 7.80807 12.7838 7.80807 9.08575 7.80807C8.94091 7.80807 8.75746 7.78857 8.67056 7.86656C8.51607 8.00303 8.36158 8.19798 8.32296 8.39294C8.26503 8.63664 8.43882 8.8316 8.68987 8.89983C8.8347 8.93882 8.99885 8.93882 9.15333 8.93882C10.9589 8.92908 12.7838 8.92908 14.5991 8.92908ZM14.628 5.02017C16.1536 5.02017 17.6888 5.02017 19.2144 5.02017C19.6199 5.02017 20.0351 5.02992 20.4407 5.01042C20.7689 5.00067 20.9814 4.75698 20.9717 4.44504C20.9621 4.14286 20.7593 3.93815 20.4407 3.90891C20.3731 3.89916 20.2958 3.90891 20.2282 3.90891C16.4915 3.90891 12.7645 3.90891 9.02781 3.90891C8.93126 3.90891 8.81539 3.87966 8.7478 3.9284C8.59331 4.02588 8.39055 4.13311 8.34227 4.28908C8.29399 4.44504 8.34227 4.69849 8.44848 4.81546C8.574 4.94219 8.80574 5.01042 8.98919 5.01042C10.8624 5.02017 12.7452 5.02017 14.628 5.02017ZM14.5991 12.8282C16.4433 12.8282 18.2875 12.8282 20.122 12.8282C20.2282 12.8282 20.3441 12.838 20.4503 12.8185C20.7496 12.76 20.9234 12.565 20.9138 12.2629C20.9041 11.9607 20.74 11.7657 20.431 11.7267C20.3441 11.717 20.2669 11.717 20.18 11.717C16.4722 11.717 12.7645 11.717 9.05678 11.717C8.96022 11.717 8.8347 11.6877 8.77677 11.7267C8.61262 11.8437 8.38089 11.9704 8.34227 12.1361C8.30365 12.3018 8.41951 12.5553 8.53538 12.7015C8.62228 12.799 8.84436 12.8185 8.99885 12.8185C10.8624 12.8282 12.7355 12.8282 14.5991 12.8282Z" fill="#187226"/>
<path d="M36.9999 29.0001C35.8895 28.2788 34.8467 27.6062 33.8039 26.9336C32.3942 26.0173 30.9942 25.101 29.5748 24.2042C29.3817 24.0872 29.1306 23.9994 28.9086 23.9994C23.3759 23.9897 17.853 23.9897 12.3204 23.9897C11.1424 23.9897 10.2541 23.3561 10.003 22.2936C9.92579 21.9816 9.93544 21.6405 9.93544 21.3188C9.92579 20.5584 9.93544 19.7884 9.93544 18.9598C10.1092 18.9598 10.2637 18.9598 10.4086 18.9598C15.1881 18.9598 19.9772 18.9598 24.7567 18.9598C26.4078 18.9598 27.7113 17.9265 28.0685 16.3571C28.1361 16.0452 28.1554 15.704 28.1651 15.3823C28.1747 12.4774 28.1651 9.57256 28.1651 6.66768C28.1651 6.52146 28.1651 6.37525 28.1651 6.18029C28.3003 6.17054 28.4161 6.1413 28.5417 6.1413C30.019 6.1413 31.5059 6.13155 32.9832 6.1413C34.4026 6.1413 35.3295 7.08684 35.3391 8.51978C35.3391 11.2297 35.3778 13.9396 35.3295 16.6593C35.3005 18.3944 35.5129 20.1003 35.8123 21.7964C36.2275 24.1554 36.5944 26.5339 36.9999 29.0001Z" fill="#187226"/>
</svg>
