<svg width="35" height="35" viewBox="0 0 35 35" fill="none" xmlns="http://www.w3.org/2000/svg">
<path d="M0 7.86208C0.173493 7.15897 0.383512 6.48326 0.849204 5.91713C1.7532 4.82138 2.91286 4.31916 4.37386 4.38308C4.37386 4.99487 4.36473 5.59753 4.37386 6.19106C4.41038 7.72511 5.09523 8.89391 6.41012 9.67919C7.02191 10.0444 7.68849 10.1997 8.40073 10.1997C11.067 10.1997 13.7334 10.2088 16.3997 10.1905C18.6642 10.1723 20.3809 8.44648 20.4266 6.18193C20.4357 5.5884 20.4266 5.004 20.4266 4.38308C21.7141 4.31003 22.8007 4.70267 23.6864 5.6158C24.4352 6.39195 24.8004 7.33247 24.8004 8.40082C24.8095 11.5602 24.8095 14.7105 24.8004 17.8699C24.8004 18.0069 24.7274 18.1804 24.6269 18.2808C23.0016 19.9244 21.3671 21.5589 19.7235 23.1843C19.6504 23.2573 19.5134 23.3304 19.413 23.3304C16.0984 23.3395 12.7837 23.3304 9.46908 23.3304C8.17245 23.3304 6.87582 23.3212 5.57005 23.3304C4.73911 23.3395 4.20037 24.0426 4.44691 24.7731C4.59301 25.1931 4.96739 25.4945 5.41482 25.5127C5.74354 25.531 6.07227 25.5219 6.41012 25.5219C9.94391 25.5219 13.4686 25.5219 17.0023 25.5219C17.0937 25.5219 17.1758 25.5219 17.2398 25.5219C16.6371 26.2798 15.9066 26.9737 15.4866 27.8138C15.0665 28.6539 14.9661 29.6583 14.7104 30.6354C14.6282 30.6354 14.4913 30.6354 14.3634 30.6354C11.0031 30.6354 7.64284 30.5988 4.28255 30.6445C2.018 30.681 0.328724 29.1013 0.0639186 27.2294C0.0639186 27.202 0.0365249 27.1746 0.0182625 27.1381C0 20.7097 0 14.2813 0 7.86208ZM12.3728 20.7828C14.6739 20.7828 16.975 20.7828 19.2669 20.7828C19.9243 20.7828 20.4266 20.2897 20.4174 19.6779C20.4083 19.0752 19.9152 18.6004 19.2852 18.6004C14.7013 18.6004 10.1083 18.6004 5.52439 18.6095C5.30524 18.6095 5.06783 18.6826 4.88521 18.7922C4.46517 19.0387 4.29168 19.5318 4.41951 19.9701C4.55648 20.4632 4.97652 20.7828 5.51526 20.7828C7.79807 20.7828 10.0809 20.7828 12.3728 20.7828ZM12.4093 13.8613C10.1905 13.8613 7.97156 13.8613 5.75267 13.8613C5.62484 13.8613 5.50613 13.8613 5.37829 13.8704C4.9126 13.9161 4.60214 14.1718 4.44691 14.6009C4.29168 15.0118 4.39212 15.4867 4.75737 15.7332C5.00391 15.8976 5.33264 16.0254 5.63397 16.0345C10.1539 16.0528 14.6739 16.0437 19.1847 16.0437C19.3217 16.0437 19.4586 16.0345 19.5865 15.998C20.0065 15.8884 20.2713 15.6145 20.3809 15.1945C20.4905 14.7835 20.3535 14.4366 20.0522 14.1444C19.8056 13.907 19.5043 13.8613 19.1664 13.8613C16.911 13.8613 14.6648 13.8613 12.4093 13.8613Z" fill="#187226"/>
<path d="M17.9795 34.9999C17.2124 34.5433 17.0937 34.2511 17.2581 33.3472C17.4864 32.1053 17.7055 30.8635 17.9155 29.6125C17.9795 29.2016 18.1438 28.8728 18.4452 28.5715C21.9515 25.0743 25.4579 21.5679 28.9552 18.0615C29.357 17.6506 29.7953 17.2853 30.3523 17.1118C31.1284 16.8744 31.8224 17.0662 32.4068 17.614C33.046 18.2258 33.6852 18.8559 34.2878 19.4951C35.2649 20.5269 35.2557 22.0518 34.2422 23.0654C30.6536 26.6631 27.0559 30.2517 23.4673 33.8494C23.1295 34.1872 22.7003 34.2237 22.2803 34.2968C21.0749 34.5159 19.8605 34.7168 18.646 34.936C18.6004 34.9451 18.5639 34.9725 18.5182 34.9908C18.3447 34.9999 18.1621 34.9999 17.9795 34.9999Z" fill="#187226"/>
<path d="M8.41891 2.92196C8.75676 2.37409 9.00331 1.83535 9.37769 1.39705C11.3683 -0.922285 15.0482 -0.264837 16.1439 2.59324C16.2444 2.84891 16.3631 2.94022 16.6279 2.92196C17.0388 2.89457 17.4497 2.9037 17.8606 2.92196C18.4907 2.94022 18.9381 3.36939 18.9472 3.99945C18.9563 4.7756 18.9655 5.55176 18.9381 6.31878C18.8924 7.63368 17.8058 8.72029 16.4818 8.72942C13.7607 8.74769 11.0396 8.74769 8.31846 8.72942C6.94878 8.72029 5.87129 7.61541 5.82564 6.20007C5.79824 5.48784 5.80738 4.76647 5.82564 4.0451C5.83477 3.36026 6.2822 2.92196 6.96704 2.91283C7.48752 2.91283 7.99887 2.92196 8.41891 2.92196Z" fill="#187226"/>
</svg>
