<svg width="40" height="39" viewBox="0 0 40 39" fill="none" xmlns="http://www.w3.org/2000/svg">
<path d="M40 10.8008C39.8749 10.8008 39.7393 10.8113 39.6142 10.8113C32.0334 10.8113 24.4526 10.8113 16.8822 10.8113C16.7571 10.8113 16.6215 10.8113 16.4651 10.8113C16.4651 8.46921 16.4651 6.14803 16.4651 3.76412C16.6319 3.76412 16.7988 3.76412 16.9552 3.76412C24.4734 3.76412 31.9812 3.76412 39.4995 3.76412C39.6663 3.76412 39.8332 3.75366 40.0104 3.75366C40 6.10621 40 8.45876 40 10.8008Z" fill="#187226"/>
<path d="M16.4441 23.7032C16.4441 21.3611 16.4441 19.0608 16.4441 16.7188C21.1365 16.7188 25.8289 16.7188 30.5317 16.7188C30.5317 19.0399 30.5317 21.3507 30.5317 23.7032C25.8497 23.7032 21.1678 23.7032 16.4441 23.7032Z" fill="#187226"/>
<path d="M7.06987 0C7.74766 1.36971 8.40459 2.65576 9.03025 3.96273C9.1658 4.24504 9.34307 4.36005 9.64547 4.40188C11.074 4.60054 12.4922 4.82011 13.9937 5.05013C13.8478 5.20697 13.7539 5.30107 13.6601 5.39517C12.7007 6.33619 11.7518 7.28767 10.7925 8.21823C10.6152 8.39598 10.5735 8.55281 10.6152 8.80375C10.8655 10.2466 11.1053 11.7 11.3556 13.2161C11.1992 13.1429 11.0845 13.1011 10.9802 13.0383C9.79146 12.4214 8.60272 11.815 7.42441 11.1772C7.16372 11.0308 6.96559 11.0517 6.70491 11.1877C5.5266 11.815 4.33786 12.4319 3.14912 13.0488C3.04484 13.1011 2.94057 13.1429 2.78416 13.2161C2.98228 12.0137 3.11784 10.8426 3.37852 9.7134C3.5975 8.81421 3.45152 8.17641 2.69031 7.56997C1.84568 6.9008 1.11575 6.08525 0.344114 5.33244C0.260694 5.25925 0.187701 5.16515 0.072998 5.03968C1.2096 4.87239 2.29406 4.70509 3.37852 4.54826C3.49323 4.52735 3.60793 4.49598 3.72263 4.49598C4.67154 4.55871 5.14078 4.04638 5.47446 3.20992C5.86028 2.25844 6.37123 1.35925 6.83004 0.439142C6.90303 0.313673 6.9656 0.19866 7.06987 0Z" fill="#187226"/>
<path d="M11.3554 26.1395C10.344 25.6167 9.40549 25.1253 8.45659 24.6338C8.09163 24.4456 7.72666 24.2261 7.35127 24.0692C7.18443 24.0065 6.9446 23.996 6.78818 24.0692C5.57859 24.6757 4.38985 25.303 3.19069 25.9304C3.07599 25.9931 2.96128 26.0454 2.78401 26.129C2.93 25.2507 3.05513 24.4352 3.19069 23.6196C3.30539 22.9505 3.43052 22.2917 3.51394 21.6121C3.5348 21.4657 3.45138 21.2566 3.3471 21.1521C2.37734 20.1901 1.38673 19.2491 0.39611 18.3081C0.291835 18.214 0.166705 18.1408 0.052002 18.0676C0.072857 18.0258 0.10414 17.9944 0.124995 17.9526C1.21989 17.7853 2.31478 17.6285 3.42009 17.4612C3.69121 17.4194 3.96232 17.3462 4.23344 17.3462C4.7861 17.3566 5.03636 17.0534 5.25534 16.5829C5.75586 15.4955 6.30852 14.4395 6.85075 13.3625C6.91331 13.2371 6.98631 13.1116 7.08016 12.9338C7.174 13.1011 7.247 13.2161 7.29913 13.3312C7.88308 14.4917 8.46702 15.6523 9.0301 16.8234C9.17609 17.1266 9.36378 17.2625 9.69747 17.3043C11.1052 17.4926 12.5233 17.7226 14.004 17.9421C13.8685 18.0885 13.7851 18.1931 13.6808 18.2872C12.7319 19.2282 11.7725 20.1692 10.8132 21.1102C10.6359 21.2775 10.5838 21.4344 10.6255 21.6853C10.8653 23.1387 11.0948 24.592 11.3554 26.1395Z" fill="#187226"/>
<path d="M13.9937 30.8654C13.8373 31.0222 13.7434 31.1268 13.6496 31.2314C12.6902 32.1724 11.7413 33.1134 10.782 34.0544C10.6152 34.2217 10.563 34.3681 10.6047 34.5981C10.8654 36.041 11.0948 37.4944 11.3451 39C10.1563 38.3936 8.98846 37.8499 7.87271 37.2225C7.27834 36.8879 6.81953 36.8879 6.23559 37.233C5.23455 37.808 4.18137 38.2995 3.14904 38.8222C3.03434 38.8745 2.91964 38.9268 2.76322 39C3.01349 37.5048 3.25332 36.0515 3.50358 34.6086C3.54529 34.3681 3.49315 34.2217 3.32631 34.0649C2.35655 33.1448 1.39722 32.2037 0.427458 31.2732C0.312755 31.1686 0.187625 31.0745 -0.010498 30.8968C0.844559 30.7713 1.57449 30.6563 2.30441 30.5413C3.06562 30.4263 3.82683 30.3322 4.57761 30.1962C4.74445 30.1649 4.94258 30.008 5.026 29.8512C5.70379 28.5442 6.35029 27.2268 7.03851 25.8362C7.13236 26.0035 7.20535 26.1185 7.25749 26.2335C7.84143 27.4045 8.4358 28.586 9.00931 29.7675C9.1553 30.0603 9.33257 30.1753 9.65582 30.2276C11.0844 30.4158 12.4921 30.6354 13.9937 30.8654Z" fill="#187226"/>
<path d="M23.5245 29.6316C23.5245 31.9737 23.5245 34.274 23.5245 36.616C21.1678 36.616 18.8216 36.616 16.4546 36.616C16.4546 34.2949 16.4546 31.9841 16.4546 29.6316C18.8008 29.6316 21.1366 29.6316 23.5245 29.6316Z" fill="#187226"/>
</svg>
