<svg width="38" height="38" viewBox="0 0 38 38" fill="none" xmlns="http://www.w3.org/2000/svg">
<path d="M21.8128 0C22.334 0 22.8552 0 23.3764 0C23.4837 0.0153288 23.591 0.0459863 23.6983 0.061315C25.3998 0.168616 27.0553 0.536507 28.6035 1.24163C33.7539 3.55627 36.8503 7.51109 37.7854 13.0908C38.2759 15.9726 37.8927 18.7624 36.7584 21.4296C35.0569 25.4151 32.1444 28.1896 28.1436 29.7991C25.7983 30.7495 23.3304 31.0101 20.8318 30.7035C18.8084 30.4429 16.8923 29.7991 15.1142 28.7721C14.5317 28.4349 14.363 28.4655 13.8879 28.9407C11.4046 31.424 8.93667 33.9072 6.43808 36.3752C6.03953 36.7737 5.595 37.1416 5.10448 37.4175C3.70956 38.2299 2.10004 38.2606 0.843082 36.8657C0.398548 36.3905 0.153288 35.854 0 35.2562C0 34.9649 0 34.6583 0 34.3671C0.275918 32.8955 1.25696 31.8992 2.26866 30.9028C4.43001 28.7721 6.56071 26.6261 8.70674 24.48C9.5958 23.591 9.67245 23.6983 8.99798 22.426C7.08189 18.8084 6.57604 14.9762 7.81767 11.0827C9.73376 4.99718 13.9185 1.36426 20.2033 0.214603C20.7398 0.107301 21.2763 0.061315 21.8128 0ZM33.9685 15.4207C33.9839 9.1666 28.8947 4.03146 22.5946 4.03146C16.2178 4.03146 11.2053 9.10528 11.19 15.4054C11.1747 21.6749 16.2638 26.764 22.5486 26.7947C28.8334 26.81 33.9685 21.7055 33.9685 15.4207Z" fill="#187226"/>
<path d="M23.1923 6.17749C24.6179 6.19282 25.8902 6.43808 27.1165 6.94393C27.9596 7.28116 28.3428 8.1549 28.0515 8.98265C27.7603 9.79508 26.8712 10.2396 26.0281 9.91771C25.0164 9.54982 23.9894 9.28923 22.9164 9.36587C20.2952 9.58048 18.3638 10.8374 17.1528 13.1827C16.9382 13.5966 16.7389 14.0258 16.3097 14.2711C15.6812 14.6083 14.9608 14.5317 14.4549 14.0565C13.9491 13.5966 13.8111 12.8762 14.1024 12.217C14.7615 10.6995 15.7272 9.39653 17.0302 8.3695C18.8543 6.9286 20.9543 6.20815 23.1923 6.17749Z" fill="#187226"/>
</svg>
