<svg width="32" height="32" viewBox="0 0 32 32" fill="none" xmlns="http://www.w3.org/2000/svg">
<path opacity="0.4" d="M22.6665 27.3337H9.33317C5.33317 27.3337 2.6665 25.3337 2.6665 20.667V11.3337C2.6665 6.66699 5.33317 4.66699 9.33317 4.66699H22.6665C26.6665 4.66699 29.3332 6.66699 29.3332 11.3337V20.667C29.3332 25.3337 26.6665 27.3337 22.6665 27.3337Z" fill="#4C11AB"/>
<path d="M15.9984 17.1629C14.8784 17.1629 13.7451 16.8162 12.8784 16.1095L8.70507 12.7762C8.2784 12.4295 8.19841 11.8029 8.54507 11.3762C8.89173 10.9496 9.51841 10.8696 9.94508 11.2162L14.1184 14.5495C15.1317 15.3629 16.8517 15.3629 17.8651 14.5495L22.0384 11.2162C22.4651 10.8696 23.1051 10.9362 23.4384 11.3762C23.7851 11.8029 23.7184 12.4429 23.2784 12.7762L19.1051 16.1095C18.2517 16.8162 17.1184 17.1629 15.9984 17.1629Z" fill="#4C11AB"/>
</svg>
