<svg width="168" height="168" viewBox="0 0 168 168" fill="none" xmlns="http://www.w3.org/2000/svg">
<circle cx="84" cy="84" r="84" fill="#021B2B"/>
<g opacity="0.789834">
<path d="M47.2037 45.0928C48.9284 45.0928 50.3287 46.4931 50.3287 48.2179C50.3287 49.9426 48.9284 51.343 47.2037 51.343C45.4789 51.343 44.0786 49.9426 44.0786 48.2179C44.0786 46.4931 45.4789 45.0928 47.2037 45.0928Z" fill="white"/>
<path d="M47.2037 45.0928C48.9284 45.0928 50.3287 46.4931 50.3287 48.2179C50.3287 49.9426 48.9284 51.343 47.2037 51.343C45.4789 51.343 44.0786 49.9426 44.0786 48.2179C44.0786 46.4931 45.4789 45.0928 47.2037 45.0928Z" fill="white"/>
</g>
<g opacity="0.789834">
<path d="M47.2036 118.67C48.9284 118.67 50.3287 120.07 50.3287 121.795C50.3287 123.52 48.9284 124.92 47.2036 124.92C45.4789 124.92 44.0785 123.52 44.0785 121.795C44.0785 120.07 45.4789 118.67 47.2036 118.67Z" fill="white"/>
<path d="M47.2036 118.67C48.9284 118.67 50.3287 120.07 50.3287 121.795C50.3287 123.52 48.9284 124.92 47.2036 124.92C45.4789 124.92 44.0785 123.52 44.0785 121.795C44.0785 120.07 45.4789 118.67 47.2036 118.67Z" fill="white"/>
</g>
<g opacity="0.789834">
<path d="M122.793 118.67C124.518 118.67 125.918 120.07 125.918 121.795C125.918 123.52 124.518 124.92 122.793 124.92C121.068 124.92 119.668 123.52 119.668 121.795C119.668 120.07 121.068 118.67 122.793 118.67Z" fill="white"/>
<path d="M122.793 118.67C124.518 118.67 125.918 120.07 125.918 121.795C125.918 123.52 124.518 124.92 122.793 124.92C121.068 124.92 119.668 123.52 119.668 121.795C119.668 120.07 121.068 118.67 122.793 118.67Z" fill="white"/>
</g>
<g opacity="0.789834">
<path d="M122.793 43.0781C124.518 43.0781 125.918 44.4785 125.918 46.2032C125.918 47.928 124.518 49.3283 122.793 49.3283C121.068 49.3283 119.668 47.928 119.668 46.2032C119.668 44.4785 121.068 43.0781 122.793 43.0781Z" fill="white"/>
<path d="M122.793 43.0781C124.518 43.0781 125.918 44.4785 125.918 46.2032C125.918 47.928 124.518 49.3283 122.793 49.3283C121.068 49.3283 119.668 47.928 119.668 46.2032C119.668 44.4785 121.068 43.0781 122.793 43.0781Z" fill="white"/>
</g>
<g opacity="0.789834">
<path d="M84.9982 33C86.723 33 88.1233 34.4004 88.1233 36.1251C88.1233 37.8498 86.723 39.2502 84.9982 39.2502C83.2735 39.2502 81.8732 37.8498 81.8732 36.1251C81.8732 34.4004 83.2735 33 84.9982 33Z" fill="white"/>
<path d="M84.9982 33C86.723 33 88.1233 34.4004 88.1233 36.1251C88.1233 37.8498 86.723 39.2502 84.9982 39.2502C83.2735 39.2502 81.8732 37.8498 81.8732 36.1251C81.8732 34.4004 83.2735 33 84.9982 33Z" fill="white"/>
</g>
<g opacity="0.789834">
<path d="M84.9982 128.75C86.723 128.75 88.1233 130.15 88.1233 131.875C88.1233 133.6 86.723 135 84.9982 135C83.2735 135 81.8731 133.6 81.8731 131.875C81.8731 130.15 83.2735 128.75 84.9982 128.75Z" fill="white"/>
<path d="M84.9982 128.75C86.723 128.75 88.1233 130.15 88.1233 131.875C88.1233 133.6 86.723 135 84.9982 135C83.2735 135 81.8731 133.6 81.8731 131.875C81.8731 130.15 83.2735 128.75 84.9982 128.75Z" fill="white"/>
</g>
<g opacity="0.789834">
<path d="M132.871 80.8721C134.596 80.8721 135.996 82.2724 135.996 83.9972C135.996 85.7219 134.596 87.1223 132.871 87.1223C131.147 87.1223 129.746 85.7219 129.746 83.9972C129.746 82.2724 131.147 80.8721 132.871 80.8721Z" fill="white"/>
<path d="M132.871 80.8721C134.596 80.8721 135.996 82.2724 135.996 83.9972C135.996 85.7219 134.596 87.1223 132.871 87.1223C131.147 87.1223 129.746 85.7219 129.746 83.9972C129.746 82.2724 131.147 80.8721 132.871 80.8721Z" fill="white"/>
</g>
<g opacity="0.789834">
<path d="M37.1251 80.8721C38.8498 80.8721 40.2502 82.2724 40.2502 83.9972C40.2502 85.7219 38.8498 87.1223 37.1251 87.1223C35.4004 87.1223 34 85.7219 34 83.9972C34 82.2724 35.4004 80.8721 37.1251 80.8721Z" fill="white"/>
<path d="M37.1251 80.8721C38.8498 80.8721 40.2502 82.2724 40.2502 83.9972C40.2502 85.7219 38.8498 87.1223 37.1251 87.1223C35.4004 87.1223 34 85.7219 34 83.9972C34 82.2724 35.4004 80.8721 37.1251 80.8721Z" fill="white"/>
</g>
<path d="M116.755 86.1391L112.97 80.1377L115.212 73.4018C115.518 72.4867 115.137 71.476 114.302 70.997L108.18 67.4431L107.059 60.4307C106.901 59.473 106.097 58.7602 105.145 58.7175L98.0818 58.4408L93.8523 52.7585C93.2707 51.9819 92.2344 51.7267 91.3674 52.1416L84.9915 55.1848L78.6153 52.1307C77.7483 51.7161 76.712 51.9713 76.1304 52.7479L71.9008 58.4303L64.8481 58.707C63.8859 58.7496 63.0823 59.4624 62.9342 60.4201L61.8133 67.4325L55.691 70.9864C54.8558 71.4655 54.4752 72.4761 54.7817 73.3912L57.0236 80.1268L53.2484 86.1285C52.7302 86.9477 52.8678 88.0119 53.5552 88.693L58.6518 93.609L58.0807 100.685C58.0067 101.653 58.6095 102.537 59.5294 102.813L66.3073 104.782L69.067 111.326C69.4476 112.22 70.3887 112.731 71.3298 112.529L78.2453 111.102L83.7013 115.603C84.0713 115.901 84.5259 116.061 84.9806 116.061C85.4353 116.061 85.8899 115.901 86.2603 115.603L91.7162 111.102L98.6317 112.529C99.5728 112.731 100.524 112.22 100.894 111.326L103.655 104.782L110.432 102.813C111.352 102.547 111.965 101.653 111.881 100.685L111.31 93.609L116.406 88.693C117.136 88.0225 117.263 86.9586 116.755 86.1391ZM99.6151 76.3388L85.4462 97.6949C84.9068 98.4929 84.0822 99.0249 83.2572 99.0249C82.4325 99.0249 81.5126 98.5567 80.9309 97.9716L70.5368 87.3415C69.8286 86.6178 69.8286 85.4369 70.5368 84.7132L73.1064 82.085C73.8147 81.3719 74.9674 81.3719 75.6757 82.085L82.4431 89.0014L93.5984 72.1676C94.1588 71.3164 95.3009 71.1034 96.1256 71.678L99.1393 73.7638C99.964 74.3384 100.176 75.4981 99.6151 76.3388Z" fill="white"/>
</svg>
