<svg width="64" height="56" viewBox="0 0 64 56" fill="none" xmlns="http://www.w3.org/2000/svg">
<path d="M32 21.829C38.0061 21.829 42.875 16.9601 42.875 10.954C42.875 4.94788 38.0061 0.0789795 32 0.0789795C25.9939 0.0789795 21.125 4.94788 21.125 10.954C21.125 16.9601 25.9939 21.829 32 21.829Z" fill="#BDBDBD"/>
<path d="M54 21.8289C57.797 21.8289 60.875 18.7508 60.875 14.9539C60.875 11.1569 57.797 8.07886 54 8.07886C50.203 8.07886 47.125 11.1569 47.125 14.9539C47.125 18.7508 50.203 21.8289 54 21.8289Z" fill="#BDBDBD"/>
<path d="M10 21.8289C13.797 21.8289 16.875 18.7508 16.875 14.9539C16.875 11.1569 13.797 8.07886 10 8.07886C6.20304 8.07886 3.125 11.1569 3.125 14.9539C3.125 18.7508 6.20304 21.8289 10 21.8289Z" fill="#BDBDBD"/>
<path d="M16.7738 28.0029C14.0675 25.7856 11.6166 26.0791 8.4875 26.0791C3.8075 26.0791 0 29.8641 0 34.5154V48.1666C0 50.1866 1.64875 51.8291 3.67625 51.8291C12.4295 51.8291 11.375 51.9875 11.375 51.4516C11.375 41.7784 10.2293 34.6845 16.7738 28.0029V28.0029Z" fill="#BDBDBD"/>
<path d="M34.9761 26.1287C29.5106 25.6728 24.76 26.1339 20.6624 29.5162C13.8053 35.0087 15.1249 42.4041 15.1249 51.4512C15.1249 53.8448 17.0724 55.8287 19.5024 55.8287C45.8876 55.8287 46.9378 56.6798 48.5024 53.2149C49.0155 52.0432 48.8749 52.4156 48.8749 41.2062C48.8749 32.3029 41.1658 26.1287 34.9761 26.1287V26.1287Z" fill="#BDBDBD"/>
<path d="M55.5123 26.079C52.3661 26.079 49.9287 25.7885 47.2261 28.0027C53.7217 34.6347 52.6248 41.2446 52.6248 51.4514C52.6248 51.9907 51.7495 51.8289 60.1923 51.8289C62.2923 51.8289 63.9998 50.1277 63.9998 48.0364V34.5152C63.9998 29.864 60.1923 26.079 55.5123 26.079Z" fill="#BDBDBD"/>
</svg>
