<svg width="18" height="24" viewBox="0 0 18 24" fill="none" xmlns="http://www.w3.org/2000/svg">
<path d="M10.9395 0H3C2.20435 0 1.44129 0.316071 0.87868 0.87868C0.31607 1.44129 0 2.20435 0 3V21C0 21.7956 0.31607 22.5587 0.87868 23.1213C1.44129 23.6839 2.20435 24 3 24H15C15.7956 24 16.5587 23.6839 17.1213 23.1213C17.6839 22.5587 18 21.7956 18 21V7.0605C17.9999 6.66271 17.8418 6.28124 17.5605 6L12 0.4395C11.7188 0.158176 11.3373 8.49561e-05 10.9395 0V0ZM11.25 5.25V2.25L15.75 6.75H12.75C12.3522 6.75 11.9706 6.59196 11.6893 6.31066C11.408 6.02936 11.25 5.64782 11.25 5.25ZM5.2275 10.3185L6.7815 16.5345L8.277 11.052C8.32065 10.8938 8.41501 10.7542 8.54562 10.6547C8.67622 10.5553 8.83584 10.5014 9 10.5014C9.16416 10.5014 9.32378 10.5553 9.45438 10.6547C9.58499 10.7542 9.67935 10.8938 9.723 11.052L11.2185 16.5345L12.7725 10.3185C12.8243 10.1296 12.948 9.96841 13.1171 9.86949C13.2862 9.77056 13.4873 9.74173 13.6773 9.78915C13.8674 9.83657 14.0314 9.95649 14.1342 10.1232C14.237 10.29 14.2705 10.4904 14.2275 10.6815L11.9775 19.6815C11.937 19.8421 11.8444 19.9848 11.7143 20.0873C11.5841 20.1898 11.4237 20.2463 11.258 20.248C11.0924 20.2497 10.9308 20.1966 10.7986 20.0968C10.6663 19.997 10.5708 19.8563 10.527 19.6965L9 14.103L7.473 19.698C7.42917 19.8578 7.33368 19.9985 7.20143 20.0983C7.06918 20.1981 6.90762 20.2512 6.74197 20.2495C6.57631 20.2478 6.41589 20.1913 6.28573 20.0888C6.15558 19.9863 6.06302 19.8436 6.0225 19.683L3.7725 10.683C3.74607 10.5866 3.73917 10.4859 3.75221 10.3868C3.76525 10.2877 3.79797 10.1922 3.84844 10.1059C3.89891 10.0197 3.96612 9.94435 4.04611 9.88442C4.1261 9.82449 4.21727 9.78115 4.31425 9.75696C4.41123 9.73276 4.51207 9.7282 4.61084 9.74353C4.70961 9.75886 4.80432 9.79378 4.8894 9.84623C4.97448 9.89869 5.04822 9.96762 5.10628 10.049C5.16434 10.1303 5.20556 10.2225 5.2275 10.32V10.3185Z" fill="#3990E5"/>
</svg>
