<svg width="60" height="60" viewBox="0 0 60 60" fill="none" xmlns="http://www.w3.org/2000/svg">
<rect x="0.205078" y="0.0535889" width="59.0517" height="59.125" rx="8" fill="#BA68C8" fill-opacity="0.2"/>
<path d="M18.8306 54.934L18.3498 54.6584C18.2697 54.6064 18.2031 54.5362 18.1552 54.4537C18.1073 54.3711 18.0796 54.2784 18.0742 54.1831V18.5571C18.0795 18.4618 18.1072 18.369 18.1551 18.2864C18.2029 18.2038 18.2697 18.1337 18.3498 18.0818L40.4498 5.32191C40.5351 5.27826 40.6295 5.25549 40.7254 5.25549C40.8212 5.25549 40.9156 5.27826 41.0009 5.32191L41.4818 5.59747C41.5618 5.64949 41.6285 5.71963 41.6764 5.80222C41.7242 5.8848 41.752 5.97751 41.7573 6.07281V41.6988C41.7522 41.7941 41.7245 41.8869 41.6766 41.9695C41.6287 42.0521 41.562 42.1222 41.4818 42.1741L19.379 54.934C19.2941 54.9774 19.2002 55 19.1048 55C19.0095 55 18.9155 54.9774 18.8306 54.934Z" fill="#BA68C8"/>
<path opacity="0.4" d="M41.7478 6.02983C41.7299 5.89205 41.6101 5.83556 41.4723 5.91548L19.3792 18.6753C19.2986 18.7262 19.2318 18.7963 19.1849 18.8793L18.1543 18.2854C18.2012 18.2025 18.268 18.1324 18.3486 18.0815L40.45 5.32164C40.5352 5.27777 40.6297 5.25488 40.7255 5.25488C40.8214 5.25488 40.9158 5.27777 41.0011 5.32164L41.4833 5.5972C41.5558 5.64614 41.617 5.7101 41.6626 5.78475C41.7083 5.85939 41.7373 5.94297 41.7478 6.02983Z" fill="white"/>
<path opacity="0.15" d="M19.3311 54.9557C19.3257 54.9568 19.3201 54.9568 19.3146 54.9557L19.287 54.9653H19.276C19.2595 54.9653 19.2429 54.9736 19.225 54.9777C19.1158 54.9984 19.003 54.9893 18.8985 54.9516C18.8777 54.9437 18.8574 54.9345 18.8379 54.924L18.3556 54.6484C18.2758 54.5962 18.2093 54.526 18.1615 54.4435C18.1136 54.3609 18.0858 54.2683 18.0801 54.1731V18.5568C18.0832 18.4597 18.1107 18.365 18.16 18.2812L19.1906 18.8751C19.1396 18.9581 19.1116 19.0532 19.1093 19.1506V54.7766C19.1063 54.8283 19.1214 54.8794 19.152 54.9212C19.169 54.9427 19.1919 54.9585 19.2179 54.9669C19.2439 54.9752 19.2718 54.9756 19.2981 54.9681C19.3095 54.9651 19.3205 54.9609 19.3311 54.9557Z" fill="black"/>
<path d="M34.8493 11.8814L34.8094 11.8566L34.3533 11.5948C34.1875 11.5024 34.0072 11.4385 33.8201 11.4061C33.7416 11.3882 33.6713 11.3675 33.6093 11.3468C33.5405 11.3243 33.4733 11.2971 33.4081 11.2655L33.4412 11.2228L32.9287 10.9238C32.8854 10.8997 32.839 10.8816 32.7909 10.8701C32.5966 10.8219 32.3059 10.9349 32.0165 10.9018C31.9112 10.8915 31.8095 10.8581 31.7185 10.8041C31.6276 10.75 31.5496 10.6766 31.4902 10.589C31.3139 10.352 31.2078 9.93733 31.0521 9.59287L31.1899 9.39309C31.1761 9.38447 31.1618 9.37665 31.1471 9.36967L30.6746 9.09411C30.5948 9.04715 30.5039 9.02241 30.4114 9.02246C30.2348 9.03178 30.0637 9.08737 29.9154 9.18367C28.7842 9.83812 28.7456 11.3882 28.3378 12.4105C27.93 13.4328 27.3527 13.7511 27.0385 14.1906C26.7244 14.6301 26.7023 14.9553 26.0066 15.9142C25.3108 16.8732 25.2832 17.1074 25.2832 17.2921V18.7208L25.7985 19.0184L35.0601 13.6684L34.8493 11.8814ZM26.3565 17.3926C26.2366 17.4601 26.1374 17.3678 26.1374 17.1818C26.1363 17.0929 26.1554 17.0048 26.1934 16.9244C26.2313 16.8439 26.2871 16.7732 26.3565 16.7175C26.4764 16.6486 26.5742 16.7437 26.5742 16.9297C26.5752 17.0179 26.5561 17.1051 26.5184 17.1849C26.4807 17.2646 26.4253 17.3347 26.3565 17.3899V17.3926ZM30.4252 13.3818C30.3668 13.4244 30.2993 13.4528 30.2281 13.4648C30.1568 13.4768 30.0837 13.4721 30.0146 13.451C29.9455 13.4298 29.8823 13.3929 29.8299 13.3432C29.7775 13.2934 29.7375 13.2321 29.7129 13.1641C29.3532 13.233 29.0859 12.8886 29.0859 12.2906C29.0859 11.5879 29.4566 10.8067 29.9126 10.5422C29.9711 10.4996 30.0387 10.4713 30.11 10.4594C30.1813 10.4475 30.2545 10.4523 30.3236 10.4736C30.3927 10.4948 30.4559 10.5319 30.5082 10.5818C30.5605 10.6318 30.6005 10.6932 30.625 10.7613C30.9846 10.6896 31.2505 11.0368 31.2505 11.6334C31.2505 12.3333 30.8826 13.1145 30.4252 13.3791V13.3818ZM33.5018 13.2661C33.3806 13.3364 33.2827 13.2427 33.2827 13.0567C33.2805 12.9676 33.2992 12.8792 33.3372 12.7985C33.3753 12.7179 33.4316 12.6473 33.5018 12.5924C33.6231 12.5221 33.7209 12.6158 33.7209 12.8018C33.7226 12.8904 33.7036 12.9782 33.6656 13.0583C33.6276 13.1384 33.5715 13.2086 33.5018 13.2633V13.2661Z" fill="#455A64"/>
<path opacity="0.5" d="M26.3164 17.6449L25.3202 17.0703C25.2975 17.142 25.2864 17.2169 25.2871 17.2921V18.7209L25.8024 19.0185L26.3164 18.7209V17.6449Z" fill="#37474F"/>
<path opacity="0.5" d="M27.3398 15.8616L27.8551 14.6726L27.0367 14.1931C26.797 14.5252 26.7267 14.7938 26.4043 15.3215L27.3398 15.8616Z" fill="#37474F"/>
<path opacity="0.5" d="M29.3989 13.4853L29.4651 13.1381C29.2377 13.043 29.0862 12.7358 29.0862 12.288C29.0862 11.6914 29.3535 11.0397 29.7131 10.6939L28.9994 10.2805C28.6962 10.9694 28.586 11.7961 28.3353 12.412C28.2829 12.5498 28.2264 12.6641 28.1699 12.7743L29.3989 13.4853Z" fill="#37474F"/>
<path d="M34.8504 11.8813L34.8105 11.8565C34.6588 11.7862 34.4992 11.7343 34.3351 11.7022C34.0658 11.6549 33.8149 11.5338 33.6104 11.3523C33.5586 11.3055 33.5023 11.2639 33.4423 11.2283C33.3995 11.2029 33.3531 11.1843 33.3045 11.1732C32.9932 11.0974 32.4255 11.4377 32.0177 10.9086C32.0128 10.9037 32.0086 10.8981 32.0053 10.8921C31.7201 10.509 31.6154 9.65205 31.1882 9.39991C31.1745 9.39129 31.1602 9.38347 31.1455 9.37649C30.9692 9.29382 30.7404 9.30898 30.4263 9.48809C29.2951 10.1426 29.2565 11.6926 28.8487 12.7149C28.4409 13.7372 27.865 14.0555 27.5508 14.495C27.2367 14.9346 27.216 15.2597 26.5188 16.2187C25.8217 17.1776 25.7969 17.4132 25.7969 17.5965V19.0266L35.0585 13.6766V12.241C35.0655 12.1668 35.0492 12.0924 35.0119 12.0279C34.9746 11.9635 34.9182 11.9122 34.8504 11.8813ZM26.8674 17.6902C26.7462 17.7604 26.6484 17.6668 26.6484 17.4794C26.6467 17.3905 26.6656 17.3025 26.7036 17.2222C26.7416 17.1419 26.7977 17.0715 26.8674 17.0164C26.9887 16.9462 27.0851 17.0412 27.0851 17.2272C27.087 17.316 27.0683 17.4039 27.0305 17.4842C26.9927 17.5645 26.9369 17.635 26.8674 17.6902ZM30.4222 13.3832C30.3638 13.4257 30.2963 13.4542 30.225 13.4661C30.1538 13.4781 30.0807 13.4734 30.0116 13.4523C29.9425 13.4312 29.8793 13.3943 29.8269 13.3445C29.7745 13.2947 29.7344 13.2334 29.7098 13.1655C29.629 12.9841 29.5903 12.7867 29.5969 12.5882C29.5969 11.8869 29.9661 11.1043 30.4235 10.8411C30.4854 10.8041 30.5529 10.7775 30.6233 10.7626C30.9829 10.6909 31.2489 11.0381 31.2489 11.6347C31.2516 12.3333 30.8837 13.1145 30.4263 13.379L30.4222 13.3832ZM34.0169 13.5568C33.8956 13.627 33.7978 13.5333 33.7978 13.3487C33.7958 13.2598 33.8146 13.1717 33.8526 13.0913C33.8906 13.011 33.9469 12.9406 34.0169 12.8858C34.1367 12.8155 34.2346 12.9092 34.2346 13.0952C34.2363 13.1837 34.2175 13.2714 34.1798 13.3515C34.142 13.4315 34.0863 13.5018 34.0169 13.5568Z" fill="#37474F"/>
<path d="M31.2519 11.6278C31.2519 12.3305 30.884 13.1117 30.4252 13.3762C30.3668 13.4188 30.2994 13.4472 30.2281 13.4592C30.1568 13.4712 30.0838 13.4665 30.0147 13.4453C29.9456 13.4242 29.8823 13.3873 29.8299 13.3375C29.7776 13.2878 29.7375 13.2265 29.7129 13.1585C29.7832 13.1429 29.8506 13.1164 29.9127 13.08C30.3687 12.8154 30.7394 12.0342 30.7394 11.3316C30.7453 11.1335 30.7067 10.9367 30.6264 10.7556C30.986 10.6867 31.2519 11.0326 31.2519 11.6278Z" fill="#263238"/>
<path d="M26.8676 17.6903C26.7464 17.7592 26.6485 17.6655 26.6485 17.4809C26.6469 17.3918 26.6658 17.3036 26.7038 17.2231C26.7418 17.1425 26.7978 17.0719 26.8676 17.0165C26.9875 16.9463 27.0853 17.0427 27.0853 17.2273C27.0868 17.316 27.068 17.4039 27.0302 17.4841C26.9925 17.5644 26.9369 17.6349 26.8676 17.6903Z" fill="#263238"/>
<path d="M34.016 13.5568C33.8948 13.6257 33.797 13.5334 33.797 13.3474C33.7953 13.2583 33.8142 13.1701 33.8522 13.0896C33.8902 13.009 33.9463 12.9384 34.016 12.883C34.1359 12.8141 34.2337 12.9092 34.2337 13.0952C34.2352 13.1837 34.2163 13.2713 34.1785 13.3513C34.1408 13.4313 34.0852 13.5016 34.016 13.5568Z" fill="#263238"/>
<path d="M20.8138 22.0082L40.0452 10.9045C40.0962 10.8787 40.1526 10.8652 40.2098 10.8652C40.267 10.8652 40.3234 10.8787 40.3745 10.9045L40.5605 11.0119C40.6083 11.0432 40.6481 11.0854 40.6766 11.1349C40.705 11.1845 40.7215 11.2401 40.7245 11.2971V40.6361C40.7217 40.6933 40.7054 40.7489 40.6769 40.7985C40.6483 40.8481 40.6085 40.8902 40.5605 40.9214L21.3291 52.0251C21.278 52.0509 21.2216 52.0643 21.1644 52.0643C21.1072 52.0643 21.0508 52.0509 20.9998 52.0251L20.8138 51.9176C20.7656 51.8866 20.7255 51.8445 20.6968 51.7949C20.6681 51.7453 20.6515 51.6896 20.6484 51.6324V22.2934C20.6517 22.2362 20.6684 22.1806 20.6971 22.1311C20.7258 22.0815 20.7658 22.0394 20.8138 22.0082Z" fill="#F5F5F5"/>
<path d="M40.7195 11.2475C40.6989 11.18 40.6355 11.158 40.5611 11.2021L21.3297 22.3058C21.2801 22.3352 21.2396 22.3776 21.2126 22.4284L20.6973 22.1322C20.7251 22.0816 20.7654 22.0389 20.8144 22.0082L40.0458 10.9045C40.0969 10.8787 40.1532 10.8652 40.2104 10.8652C40.2676 10.8652 40.324 10.8787 40.3751 10.9045L40.5611 11.0119C40.6019 11.0386 40.6369 11.0732 40.6642 11.1137C40.6914 11.1542 40.7102 11.1997 40.7195 11.2475Z" fill="#FAFAFA"/>
<path d="M21.2897 52.0431C21.27 52.0503 21.2497 52.0558 21.2291 52.0597H21.1974C21.1639 52.0631 21.1302 52.0631 21.0968 52.0597C21.0762 52.0556 21.056 52.0501 21.0362 52.0431L20.999 52.0252L20.8143 51.9191C20.7666 51.8877 20.7269 51.8456 20.6984 51.796C20.67 51.7465 20.6535 51.691 20.6504 51.6339V22.2935C20.6514 22.2366 20.6675 22.1809 20.6972 22.1323L21.2125 22.4286C21.1832 22.4779 21.1666 22.5338 21.1643 22.5911V51.9301C21.1643 52.0197 21.2194 52.0638 21.2897 52.0431Z" fill="#E0E0E0"/>
<path d="M36.3916 15.0601L35.8791 14.7639C35.7986 14.7244 35.7098 14.7052 35.6203 14.7078C35.5307 14.7105 35.4431 14.7349 35.3652 14.779C34.7672 15.0422 34.5082 15.1621 34.1995 15.2916L33.9763 15.3811C33.8551 15.4294 33.614 15.388 33.6884 14.9678L34.4834 12.8281H34.471L33.9681 12.5373C33.9426 12.5213 33.9139 12.511 33.884 12.507C33.8689 12.507 33.8496 12.507 33.8289 12.507C33.5037 12.4988 33.4156 10.4004 33.4087 10.3356L33.3853 10.3232L32.8879 10.0366C32.8014 9.98759 32.7034 9.96283 32.604 9.96497C32.4378 9.97264 32.2758 10.0199 32.1315 10.1028C31.3502 10.5161 30.5608 11.7299 30.3679 12.8225C30.2466 13.5114 29.5536 14.5724 29.1526 14.9637C28.7517 15.3549 28.7241 15.6801 28.7241 15.6801L28.4128 17.4465L28.3122 18.0127C28.2392 18.4343 27.8065 18.8394 27.8065 18.8394L26.1931 20.0326C25.1832 20.8703 24.898 21.7177 24.7051 22.7648V22.7731C24.7051 22.8103 24.7051 22.8351 24.723 22.8447C24.7257 22.8464 24.7288 22.8473 24.7319 22.8473C24.7351 22.8473 24.7382 22.8464 24.7409 22.8447L24.9476 22.7276L36.0472 16.3263C36.0733 16.3085 36.0956 16.2857 36.1129 16.2592C36.1301 16.2327 36.142 16.2031 36.1478 16.172C36.2111 15.7903 36.3958 15.0697 36.3958 15.0697L36.3916 15.0601ZM33.1827 11.8181C33.0629 12.4891 32.5792 13.2386 32.0984 13.4908C31.7663 13.6644 31.5238 13.5569 31.4426 13.251C31.3829 13.2744 31.3183 13.2824 31.2547 13.2742C31.1911 13.266 31.1306 13.2419 31.0788 13.2042C30.9245 13.0829 32.3381 10.6553 32.4566 10.709C32.5117 10.738 32.5595 10.7791 32.5965 10.8292C32.6335 10.8793 32.6587 10.9371 32.6702 10.9983C33.067 10.8785 33.2888 11.2146 33.1827 11.8181Z" fill="#455A64"/>
<path opacity="0.5" d="M26.3161 21.2118L25.5073 20.7448C25.0389 21.362 24.8501 22.011 24.7109 22.7646V22.7729C24.7109 22.8101 24.7109 22.8349 24.7288 22.8445C24.7315 22.8462 24.7346 22.8472 24.7378 22.8472C24.741 22.8472 24.7441 22.8462 24.7468 22.8445L25.3847 22.3403L26.3161 21.2118Z" fill="#37474F"/>
<path opacity="0.5" d="M28.2598 18.1766L29.4006 18.8338L29.9145 15.8619L28.8867 15.2681C28.8048 15.3856 28.7498 15.5196 28.7255 15.6607L28.4141 17.4271L28.3135 17.9934C28.3022 18.0562 28.2842 18.1176 28.2598 18.1766Z" fill="#37474F"/>
<path opacity="0.5" d="M30.9092 11.384C30.6493 11.8227 30.4666 12.3027 30.3691 12.8032C30.2872 13.1579 30.1515 13.498 29.9668 13.8117L30.9437 14.3766L31.43 13.2537C31.3721 13.2746 31.3099 13.281 31.2489 13.2724C31.1879 13.2638 31.1299 13.2403 31.0801 13.2041C31.0002 13.1407 31.3363 12.4697 31.6959 11.8387L30.9092 11.384Z" fill="#37474F"/>
<path d="M36.3982 15.0641H36.3913C36.3107 15.026 36.2222 15.0077 36.133 15.0105C36.0439 15.0134 35.9568 15.0375 35.8788 15.0807C35.1458 15.4044 34.924 15.5105 34.4886 15.6828C34.3728 15.7296 34.1372 15.6924 34.1992 15.2956C34.1985 15.2864 34.1985 15.2772 34.1992 15.268L34.2998 14.7031L34.5754 13.1641C34.5754 13.1641 34.6387 12.9216 34.4789 12.8307H34.4665C34.4264 12.8122 34.3826 12.8027 34.3384 12.8031C34.2448 12.7919 34.1549 12.7597 34.0754 12.7088C33.996 12.658 33.9291 12.5899 33.8796 12.5097C33.7937 12.3818 33.7343 12.238 33.7047 12.0868C33.6751 11.9356 33.676 11.7801 33.7073 11.6293C33.8245 10.9693 33.6963 10.5063 33.4042 10.3341L33.3808 10.3203C33.192 10.2198 32.9385 10.2363 32.6423 10.392C31.8597 10.8053 31.0702 12.0192 30.8787 13.1118C30.7561 13.8007 30.063 14.863 29.6621 15.2529C29.2612 15.6428 29.235 15.9693 29.235 15.9693L28.9332 17.726L28.834 18.2909C28.7596 18.7126 28.327 19.1176 28.327 19.1176L26.715 20.3273C26.0716 20.8394 25.6071 21.5422 25.3882 22.3348C25.3882 22.3348 24.7833 22.8046 24.7461 22.8418L24.9528 22.7247L36.0841 16.3262C36.0841 16.3262 36.2108 16.2559 36.2398 16.238C36.2687 16.2201 36.7165 15.7971 36.7165 15.7971C36.6917 15.4361 36.5842 15.1757 36.3982 15.0641ZM33.1824 11.818C33.0625 12.489 32.5789 13.2385 32.0981 13.4907C31.766 13.6643 31.5235 13.5568 31.4422 13.2509C31.4059 13.0792 31.4059 12.9018 31.4422 12.7301C31.5621 12.0578 32.0471 11.3096 32.5279 11.0588C32.572 11.0347 32.6181 11.0144 32.6657 10.9982C33.0667 10.8784 33.2885 11.2145 33.1824 11.818Z" fill="#37474F"/>
<path d="M33.1835 11.8181C33.0637 12.4891 32.58 13.2386 32.0992 13.4908C31.7671 13.6644 31.5246 13.5569 31.4434 13.251C31.4907 13.2354 31.5368 13.216 31.5811 13.1932C32.0634 12.941 32.5456 12.1915 32.6655 11.5191C32.7016 11.3474 32.7016 11.17 32.6655 10.9983C33.0678 10.8785 33.2896 11.2146 33.1835 11.8181Z" fill="#263238"/>
<path d="M32.7191 11.0271C32.7641 11.0244 32.8091 11.0334 32.8497 11.0532C32.8902 11.073 32.925 11.1029 32.9506 11.1401C33.1503 11.4239 32.9588 12.1459 32.8762 12.3801C32.7618 12.7011 32.015 13.4562 31.8097 13.4562C31.7417 13.445 31.6767 13.42 31.6187 13.3828C31.5606 13.3456 31.5108 13.297 31.4722 13.2399C31.4383 13.0744 31.4383 12.9038 31.4722 12.7383C31.5893 12.0742 32.0688 11.3357 32.5413 11.085C32.5834 11.0628 32.6272 11.0439 32.6722 11.0285H32.7177L32.7191 11.0271ZM32.7177 10.9968H32.6667C32.6191 11.013 32.573 11.0332 32.5289 11.0574C32.0481 11.3082 31.5645 12.0563 31.4432 12.7287C31.4069 12.9004 31.4069 13.0778 31.4432 13.2495C31.4847 13.3115 31.5386 13.3644 31.6014 13.4047C31.6642 13.445 31.7347 13.4719 31.8084 13.4837C32.0316 13.4837 32.7825 12.7218 32.9023 12.3815C33.0222 12.0412 33.2826 10.9885 32.7149 10.9885L32.7177 10.9968Z" fill="#263238"/>
<path d="M24.7424 22.846L36.079 16.329L36.2361 16.2422C36.2636 16.2257 36.7114 15.7999 36.7114 15.7999L25.3831 22.339C25.3831 22.339 24.6969 22.8708 24.7424 22.846Z" fill="#263238"/>
<path d="M23.2227 27.4162V27.6739C23.2227 27.8117 23.3219 27.8709 23.4431 27.8006L38.4419 19.1398C38.5058 19.098 38.5591 19.0419 38.5974 18.9759C38.6357 18.9098 38.6579 18.8357 38.6624 18.7595V18.5005C38.6624 18.3627 38.5632 18.3034 38.4419 18.3737L23.4431 27.036C23.3791 27.0776 23.3258 27.1337 23.2875 27.1998C23.2492 27.2658 23.227 27.34 23.2227 27.4162Z" fill="#E0E0E0"/>
<path d="M23.2227 28.9745V29.2322C23.2227 29.3699 23.3219 29.4292 23.4431 29.3589L38.4419 20.6967C38.5059 20.655 38.5592 20.5989 38.5975 20.5328C38.6358 20.4668 38.658 20.3926 38.6624 20.3164V20.0573C38.6624 19.9196 38.5632 19.8617 38.4419 19.9306L23.4431 28.5942C23.3791 28.6359 23.3258 28.692 23.2875 28.758C23.2492 28.8241 23.227 28.8983 23.2227 28.9745Z" fill="#E0E0E0"/>
<path d="M23.2227 30.5232V30.7794C23.2227 30.9172 23.3219 30.9765 23.4431 30.9062L38.4419 22.2467C38.5058 22.205 38.5591 22.1488 38.5974 22.0828C38.6357 22.0167 38.6579 21.9426 38.6624 21.8664V21.6074C38.6624 21.4696 38.5632 21.4104 38.4419 21.4806L23.4431 30.1429C23.3791 30.1845 23.3258 30.2406 23.2875 30.3067C23.2492 30.3728 23.227 30.4469 23.2227 30.5232Z" fill="#E0E0E0"/>
<path d="M23.2227 33.9552V34.2129C23.2227 34.3507 23.3219 34.4099 23.4431 34.3396L38.4419 25.6815C38.5059 25.6399 38.5592 25.5838 38.5975 25.5177C38.6358 25.4516 38.658 25.3775 38.6624 25.3012V25.0422C38.6624 24.9044 38.5632 24.8466 38.4419 24.9155L23.4431 33.575C23.3791 33.6166 23.3258 33.6727 23.2875 33.7388C23.2492 33.8048 23.227 33.879 23.2227 33.9552Z" fill="#E0E0E0"/>
<path d="M23.2227 35.5122V35.7712C23.2227 35.909 23.3219 35.9669 23.4431 35.898L38.4419 27.2357C38.5059 27.1941 38.5592 27.138 38.5975 27.0719C38.6358 27.0058 38.658 26.9317 38.6624 26.8554V26.5964C38.6624 26.4586 38.5632 26.3994 38.4419 26.4696L23.4431 35.1319C23.3792 35.1736 23.3259 35.2298 23.2876 35.2958C23.2493 35.3619 23.2271 35.436 23.2227 35.5122Z" fill="#E0E0E0"/>
<path d="M23.2227 37.0622V37.3198C23.2227 37.4576 23.3219 37.5168 23.4431 37.4466L38.4419 28.7843C38.5059 28.7427 38.5592 28.6865 38.5975 28.6205C38.6358 28.5544 38.658 28.4803 38.6624 28.404V28.145C38.6624 28.0072 38.5632 27.9493 38.4419 28.0182L23.4431 36.6819C23.3791 36.7235 23.3258 36.7796 23.2875 36.8457C23.2492 36.9118 23.227 36.9859 23.2227 37.0622Z" fill="#E0E0E0"/>
<path d="M23.2227 40.4928V40.7518C23.2227 40.8896 23.3219 40.9475 23.4431 40.8786L38.4419 32.2163C38.5059 32.1747 38.5592 32.1185 38.5975 32.0525C38.6358 31.9864 38.658 31.9123 38.6624 31.836V31.577C38.6624 31.4392 38.5632 31.38 38.4419 31.4502L23.4431 40.1125C23.3792 40.1542 23.3259 40.2103 23.2876 40.2764C23.2493 40.3424 23.2271 40.4166 23.2227 40.4928Z" fill="#E0E0E0"/>
<path d="M23.2227 42.0512V42.3089C23.2227 42.4467 23.3219 42.5059 23.4431 42.4357L38.4419 33.7734C38.5059 33.7321 38.5592 33.6762 38.5975 33.6104C38.6358 33.5445 38.658 33.4705 38.6624 33.3945V33.1355C38.6624 32.9977 38.5632 32.9384 38.4419 33.0087L23.4431 41.671C23.3791 41.7126 23.3258 41.7687 23.2875 41.8348C23.2492 41.9009 23.227 41.975 23.2227 42.0512Z" fill="#E0E0E0"/>
<path d="M23.2227 43.5998V43.8588C23.2227 43.9966 23.3219 44.0544 23.4431 43.9855L38.4419 35.326C38.5059 35.2844 38.5592 35.2283 38.5975 35.1622C38.6358 35.0962 38.658 35.022 38.6624 34.9458V34.6867C38.6624 34.549 38.5632 34.4897 38.4419 34.56L23.4431 43.2195C23.3792 43.2612 23.3259 43.3173 23.2876 43.3834C23.2493 43.4494 23.2271 43.5235 23.2227 43.5998Z" fill="#E0E0E0"/>
<path d="M30.9434 43.808L38.666 39.3508V39.4996L30.9434 43.9568V43.808Z" fill="#E0E0E0"/>
<path d="M32.7409 41.4932C33.0619 41.2783 33.4202 40.9159 33.3623 40.4874C33.3278 40.227 33.1157 40.1265 32.8759 40.2188C32.4061 40.3993 32.1099 41.1061 31.9459 41.5332C31.8081 41.9066 31.6194 42.6106 32.1801 42.7305C32.8373 42.8683 33.3458 41.9038 33.4946 41.4023C33.5152 41.332 33.4009 41.2935 33.3678 41.3568C33.3099 41.4712 32.9228 42.2262 33.3485 42.1312C33.5001 42.0981 33.5869 41.8625 33.642 41.7426C33.7384 41.5277 33.7867 41.2287 33.9382 41.0441L33.8266 40.9931C33.8335 41.1915 33.8266 41.3265 33.9644 41.4808C33.9749 41.4952 33.9906 41.5048 34.0081 41.5077C34.0257 41.5105 34.0436 41.5063 34.0581 41.496C34.2758 41.2935 34.2909 40.9642 34.5307 40.7809L34.4328 40.7341C34.4328 40.7975 34.4039 40.9779 34.3998 41.062C34.3998 41.102 34.4535 41.1281 34.4852 41.1157C34.5163 41.1093 34.5453 41.095 34.5694 41.0743C34.5935 41.0536 34.612 41.0271 34.623 40.9972L34.5183 40.9587C34.6092 41.445 35.0239 40.9587 35.1658 40.774C35.5792 40.2229 35.874 39.6318 35.8851 38.9264C35.8851 38.8699 35.779 38.841 35.7776 38.9085C35.7679 39.4513 35.531 39.9487 35.378 40.4613C35.2141 41.0124 35.0777 41.5759 34.9647 42.1436L35.0625 42.1794C35.0936 41.7777 35.1962 41.3848 35.3656 41.0193C35.4725 40.6937 35.6509 40.3961 35.8878 40.1485L35.7969 40.1141C35.8209 40.2557 35.8136 40.4009 35.7756 40.5394C35.7375 40.678 35.6695 40.8065 35.5764 40.9159C35.5475 40.9531 35.6122 41.0234 35.6412 40.9862C35.7927 40.7961 36.0421 40.7355 36.2047 40.5508C36.3575 40.3434 36.4934 40.1241 36.6112 39.895L36.5368 39.8578C36.5271 40.3207 36.9639 39.5988 37.0231 39.5216L36.9515 39.494C36.9804 39.5891 37.019 39.6525 37.1265 39.6539C37.34 39.6539 37.4199 39.3425 37.5811 39.3067C37.5811 39.3067 37.6514 39.3659 37.6762 39.3687C37.7651 39.3817 37.8557 39.3647 37.9339 39.3204C38.114 39.2039 38.2596 39.0412 38.3555 38.8492C38.3803 38.8051 38.2962 38.75 38.2687 38.7983C38.1626 38.9774 37.8319 39.4527 37.5922 39.2199C37.577 39.2061 37.5453 39.1923 37.5288 39.2116C37.464 39.2915 37.0934 39.7159 37.0245 39.4872C37.0162 39.4596 36.9763 39.4293 36.9542 39.4596C36.8977 39.534 36.8523 39.6167 36.7999 39.6952C36.771 39.7379 36.6098 40.0093 36.6153 39.8716C36.6153 39.8385 36.5643 39.7999 36.5409 39.8344C36.3907 40.0645 36.2805 40.3662 36.0711 40.5536C35.9154 40.6914 35.7114 40.7437 35.5764 40.9104L35.6412 40.9807C35.7453 40.8634 35.8219 40.7244 35.8655 40.5738C35.9091 40.4231 35.9186 40.2647 35.8933 40.1099C35.8913 40.1005 35.8869 40.0917 35.8806 40.0843C35.8743 40.077 35.8663 40.0714 35.8572 40.0679C35.8482 40.0645 35.8384 40.0634 35.8288 40.0647C35.8193 40.066 35.8102 40.0697 35.8024 40.0755C35.5447 40.3125 35.4001 40.6459 35.2719 40.9655C35.1 41.3388 34.9955 41.7394 34.9633 42.1491C34.9633 42.1918 35.0501 42.24 35.0611 42.1849C35.1776 41.5724 35.3289 40.967 35.5144 40.3717C35.666 39.8922 35.8713 39.4307 35.8809 38.9209L35.7735 38.903C35.7633 39.4308 35.5969 39.9438 35.2954 40.3772C35.2182 40.4971 35.1369 40.617 35.0487 40.7299C35.0101 40.7809 34.6684 41.2273 34.6244 40.9683C34.6175 40.9311 34.5444 40.8787 34.5196 40.9297L34.4204 41.0179L34.5059 41.0703C34.5128 40.9587 34.5348 40.8539 34.5403 40.741C34.5403 40.6983 34.4742 40.6707 34.4425 40.6955C34.1986 40.8815 34.1807 41.2108 33.9616 41.4133L34.0553 41.4285C33.9809 41.3038 33.9445 41.1602 33.9506 41.0151C33.9506 40.9669 33.8762 40.9201 33.839 40.9642C33.6709 41.1653 33.6186 41.4864 33.5083 41.7206C33.4477 41.8487 33.2328 42.1904 33.3017 41.8267C33.3473 41.6759 33.4126 41.5318 33.4959 41.3982L33.3692 41.3527C33.2397 41.7909 32.8938 42.455 32.4212 42.5927C31.8178 42.7732 31.9225 42.0251 32.0327 41.6917C32.1639 41.3032 32.3585 40.9391 32.6086 40.6142C32.6545 40.5495 32.7066 40.4895 32.7643 40.4351C32.8869 40.3249 32.9228 40.2973 33.0936 40.3951C33.2645 40.493 33.2727 40.5467 33.2314 40.7313C33.2061 40.823 33.1681 40.9106 33.1184 40.9917C33.0093 41.1582 32.8723 41.3045 32.7133 41.4244C32.6913 41.4423 32.723 41.5015 32.7478 41.4836L32.7409 41.4932Z" fill="#455A64"/>
</svg>
