<svg width="32" height="32" viewBox="0 0 32 32" fill="none" xmlns="http://www.w3.org/2000/svg">
<rect width="32" height="32" rx="16" fill="#F0F2F9"/>
<path fill-rule="evenodd" clip-rule="evenodd" d="M15.765 21.3656C15.615 21.5155 15.4116 21.5998 15.1994 21.5998C14.9873 21.5998 14.7839 21.5155 14.6338 21.3656L9.83384 16.5656C9.68386 16.4155 9.59961 16.2121 9.59961 16C9.59961 15.7878 9.68386 15.5844 9.83384 15.4344L14.6338 10.6344C14.7847 10.4886 14.9868 10.408 15.1966 10.4098C15.4063 10.4116 15.607 10.4958 15.7553 10.6441C15.9036 10.7924 15.9878 10.9931 15.9896 11.2028C15.9914 11.4126 15.9108 11.6147 15.765 11.7656L12.3306 15.2H21.5994C21.8116 15.2 22.0151 15.2842 22.1651 15.4343C22.3152 15.5843 22.3994 15.7878 22.3994 16C22.3994 16.2121 22.3152 16.4156 22.1651 16.5656C22.0151 16.7157 21.8116 16.8 21.5994 16.8H12.3306L15.765 20.2344C15.915 20.3844 15.9993 20.5878 15.9993 20.8C15.9993 21.0121 15.915 21.2155 15.765 21.3656Z" fill="#182252"/>
</svg>
