<svg width="109" height="109" viewBox="0 0 109 109" fill="none" xmlns="http://www.w3.org/2000/svg">
<g filter="url(#filter0_d_26_36772)">
<g clip-path="url(#clip0_26_36772)">
<rect opacity="0.1" x="11.5362" y="3.53613" width="84.8116" height="84.8116" fill="#3E73FA"/>
<path d="M61.5994 26.421C60.7794 25.601 59.3594 26.161 59.3594 27.301V34.281C59.3594 37.201 61.8394 39.621 64.8594 39.621C66.7594 39.641 69.3994 39.641 71.6594 39.641C72.7994 39.641 73.3994 38.301 72.5994 37.501C69.7194 34.601 64.5594 29.381 61.5994 26.421Z" fill="#3E73FA"/>
<path d="M71 42.38H65.22C60.48 42.38 56.62 38.52 56.62 33.78V28C56.62 26.9 55.72 26 54.62 26H46.14C39.98 26 35 30 35 37.14V54.86C35 62 39.98 66 46.14 66H61.86C68.02 66 73 62 73 54.86V44.38C73 43.28 72.1 42.38 71 42.38ZM53 57.5H45C44.18 57.5 43.5 56.82 43.5 56C43.5 55.18 44.18 54.5 45 54.5H53C53.82 54.5 54.5 55.18 54.5 56C54.5 56.82 53.82 57.5 53 57.5ZM57 49.5H45C44.18 49.5 43.5 48.82 43.5 48C43.5 47.18 44.18 46.5 45 46.5H57C57.82 46.5 58.5 47.18 58.5 48C58.5 48.82 57.82 49.5 57 49.5Z" fill="#3E73FA"/>
</g>
</g>
<defs>
<filter id="filter0_d_26_36772" x="0" y="0" width="109" height="109" filterUnits="userSpaceOnUse" color-interpolation-filters="sRGB">
<feFlood flood-opacity="0" result="BackgroundImageFix"/>
<feColorMatrix in="SourceAlpha" type="matrix" values="0 0 0 0 0 0 0 0 0 0 0 0 0 0 0 0 0 0 127 0" result="hardAlpha"/>
<feOffset dy="8"/>
<feGaussianBlur stdDeviation="8"/>
<feColorMatrix type="matrix" values="0 0 0 0 0.243137 0 0 0 0 0.45098 0 0 0 0 0.980392 0 0 0 0.16 0"/>
<feBlend mode="normal" in2="BackgroundImageFix" result="effect1_dropShadow_26_36772"/>
<feBlend mode="normal" in="SourceGraphic" in2="effect1_dropShadow_26_36772" result="shape"/>
</filter>
<clipPath id="clip0_26_36772">
<rect x="16" y="8" width="77" height="77" rx="24" fill="white"/>
</clipPath>
</defs>
</svg>
