<svg width="60" height="60" viewBox="0 0 60 60" fill="none" xmlns="http://www.w3.org/2000/svg">
<rect x="0.537109" y="0.0535889" width="59.0517" height="59.125" rx="8" fill="#EB9C00" fill-opacity="0.15"/>
<path opacity="0.2" d="M37.2572 33.5587C34.8515 34.4933 32.2227 34.6936 29.7032 34.1342C27.1837 33.5748 24.8867 32.2808 23.1026 30.416C21.3185 28.5511 20.1274 26.1991 19.68 23.6573C19.2326 21.1156 19.549 18.4982 20.5891 16.1362C21.6292 13.7742 23.3463 11.7737 25.5233 10.3876C27.7004 9.00155 30.2396 8.29215 32.8198 8.34913C35.4 8.40611 37.9054 9.22692 40.0191 10.7078C42.1328 12.1886 43.76 14.263 44.6948 16.6686C45.3157 18.2659 45.6159 19.97 45.5782 21.6834C45.5404 23.3968 45.1655 25.0859 44.4748 26.6544C43.7841 28.2229 42.7912 29.6399 41.5528 30.8246C40.3144 32.0092 38.8547 32.9383 37.2572 33.5587Z" fill="#FFAA00"/>
<path opacity="0.1" d="M34.8966 8.56201L24.6617 31.8064C24.5041 31.6871 24.3479 31.5636 24.1946 31.4386C23.2053 30.6203 22.3439 29.6588 21.6387 28.586L30.4792 8.50805C31.9439 8.27215 33.4382 8.2904 34.8966 8.56201Z" fill="white"/>
<path opacity="0.1" d="M42.173 12.5948L32.5501 34.4491C30.5513 34.4512 28.5788 33.9935 26.7852 33.1115L37.2927 9.24658C39.1542 9.97459 40.8238 11.1201 42.173 12.5948Z" fill="white"/>
<path d="M21.7888 12.6045C23.5276 10.4799 25.8573 8.91857 28.4835 8.11801C31.1096 7.31746 33.9142 7.31363 36.5425 8.10699C39.1709 8.90036 41.5049 10.4553 43.2495 12.5752C44.9941 14.6951 46.0709 17.2847 46.3438 20.0165C46.6166 22.7484 46.0733 25.4998 44.7824 27.9229C43.4915 30.3459 41.5111 32.3318 39.0916 33.6293C36.6721 34.9268 33.9222 35.4778 31.1896 35.2124C28.457 34.9471 25.8644 33.8774 23.7398 32.1386C20.891 29.8068 19.085 26.4388 18.7192 22.7756C18.3533 19.1123 19.4574 15.4538 21.7888 12.6045ZM42.3949 29.4677C43.991 27.5167 44.9727 25.1362 45.2159 22.6273C45.4591 20.1183 44.9529 17.5936 43.7613 15.3723C42.5697 13.1511 40.7462 11.333 38.5213 10.1481C36.2965 8.96317 33.7702 8.46458 31.262 8.71536C28.7538 8.96614 26.3763 9.95503 24.4301 11.557C22.4839 13.159 21.0564 15.302 20.3282 17.7153C19.5999 20.1285 19.6036 22.7035 20.3387 25.1146C21.0739 27.5257 22.5075 29.6647 24.4582 31.2611C25.7537 32.3212 27.2453 33.1158 28.8478 33.5994C30.4503 34.083 32.1324 34.2462 33.798 34.0796C35.4637 33.9131 37.0801 33.4201 38.5552 32.6288C40.0303 31.8375 41.335 30.7633 42.3949 29.4677Z" fill="#FFAA00"/>
<path d="M43.6191 29.4194C44.9865 30.2358 46.2872 31.1332 47.5651 32.059C48.843 32.9848 50.0883 33.949 51.3137 34.9387C52.5391 35.9284 53.7418 36.9465 54.9019 38.0157C55.4831 38.5496 56.0511 39.0977 56.6058 39.66C57.1625 40.2279 57.7091 40.7959 58.2246 41.4122C58.3437 41.5549 58.4093 41.7346 58.4102 41.9204C58.4112 42.1063 58.3473 42.2866 58.2297 42.4305C58.112 42.5744 57.9479 42.6727 57.7656 42.7087C57.5833 42.7447 57.3941 42.716 57.2306 42.6276C56.5206 42.2443 55.8561 41.8211 55.193 41.388C54.5299 40.955 53.8824 40.5034 53.2434 40.0391C51.9655 39.1133 50.7287 38.1378 49.5175 37.1311C48.3063 36.1243 47.1136 35.0949 45.9535 34.0242C44.7934 32.9536 43.656 31.8574 42.5854 30.6789C42.4517 30.5331 42.375 30.344 42.3695 30.1463C42.3639 29.9486 42.4298 29.7555 42.5551 29.6024C42.6804 29.4494 42.8566 29.3466 43.0515 29.313C43.2464 29.2794 43.4469 29.3171 43.6162 29.4194H43.6191Z" fill="#FFAA00"/>
<path d="M34.7134 25.484C34.8387 25.142 35.0646 24.846 35.3614 24.6348C35.6582 24.4237 36.012 24.3074 36.3761 24.3012H47.7428C47.9392 24.2939 48.1348 24.3297 48.3158 24.4062C48.4969 24.4828 48.6589 24.5981 48.7906 24.744C48.9222 24.89 49.0202 25.0631 49.0776 25.2511C49.135 25.439 49.1505 25.6373 49.1229 25.8319L46.1865 50.4693C46.1242 50.8887 45.9147 51.2723 45.5955 51.5514C45.2763 51.8306 44.8682 51.987 44.4442 51.9929H8.3778C8.18205 52.0003 7.98705 51.9648 7.80651 51.8888C7.62598 51.8127 7.46431 51.6981 7.33287 51.5528C7.20143 51.4076 7.10342 51.2353 7.04575 51.0481C6.98807 50.8609 6.97213 50.6633 6.99904 50.4693L9.46121 29.7694C9.52353 29.35 9.73302 28.9664 10.0522 28.6873C10.3714 28.4081 10.7795 28.2517 11.2035 28.2458H30.8299C31.6803 28.2313 32.5065 27.9597 33.1996 27.4668C33.8928 26.9738 34.4205 26.2826 34.7134 25.484Z" fill="#FFAA00"/>
<path d="M7.64648 50.8585H45.3331L47.48 25.5012H9.79485L7.64648 50.8585Z" fill="#F0F0F0"/>
<path d="M7.64648 50.8585H45.3331L46.8865 25.5012H9.79485L7.64648 50.8585Z" fill="#E0E0E0"/>
<path d="M7.64648 50.8585H45.3331L46.6281 24.6962H8.94289L7.64648 50.8585Z" fill="#F0F0F0"/>
<path d="M7.64648 50.8585H45.3331L45.8457 24.6962H8.94289L7.64648 50.8585Z" fill="#E0E0E0"/>
<path d="M7.64648 50.8584H45.3331L45.5574 23.9861H7.87225L7.64648 50.8584Z" fill="#F0F0F0"/>
<path d="M7.64683 50.8585H45.3334L44.5596 24.4945H7.11719L7.64683 50.8585Z" fill="#E0E0E0"/>
<path d="M7.64679 50.8585H45.3334L44.2145 24.6962H6.5293L7.64679 50.8585Z" fill="#F0F0F0"/>
<path d="M7.64779 50.8584H45.3344L43.5524 25.0908H5.86719L7.64779 50.8584Z" fill="#E0E0E0"/>
<path d="M7.64662 50.8586H45.3332L43.2672 25.311H5.58203L7.64662 50.8586Z" fill="#F0F0F0"/>
<path d="M26.5193 27.0842C26.5214 26.9195 26.5566 26.7568 26.6229 26.606C26.6891 26.4551 26.7851 26.3192 26.905 26.2062C27.0249 26.0931 27.1663 26.0054 27.3208 25.9482C27.4753 25.891 27.6397 25.8654 27.8043 25.873H39.1709C39.611 25.8899 40.033 26.0525 40.3707 26.3352C40.7084 26.6179 40.9427 27.0047 41.0367 27.435L45.528 50.438C45.6955 51.2999 45.1332 51.9999 44.2713 51.9999H8.20489C7.34157 51.9999 6.50096 51.2999 6.33767 50.438L2.63305 31.4747C2.4655 30.6128 3.02779 29.9127 3.8897 29.9127H23.5175C25.2214 29.9127 26.461 28.7399 26.5193 27.0842Z" fill="#FFAA00"/>
<path d="M26.5193 27.0842C26.5214 26.9195 26.5566 26.7568 26.6229 26.606C26.6891 26.4551 26.7851 26.3192 26.905 26.2062C27.0249 26.0931 27.1663 26.0054 27.3208 25.9482C27.4753 25.891 27.6397 25.8654 27.8043 25.873H39.1709C39.611 25.8899 40.033 26.0525 40.3707 26.3352C40.7084 26.6179 40.9427 27.0047 41.0367 27.435L45.528 50.438C45.6955 51.2999 45.1332 51.9999 44.2713 51.9999H8.20489C7.34157 51.9999 6.50096 51.2999 6.33767 50.438L2.63305 31.4747C2.4655 30.6128 3.02779 29.9127 3.8897 29.9127H23.5175C25.2214 29.9127 26.461 28.7399 26.5193 27.0842Z" fill="url(#paint0_linear_1704_11619)" fill-opacity="0.75"/>
<defs>
<linearGradient id="paint0_linear_1704_11619" x1="42.4971" y1="78.5001" x2="19.4971" y2="34.0001" gradientUnits="userSpaceOnUse">
<stop stop-opacity="0.4"/>
<stop offset="1" stop-opacity="0"/>
</linearGradient>
</defs>
</svg>
