<svg width="24" height="24" viewBox="0 0 24 24" fill="none" xmlns="http://www.w3.org/2000/svg">
<path d="M10.8004 2.39999C10.1639 2.39999 9.55342 2.65285 9.10333 3.10294C8.65325 3.55302 8.40039 4.16347 8.40039 4.79999V14.4C8.40039 15.0365 8.65325 15.647 9.10333 16.097C9.55342 16.5471 10.1639 16.8 10.8004 16.8H18.0004C18.6369 16.8 19.2474 16.5471 19.6974 16.097C20.1475 15.647 20.4004 15.0365 20.4004 14.4V7.69679C20.4003 7.06033 20.1473 6.44998 19.6972 5.99999L16.8004 3.10319C16.3504 2.65308 15.7401 2.40013 15.1036 2.39999H10.8004Z" fill="#2DB2A7"/>
<path d="M3.59961 9.6C3.59961 8.96348 3.85247 8.35303 4.30255 7.90294C4.75264 7.45285 5.36309 7.2 5.99961 7.2V19.2H15.5996C15.5996 19.8365 15.3468 20.447 14.8967 20.8971C14.4466 21.3471 13.8361 21.6 13.1996 21.6H5.99961C5.36309 21.6 4.75264 21.3471 4.30255 20.8971C3.85247 20.447 3.59961 19.8365 3.59961 19.2V9.6Z" fill="#2DB2A7"/>
</svg>
