<svg width="141" height="90" viewBox="0 0 141 90" fill="none" xmlns="http://www.w3.org/2000/svg">
<path d="M0 19H141V81.0452C141 85.4634 137.418 89.0452 133 89.0452H8C3.58172 89.0452 0 85.4634 0 81.0452V19Z" fill="#F0F2F9"/>
<g opacity="0.5">
<path d="M69 34C78.936 34 87 42.064 87 52C87 61.936 78.936 70 69 70C59.064 70 51 61.936 51 52C51 42.064 59.064 34 69 34ZM69 66C76.734 66 83 59.734 83 52C83 44.264 76.734 38 69 38C61.264 38 55 44.264 55 52C55 59.734 61.264 66 69 66ZM85.97 66.142L91.628 71.798L88.798 74.628L83.142 68.97L85.97 66.142Z" fill="#182252"/>
</g>
<path d="M0 8C0 3.58172 3.58172 0 8 0H133C137.418 0 141 3.58172 141 8V16H0V8Z" fill="#182252"/>
<rect opacity="0.8" x="11.8096" y="7" width="26.3806" height="2" rx="1" fill="#F0F2F9"/>
<rect opacity="0.8" x="51.1904" y="7" width="37" height="2" rx="1" fill="#F0F2F9"/>
<rect opacity="0.8" x="101.19" y="7" width="28" height="2" rx="1" fill="#F0F2F9"/>
</svg>
