<svg width="16" height="16" viewBox="0 0 16 16" fill="none" xmlns="http://www.w3.org/2000/svg">
<path d="M7.9999 9.5999C8.42425 9.5999 8.83121 9.43133 9.13127 9.13127C9.43133 8.83121 9.5999 8.42425 9.5999 7.9999C9.5999 7.57556 9.43133 7.16859 9.13127 6.86853C8.83121 6.56847 8.42425 6.3999 7.9999 6.3999C7.57556 6.3999 7.16859 6.56847 6.86853 6.86853C6.56847 7.16859 6.3999 7.57556 6.3999 7.9999C6.3999 8.42425 6.56847 8.83121 6.86853 9.13127C7.16859 9.43133 7.57556 9.5999 7.9999 9.5999Z" fill="#1890FF"/>
<path fill-rule="evenodd" clip-rule="evenodd" d="M0.366455 7.9999C1.38566 4.7543 4.41765 2.3999 8.00006 2.3999C11.5825 2.3999 14.6145 4.7543 15.6337 7.9999C14.6145 11.2455 11.5825 13.5999 8.00006 13.5999C4.41765 13.5999 1.38566 11.2455 0.366455 7.9999ZM11.2001 7.9999C11.2001 8.84859 10.8629 9.66253 10.2628 10.2626C9.66268 10.8628 8.84875 11.1999 8.00006 11.1999C7.15136 11.1999 6.33743 10.8628 5.73731 10.2626C5.1372 9.66253 4.80005 8.84859 4.80005 7.9999C4.80005 7.15121 5.1372 6.33728 5.73731 5.73716C6.33743 5.13704 7.15136 4.7999 8.00006 4.7999C8.84875 4.7999 9.66268 5.13704 10.2628 5.73716C10.8629 6.33728 11.2001 7.15121 11.2001 7.9999V7.9999Z" fill="#1890FF"/>
</svg>
