<svg width="57" height="56" viewBox="0 0 57 56" fill="none" xmlns="http://www.w3.org/2000/svg">
<path d="M37.366 5.15779C36.4093 4.20112 34.7526 4.85446 34.7526 6.18446V14.3278C34.7526 17.7345 37.646 20.5578 41.1693 20.5578C43.386 20.5811 46.466 20.5811 49.1026 20.5811C50.4326 20.5811 51.1326 19.0178 50.1993 18.0845C46.8393 14.7011 40.8193 8.61112 37.366 5.15779Z" fill="#4C11AB"/>
<path d="M48.3333 23.777H41.59C36.06 23.777 31.5567 19.2737 31.5567 13.7437V7.00033C31.5567 5.71699 30.5067 4.66699 29.2233 4.66699H19.33C12.1433 4.66699 6.33334 9.33366 6.33334 17.6637V38.337C6.33334 46.667 12.1433 51.3337 19.33 51.3337H37.67C44.8567 51.3337 50.6667 46.667 50.6667 38.337V26.1103C50.6667 24.827 49.6167 23.777 48.3333 23.777ZM27.3333 41.417H18C17.0433 41.417 16.25 40.6237 16.25 39.667C16.25 38.7103 17.0433 37.917 18 37.917H27.3333C28.29 37.917 29.0833 38.7103 29.0833 39.667C29.0833 40.6237 28.29 41.417 27.3333 41.417ZM32 32.0837H18C17.0433 32.0837 16.25 31.2903 16.25 30.3337C16.25 29.377 17.0433 28.5837 18 28.5837H32C32.9567 28.5837 33.75 29.377 33.75 30.3337C33.75 31.2903 32.9567 32.0837 32 32.0837Z" fill="#4C11AB"/>
</svg>
