<svg width="64" height="64" viewBox="0 0 64 64" fill="none" xmlns="http://www.w3.org/2000/svg">
<g opacity="0.2" clip-path="url(#clip0_1704_11516)">
<path d="M37.172 0H16C13.8783 0 11.8434 0.842855 10.3431 2.34315C8.84285 3.84344 8 5.87827 8 8V56C8 58.1217 8.84285 60.1566 10.3431 61.6569C11.8434 63.1571 13.8783 64 16 64H48C50.1217 64 52.1566 63.1571 53.6569 61.6569C55.1571 60.1566 56 58.1217 56 56V18.828C55.9998 17.7672 55.5782 16.75 54.828 16L40 1.172C39.25 0.421803 38.2328 0.00022655 37.172 0V0ZM38 14V6L50 18H42C40.9391 18 39.9217 17.5786 39.1716 16.8284C38.4214 16.0783 38 15.0609 38 14ZM18 36C17.4696 36 16.9609 35.7893 16.5858 35.4142C16.2107 35.0391 16 34.5304 16 34C16 33.4696 16.2107 32.9609 16.5858 32.5858C16.9609 32.2107 17.4696 32 18 32H46C46.5304 32 47.0391 32.2107 47.4142 32.5858C47.7893 32.9609 48 33.4696 48 34C48 34.5304 47.7893 35.0391 47.4142 35.4142C47.0391 35.7893 46.5304 36 46 36H18ZM16 42C16 41.4696 16.2107 40.9609 16.5858 40.5858C16.9609 40.2107 17.4696 40 18 40H46C46.5304 40 47.0391 40.2107 47.4142 40.5858C47.7893 40.9609 48 41.4696 48 42C48 42.5304 47.7893 43.0391 47.4142 43.4142C47.0391 43.7893 46.5304 44 46 44H18C17.4696 44 16.9609 43.7893 16.5858 43.4142C16.2107 43.0391 16 42.5304 16 42ZM18 52C17.4696 52 16.9609 51.7893 16.5858 51.4142C16.2107 51.0391 16 50.5304 16 50C16 49.4696 16.2107 48.9609 16.5858 48.5858C16.9609 48.2107 17.4696 48 18 48H34C34.5304 48 35.0391 48.2107 35.4142 48.5858C35.7893 48.9609 36 49.4696 36 50C36 50.5304 35.7893 51.0391 35.4142 51.4142C35.0391 51.7893 34.5304 52 34 52H18Z" fill="#182252"/>
</g>
<defs>
<clipPath id="clip0_1704_11516">
<rect width="64" height="64" fill="white"/>
</clipPath>
</defs>
</svg>
