<svg width="20" height="20" viewBox="0 0 20 20" fill="none" xmlns="http://www.w3.org/2000/svg">
<g opacity="0.7">
<path d="M18.3337 6.04199H13.3337C12.992 6.04199 12.7087 5.75866 12.7087 5.41699C12.7087 5.07533 12.992 4.79199 13.3337 4.79199H18.3337C18.6753 4.79199 18.9587 5.07533 18.9587 5.41699C18.9587 5.75866 18.6753 6.04199 18.3337 6.04199ZM5.00033 6.04199H1.66699C1.32533 6.04199 1.04199 5.75866 1.04199 5.41699C1.04199 5.07533 1.32533 4.79199 1.66699 4.79199H5.00033C5.34199 4.79199 5.62533 5.07533 5.62533 5.41699C5.62533 5.75866 5.34199 6.04199 5.00033 6.04199Z" fill="#4C11AB"/>
<path d="M8.33366 8.95833C6.38366 8.95833 4.79199 7.36667 4.79199 5.41667C4.79199 3.46667 6.38366 1.875 8.33366 1.875C10.2837 1.875 11.8753 3.46667 11.8753 5.41667C11.8753 7.36667 10.2837 8.95833 8.33366 8.95833ZM8.33366 3.125C7.06699 3.125 6.04199 4.15 6.04199 5.41667C6.04199 6.68333 7.06699 7.70833 8.33366 7.70833C9.60033 7.70833 10.6253 6.68333 10.6253 5.41667C10.6253 4.15 9.60033 3.125 8.33366 3.125ZM18.3337 15.2083H15.0003C14.6587 15.2083 14.3753 14.925 14.3753 14.5833C14.3753 14.2417 14.6587 13.9583 15.0003 13.9583H18.3337C18.6753 13.9583 18.9587 14.2417 18.9587 14.5833C18.9587 14.925 18.6753 15.2083 18.3337 15.2083ZM6.66699 15.2083H1.66699C1.32533 15.2083 1.04199 14.925 1.04199 14.5833C1.04199 14.2417 1.32533 13.9583 1.66699 13.9583H6.66699C7.00866 13.9583 7.29199 14.2417 7.29199 14.5833C7.29199 14.925 7.00866 15.2083 6.66699 15.2083Z" fill="#4C11AB"/>
<path d="M11.6667 18.1253C9.71667 18.1253 8.125 16.5337 8.125 14.5837C8.125 12.6337 9.71667 11.042 11.6667 11.042C13.6167 11.042 15.2083 12.6337 15.2083 14.5837C15.2083 16.5337 13.6167 18.1253 11.6667 18.1253ZM11.6667 12.292C10.4 12.292 9.375 13.317 9.375 14.5837C9.375 15.8503 10.4 16.8753 11.6667 16.8753C12.9333 16.8753 13.9583 15.8503 13.9583 14.5837C13.9583 13.317 12.9333 12.292 11.6667 12.292Z" fill="#4C11AB"/>
</g>
</svg>
