<svg width="60" height="60" viewBox="0 0 60 60" fill="none" xmlns="http://www.w3.org/2000/svg">
<rect x="0.871094" y="0.0535889" width="59.0517" height="59.125" rx="8" fill="#407BFF" fill-opacity="0.15"/>
<path d="M22.6237 22.3331L22.3588 21.589C22.1766 21.0777 21.8262 20.6433 21.365 20.3569C20.9037 20.0705 20.359 19.9492 19.8198 20.0127L9.26876 21.2468C8.63669 21.321 8.05995 21.6431 7.66538 22.1424C7.27081 22.6418 7.09072 23.2774 7.16473 23.9094L10.1673 49.5861C10.1923 49.8009 10.2593 50.0086 10.3646 50.1975C10.4699 50.3863 10.6113 50.5525 10.7809 50.6866C10.9505 50.8207 11.1448 50.9201 11.3529 50.979C11.5609 51.0379 11.7785 51.0553 11.9932 51.03L49.7465 46.6144C49.9617 46.5901 50.1699 46.5234 50.3592 46.4184C50.5486 46.3133 50.7153 46.1719 50.8499 46.0023C50.9844 45.8326 51.0842 45.6381 51.1434 45.4298C51.2026 45.2216 51.2201 45.0036 51.1949 44.7886L48.5897 22.5914C48.5393 22.1581 48.3189 21.7625 47.9769 21.4918C47.6349 21.221 47.1993 21.0971 46.766 21.1475L24.8426 23.7129C24.3712 23.7675 23.8953 23.6608 23.4924 23.4102C23.0894 23.1596 22.7832 22.78 22.6237 22.3331Z" fill="#407BFF"/>
<path d="M23.6782 11.1672L11.75 13.5442L15.0249 29.9783L26.9531 27.6013L23.6782 11.1672Z" fill="#407BFF"/>
<path opacity="0.7" d="M23.6782 11.1672L11.75 13.5442L15.0249 29.9783L26.9531 27.6013L23.6782 11.1672Z" fill="white"/>
<g opacity="0.4">
<path opacity="0.4" d="M22.0858 15.1158L14.7382 16.5818C14.5671 16.615 14.3897 16.5794 14.2446 16.4827C14.0996 16.386 13.9985 16.2359 13.9633 16.0652C13.9301 15.894 13.9657 15.7166 14.0624 15.5715C14.1591 15.4265 14.3092 15.3254 14.4799 15.2902L21.8319 13.8309C22.0031 13.7976 22.1804 13.8332 22.3255 13.93C22.4706 14.0267 22.5717 14.1767 22.6068 14.3475C22.638 14.5183 22.6009 14.6945 22.5034 14.8382C22.406 14.9819 22.256 15.0816 22.0858 15.1158Z" fill="#407BFF"/>
<path opacity="0.4" d="M22.6262 17.838L15.2786 19.3106C15.1078 19.3432 14.931 19.3073 14.7864 19.2106C14.6418 19.114 14.5411 18.9643 14.5059 18.794C14.4733 18.6232 14.5092 18.4464 14.6059 18.3018C14.7025 18.1572 14.8522 18.0565 15.0225 18.0213L22.37 16.5575C22.5409 16.5249 22.7177 16.5608 22.8623 16.6575C23.0068 16.7542 23.1076 16.9038 23.1428 17.0741C23.1728 17.2436 23.1357 17.4182 23.0392 17.5608C22.9428 17.7034 22.7947 17.8028 22.6262 17.838Z" fill="#407BFF"/>
<path opacity="0.4" d="M23.1672 20.5559L15.8196 22.0196C15.6488 22.0522 15.472 22.0163 15.3274 21.9196C15.1828 21.823 15.0821 21.6733 15.0469 21.503C15.0143 21.3322 15.0502 21.1554 15.1469 21.0108C15.2435 20.8662 15.3932 20.7655 15.5635 20.7303L22.9111 19.2643C23.0819 19.2317 23.2587 19.2676 23.4033 19.3643C23.5479 19.461 23.6486 19.6106 23.6838 19.7809C23.717 19.9521 23.6814 20.1294 23.5847 20.2745C23.488 20.4196 23.3379 20.5207 23.1672 20.5559Z" fill="#407BFF"/>
<path opacity="0.4" d="M23.7108 23.2847L16.3632 24.7484C16.1921 24.7817 16.0147 24.746 15.8696 24.6493C15.7246 24.5526 15.6235 24.4026 15.5883 24.2318C15.5551 24.0606 15.5907 23.8833 15.6874 23.7382C15.7841 23.5931 15.9342 23.492 16.1049 23.4569L23.4525 21.9931C23.6237 21.9599 23.801 21.9955 23.9461 22.0922C24.0912 22.1889 24.1923 22.3389 24.2274 22.5097C24.2607 22.6809 24.225 22.8583 24.1283 23.0033C24.0316 23.1484 23.8816 23.2495 23.7108 23.2847Z" fill="#407BFF"/>
<path opacity="0.4" d="M22.2425 26.3911L16.904 27.4552C16.7332 27.4878 16.5564 27.4519 16.4118 27.3552C16.2672 27.2586 16.1665 27.1089 16.1313 26.9386C16.0981 26.7674 16.1337 26.5901 16.2304 26.445C16.3271 26.2999 16.4771 26.1988 16.6479 26.1637L21.9864 25.0995C22.1572 25.0669 22.334 25.1028 22.4786 25.1995C22.6231 25.2962 22.7239 25.4458 22.7591 25.6161C22.7923 25.7873 22.7567 25.9647 22.66 26.1097C22.5633 26.2548 22.4132 26.3559 22.2425 26.3911Z" fill="#407BFF"/>
</g>
<path d="M40.6736 8.00011L28.623 9.64868L30.8944 26.2512L42.9449 24.6027L40.6736 8.00011Z" fill="#407BFF"/>
<path opacity="0.7" d="M40.6736 8.00011L28.623 9.64868L30.8944 26.2512L42.9449 24.6027L40.6736 8.00011Z" fill="white"/>
<g opacity="0.4">
<path opacity="0.4" d="M38.8439 11.8483L31.4213 12.8639C31.2484 12.8865 31.0736 12.8401 30.9347 12.7348C30.7958 12.6294 30.7041 12.4735 30.6795 12.3009C30.6568 12.128 30.7032 11.9532 30.8086 11.8143C30.914 11.6754 31.0699 11.5837 31.2424 11.5591L38.6651 10.5435C38.8379 10.5208 39.0127 10.5672 39.1516 10.6726C39.2905 10.778 39.3822 10.9339 39.4069 11.1065C39.4296 11.2793 39.3832 11.4541 39.2778 11.593C39.1724 11.7319 39.0165 11.8236 38.8439 11.8483Z" fill="#407BFF"/>
<path opacity="0.4" d="M39.2186 14.5925L31.796 15.608C31.6231 15.6307 31.4483 15.5843 31.3094 15.4789C31.1706 15.3735 31.0788 15.2176 31.0542 15.045C31.0321 14.8725 31.0788 14.6983 31.1841 14.5599C31.2895 14.4215 31.445 14.3301 31.6172 14.3054L39.0398 13.2898C39.2123 13.2671 39.3868 13.3132 39.5257 13.4182C39.6645 13.5231 39.7564 13.6785 39.7816 13.8506C39.8043 14.0235 39.7579 14.1983 39.6525 14.3372C39.5471 14.4761 39.3912 14.5678 39.2186 14.5925Z" fill="#407BFF"/>
<path opacity="0.4" d="M34.2177 18.0742L32.1732 18.3546C32.0004 18.3773 31.8255 18.3309 31.6867 18.2255C31.5478 18.1201 31.4561 17.9642 31.4314 17.7916C31.4087 17.6187 31.4551 17.4439 31.5605 17.305C31.6659 17.1662 31.8218 17.0744 31.9944 17.0498L34.041 16.7694C34.2135 16.7473 34.3878 16.794 34.5262 16.8994C34.6646 17.0047 34.756 17.1602 34.7806 17.3324C34.8033 17.5052 34.7569 17.6801 34.6515 17.8189C34.5461 17.9578 34.3902 18.0495 34.2177 18.0742Z" fill="#407BFF"/>
<path opacity="0.4" d="M38.1845 17.5311L36.1378 17.8114C35.9653 17.8335 35.7911 17.7868 35.6527 17.6815C35.5143 17.5761 35.4229 17.4206 35.3982 17.2485C35.3755 17.0756 35.4219 16.9008 35.5273 16.7619C35.6327 16.623 35.7886 16.5313 35.9612 16.5066L38.0056 16.2284C38.1781 16.2057 38.3527 16.2518 38.4915 16.3568C38.6303 16.4617 38.7222 16.6171 38.7474 16.7892C38.7701 16.9621 38.7237 17.1369 38.6183 17.2758C38.5129 17.4147 38.357 17.5064 38.1845 17.5311Z" fill="#407BFF"/>
<path opacity="0.4" d="M39.9706 20.0833L32.5479 21.0989C32.3751 21.1215 32.2003 21.0751 32.0614 20.9697C31.9225 20.8643 31.8308 20.7084 31.8061 20.5359C31.7841 20.3634 31.8308 20.1891 31.9361 20.0507C32.0414 19.9123 32.197 19.8209 32.3691 19.7963L39.7917 18.7785C39.9646 18.7558 40.1394 18.8022 40.2783 18.9076C40.4172 19.013 40.5089 19.1689 40.5336 19.3414C40.5562 19.5143 40.5098 19.6891 40.4044 19.828C40.2991 19.9669 40.1432 20.0586 39.9706 20.0833Z" fill="#407BFF"/>
<path opacity="0.4" d="M38.3189 23.1057L32.923 23.8431C32.7508 23.8652 32.5769 23.8188 32.4386 23.714C32.3002 23.6091 32.2086 23.4541 32.1834 23.2823C32.1607 23.1098 32.2068 22.9353 32.3117 22.7965C32.4167 22.6577 32.572 22.5657 32.7442 22.5405L38.14 21.8031C38.3122 21.781 38.4862 21.8274 38.6245 21.9323C38.7628 22.0372 38.8545 22.1922 38.8797 22.3639C38.9024 22.5364 38.8563 22.711 38.7513 22.8498C38.6464 22.9886 38.4911 23.0805 38.3189 23.1057Z" fill="#407BFF"/>
</g>
<path d="M29.3024 10.4224L17.1855 11.4783L18.6402 28.1722L30.7571 27.1164L29.3024 10.4224Z" fill="#407BFF"/>
<path opacity="0.8" d="M29.3024 10.4224L17.1855 11.4783L18.6402 28.1722L30.7571 27.1164L29.3024 10.4224Z" fill="white"/>
<g opacity="0.4">
<path opacity="0.4" d="M27.2871 14.1798L19.8225 14.8288C19.6489 14.843 19.4766 14.7881 19.3432 14.6761C19.2097 14.5641 19.1257 14.404 19.1094 14.2305C19.0959 14.0572 19.1511 13.8856 19.263 13.7526C19.3749 13.6196 19.5347 13.5359 19.7077 13.5196L27.1723 12.8573C27.346 12.8432 27.5182 12.898 27.6517 13.01C27.7852 13.122 27.8692 13.2821 27.8854 13.4556C27.8939 13.5425 27.8852 13.6302 27.8597 13.7137C27.8342 13.7972 27.7925 13.8748 27.7369 13.9421C27.6812 14.0094 27.6129 14.065 27.5357 14.1058C27.4585 14.1466 27.374 14.1717 27.2871 14.1798Z" fill="#407BFF"/>
<path opacity="0.4" d="M27.5275 16.9395L20.063 17.6018C19.8893 17.6159 19.717 17.561 19.5836 17.449C19.4501 17.3371 19.3661 17.177 19.3498 17.0035C19.3357 16.8298 19.3906 16.6576 19.5026 16.5241C19.6146 16.3906 19.7747 16.3066 19.9481 16.2904L27.4127 15.628C27.5864 15.6139 27.7586 15.6688 27.8921 15.7808C28.0256 15.8928 28.1096 16.0529 28.1258 16.2263C28.14 16.4 28.0851 16.5723 27.9731 16.7057C27.8611 16.8392 27.701 16.9232 27.5275 16.9395Z" fill="#407BFF"/>
<path opacity="0.4" d="M27.7697 19.6992L20.3051 20.3616C20.1315 20.3757 19.9592 20.3208 19.8258 20.2088C19.6923 20.0968 19.6083 19.9367 19.592 19.7633C19.5779 19.5896 19.6328 19.4173 19.7448 19.2839C19.8568 19.1504 20.0169 19.0664 20.1903 19.0501L27.6549 18.3878C27.8286 18.3737 28.0008 18.4286 28.1343 18.5406C28.2678 18.6525 28.3518 18.8126 28.368 18.9861C28.3821 19.1598 28.3273 19.332 28.2153 19.4655C28.1033 19.599 27.9432 19.683 27.7697 19.6992Z" fill="#407BFF"/>
<path opacity="0.4" d="M28.0139 22.4589L20.5493 23.1213C20.3756 23.1354 20.2034 23.0805 20.0699 22.9685C19.9364 22.8565 19.8524 22.6964 19.8362 22.523C19.822 22.3493 19.8769 22.1771 19.9889 22.0436C20.1009 21.9101 20.261 21.8261 20.4345 21.8098L27.899 21.1607C28.0727 21.1466 28.245 21.2015 28.3784 21.3135C28.5119 21.4255 28.5959 21.5856 28.6122 21.7591C28.6227 21.9305 28.5661 22.0994 28.4545 22.23C28.3429 22.3605 28.1849 22.4426 28.0139 22.4589Z" fill="#407BFF"/>
<path opacity="0.4" d="M26.209 25.3976L20.7844 25.8701C20.6097 25.886 20.4357 25.832 20.3008 25.7198C20.1658 25.6076 20.0809 25.4465 20.0647 25.2718C20.0506 25.0981 20.1054 24.9258 20.2174 24.7924C20.3294 24.6589 20.4895 24.5749 20.663 24.5586L26.0876 24.0862C26.2612 24.072 26.4335 24.1269 26.5669 24.2389C26.7004 24.3509 26.7844 24.511 26.8007 24.6845C26.8149 24.8571 26.7609 25.0284 26.6503 25.1617C26.5397 25.295 26.3813 25.3797 26.209 25.3976Z" fill="#407BFF"/>
</g>
<path d="M44.0666 9.61135L31.918 10.197L32.7249 26.9348L44.8735 26.3491L44.0666 9.61135Z" fill="#407BFF"/>
<path opacity="0.8" d="M44.0666 9.61135L31.918 10.197L32.7249 26.9348L44.8735 26.3491L44.0666 9.61135Z" fill="white"/>
<g opacity="0.4">
<path opacity="0.4" d="M41.9099 13.2833L34.4277 13.6454C34.2538 13.6526 34.0841 13.5911 33.9552 13.4742C33.8263 13.3573 33.7486 13.1944 33.7389 13.0206C33.7316 12.8467 33.7931 12.677 33.91 12.5481C34.027 12.4192 34.1899 12.3415 34.3637 12.3318L41.8481 11.9697C42.022 11.9625 42.1917 12.0239 42.3206 12.1409C42.4495 12.2578 42.5272 12.4207 42.5369 12.5945C42.5441 12.7687 42.4824 12.9388 42.365 13.0678C42.2476 13.1967 42.0841 13.2742 41.9099 13.2833Z" fill="#407BFF"/>
<path opacity="0.4" d="M42.0449 16.0519L34.5605 16.4118C34.3866 16.419 34.2169 16.3575 34.088 16.2406C33.9591 16.1237 33.8814 15.9607 33.8717 15.787C33.8644 15.6127 33.9262 15.4427 34.0436 15.3137C34.161 15.1847 34.3245 15.1073 34.4987 15.0981L41.9809 14.736C42.1551 14.7288 42.3252 14.7906 42.4542 14.908C42.5831 15.0254 42.6606 15.1889 42.6697 15.3631C42.677 15.5369 42.6155 15.7067 42.4986 15.8356C42.3816 15.9645 42.2187 16.0422 42.0449 16.0519Z" fill="#407BFF"/>
<path opacity="0.4" d="M36.7574 19.0899L34.6953 19.1892C34.5214 19.1964 34.3517 19.1349 34.2228 19.018C34.0939 18.9011 34.0161 18.7382 34.0064 18.5644C33.9992 18.3905 34.0607 18.2208 34.1776 18.0919C34.2945 17.963 34.4575 17.8853 34.6312 17.8756L36.6933 17.774C36.8676 17.7668 37.0376 17.8286 37.1666 17.946C37.2955 18.0634 37.373 18.2269 37.3822 18.401C37.3894 18.5749 37.3279 18.7446 37.211 18.8735C37.0941 19.0024 36.9311 19.0801 36.7574 19.0899Z" fill="#407BFF"/>
<path opacity="0.4" d="M40.7554 18.8867L38.6933 18.9861C38.5194 18.9933 38.3497 18.9318 38.2208 18.8149C38.0919 18.698 38.0142 18.535 38.0045 18.3613C37.9972 18.1874 38.0587 18.0176 38.1757 17.8887C38.2926 17.7598 38.4555 17.6821 38.6293 17.6724L40.6914 17.5731C40.8652 17.5659 41.035 17.6273 41.1639 17.7443C41.2928 17.8612 41.3705 18.0241 41.3802 18.1979C41.3874 18.3718 41.3259 18.5415 41.209 18.6704C41.0921 18.7993 40.9292 18.877 40.7554 18.8867Z" fill="#407BFF"/>
<path opacity="0.4" d="M42.3106 21.5869L34.8261 21.9468C34.6522 21.954 34.4825 21.8925 34.3536 21.7756C34.2247 21.6587 34.147 21.4957 34.1373 21.322C34.1301 21.1477 34.1919 20.9777 34.3092 20.8487C34.4266 20.7198 34.5902 20.6423 34.7643 20.6332L42.2465 20.2711C42.4208 20.2639 42.5908 20.3256 42.7198 20.443C42.8487 20.5604 42.9262 20.7239 42.9354 20.8981C42.9426 21.072 42.8811 21.2417 42.7642 21.3706C42.6473 21.4995 42.4843 21.5772 42.3106 21.5869Z" fill="#407BFF"/>
<path opacity="0.4" d="M40.3987 24.4526L34.9609 24.7154C34.787 24.7226 34.6173 24.6611 34.4884 24.5442C34.3595 24.4273 34.2818 24.2643 34.2721 24.0906C34.2648 23.9167 34.3263 23.7469 34.4432 23.618C34.5602 23.4891 34.7231 23.4114 34.8969 23.4017L40.3347 23.139C40.5085 23.1318 40.6783 23.1933 40.8072 23.3102C40.9361 23.4271 41.0138 23.5901 41.0235 23.7638C41.0307 23.9377 40.9692 24.1074 40.8523 24.2363C40.7354 24.3652 40.5725 24.4429 40.3987 24.4526Z" fill="#407BFF"/>
</g>
<path d="M25.9916 22.8078L25.7973 22.0814C25.6612 21.5787 25.3452 21.1436 24.9092 20.8586C24.4733 20.5737 23.9478 20.4589 23.4328 20.536L12.8817 21.7701C12.2416 21.8486 11.6521 22.1578 11.2237 22.6399C10.7953 23.1219 10.5574 23.7437 10.5547 24.3886L11.153 49.5244C11.1566 49.7314 11.2044 49.9353 11.2933 50.1223C11.3823 50.3093 11.5102 50.4751 11.6685 50.6085C11.8269 50.742 12.0119 50.8399 12.2113 50.8959C12.4106 50.9519 12.6197 50.9645 12.8243 50.933L50.5777 46.5174C51.016 46.4642 51.4199 46.253 51.7138 45.9234C52.0076 45.5938 52.1712 45.1684 52.1739 44.7268L51.6573 22.9977C51.6534 22.7905 51.6053 22.5866 51.5161 22.3996C51.4269 22.2127 51.2988 22.0469 51.1403 21.9135C50.9818 21.7801 50.7966 21.6821 50.5971 21.6262C50.3977 21.5702 50.1885 21.5576 49.9838 21.5891L28.0625 24.1524C27.6125 24.2211 27.153 24.1221 26.7712 23.8742C26.3894 23.6263 26.112 23.2468 25.9916 22.8078Z" fill="#407BFF"/>
<path d="M25.9916 22.8078L25.7973 22.0814C25.6612 21.5787 25.3452 21.1436 24.9092 20.8586C24.4733 20.5737 23.9478 20.4589 23.4328 20.536L12.8817 21.7701C12.2416 21.8486 11.6521 22.1578 11.2237 22.6399C10.7953 23.1219 10.5574 23.7437 10.5547 24.3886L11.153 49.5244C11.1566 49.7314 11.2044 49.9353 11.2933 50.1223C11.3823 50.3093 11.5102 50.4751 11.6685 50.6085C11.8269 50.742 12.0119 50.8399 12.2113 50.8959C12.4106 50.9519 12.6197 50.9645 12.8243 50.933L50.5777 46.5174C51.016 46.4642 51.4199 46.253 51.7138 45.9234C52.0076 45.5938 52.1712 45.1684 52.1739 44.7268L51.6573 22.9977C51.6534 22.7905 51.6053 22.5866 51.5161 22.3996C51.4269 22.2127 51.2988 22.0469 51.1403 21.9135C50.9818 21.7801 50.7966 21.6821 50.5971 21.6262C50.3977 21.5702 50.1885 21.5576 49.9838 21.5891L28.0625 24.1524C27.6125 24.2211 27.153 24.1221 26.7712 23.8742C26.3894 23.6263 26.112 23.2468 25.9916 22.8078Z" fill="url(#paint0_linear_1704_11540)"/>
<defs>
<linearGradient id="paint0_linear_1704_11540" x1="58.499" y1="64.0001" x2="17.499" y2="9.50012" gradientUnits="userSpaceOnUse">
<stop offset="0.0251743" stop-opacity="0.53"/>
<stop offset="0.928853" stop-opacity="0"/>
</linearGradient>
</defs>
</svg>
