<svg width="20" height="20" viewBox="0 0 20 20" fill="none" xmlns="http://www.w3.org/2000/svg">
<path d="M5.83331 10.833C7.4605 10.833 8.37279 10.833 9.99998 10.833M5.83331 14.1663C7.29778 14.1663 8.11885 14.1663 9.58331 14.1663C11.0478 14.1663 11.8688 14.1663 13.3333 14.1663" stroke="#3A2E4D" stroke-width="1.5" stroke-linecap="round" stroke-linejoin="round"/>
<path d="M15.8333 6.66699C17.2141 6.66699 18.3333 5.5477 18.3333 4.16699C18.3333 2.78628 17.2141 1.66699 15.8333 1.66699C14.4526 1.66699 13.3333 2.78628 13.3333 4.16699C13.3333 5.5477 14.4526 6.66699 15.8333 6.66699Z" stroke="#3A2E4D" stroke-width="1.5" stroke-linecap="round" stroke-linejoin="round"/>
<path d="M11.6667 1.66699H7.50002C3.33335 1.66699 1.66669 3.33366 1.66669 7.50033V12.5003C1.66669 16.667 3.33335 18.3337 7.50002 18.3337H12.5C16.6667 18.3337 18.3334 16.667 18.3334 12.5003V8.33366" stroke="#3A2E4D" stroke-width="1.5" stroke-linecap="round" stroke-linejoin="round"/>
</svg>
