<svg width="16" height="17" viewBox="0 0 16 17" fill="none" xmlns="http://www.w3.org/2000/svg">
<path d="M10.533 1.97365C10.2597 1.70032 9.78638 1.88699 9.78638 2.26699V4.59365C9.78638 5.56699 10.613 6.37366 11.6197 6.37366C12.253 6.38032 13.133 6.38032 13.8864 6.38032C14.2664 6.38032 14.4664 5.93366 14.1997 5.66699C13.2397 4.70032 11.5197 2.96032 10.533 1.97365Z" fill="#FFBE16"/>
<path d="M13.6667 7.29398H11.7401C10.1601 7.29398 8.87341 6.00732 8.87341 4.42732V2.50065C8.87341 2.13398 8.57341 1.83398 8.20675 1.83398H5.38008C3.32675 1.83398 1.66675 3.16732 1.66675 5.54732V11.454C1.66675 13.834 3.32675 15.1673 5.38008 15.1673H10.6201C12.6734 15.1673 14.3334 13.834 14.3334 11.454V7.96065C14.3334 7.59398 14.0334 7.29398 13.6667 7.29398ZM7.66675 12.334H5.00008C4.72675 12.334 4.50008 12.1073 4.50008 11.834C4.50008 11.5607 4.72675 11.334 5.00008 11.334H7.66675C7.94008 11.334 8.16675 11.5607 8.16675 11.834C8.16675 12.1073 7.94008 12.334 7.66675 12.334ZM9.00008 9.66732H5.00008C4.72675 9.66732 4.50008 9.44065 4.50008 9.16732C4.50008 8.89398 4.72675 8.66732 5.00008 8.66732H9.00008C9.27341 8.66732 9.50008 8.89398 9.50008 9.16732C9.50008 9.44065 9.27341 9.66732 9.00008 9.66732Z" fill="#FFBE16"/>
</svg>
