<svg width="20" height="20" viewBox="0 0 20 20" fill="none" xmlns="http://www.w3.org/2000/svg">
<g opacity="0.7">
<path d="M9.16675 1.66669C13.3067 1.66669 16.6667 5.02669 16.6667 9.16669C16.6667 13.3067 13.3067 16.6667 9.16675 16.6667C5.02675 16.6667 1.66675 13.3067 1.66675 9.16669C1.66675 5.02669 5.02675 1.66669 9.16675 1.66669ZM9.16675 15C12.3892 15 15.0001 12.3892 15.0001 9.16669C15.0001 5.94335 12.3892 3.33335 9.16675 3.33335C5.94341 3.33335 3.33341 5.94335 3.33341 9.16669C3.33341 12.3892 5.94341 15 9.16675 15ZM16.2376 15.0592L18.5951 17.4159L17.4159 18.595L15.0592 16.2375L16.2376 15.0592Z" fill="#182252"/>
</g>
</svg>
