<svg width="96" height="96" viewBox="0 0 96 96" fill="none" xmlns="http://www.w3.org/2000/svg">
<path d="M15.0001 47.9999C14.9991 42.2068 16.5233 36.5155 19.4193 31.4981C22.3153 26.4808 26.481 22.3142 31.4978 19.4172C36.5146 16.5203 42.2056 14.995 47.9988 14.9948C53.7919 14.9945 59.483 16.5194 64.5001 19.4159C65.1887 19.8075 66.0043 19.9107 66.7689 19.7032C67.5334 19.4956 68.1848 18.9941 68.5809 18.308C68.977 17.622 69.0857 16.8071 68.8832 16.0412C68.6807 15.2753 68.1835 14.6206 67.5001 14.2199C60.0652 9.92743 51.4217 8.20806 42.9102 9.3285C34.3986 10.4489 26.4945 14.3465 20.4238 20.4169C14.3531 26.4872 10.4549 34.391 9.33395 42.9025C8.21297 51.4141 9.93178 60.0576 14.2238 67.4928C18.5158 74.9279 25.1413 80.7391 33.0725 84.025C41.0038 87.311 49.7977 87.8882 58.0904 85.667C66.3831 83.4458 73.7112 78.5505 78.9382 71.7401C84.1652 64.9297 86.999 56.585 87.0001 47.9999C87.0001 47.2043 86.684 46.4412 86.1214 45.8786C85.5588 45.316 84.7957 44.9999 84.0001 44.9999C83.2044 44.9999 82.4414 45.316 81.8787 45.8786C81.3161 46.4412 81.0001 47.2043 81.0001 47.9999C81.0001 56.7521 77.5233 65.1458 71.3346 71.3345C65.1459 77.5232 56.7522 80.9999 48.0001 80.9999C39.2479 80.9999 30.8542 77.5232 24.6655 71.3345C18.4768 65.1458 15.0001 56.7521 15.0001 47.9999Z" fill="#00A5AB"/>
<path d="M92.1239 20.1241C92.4028 19.8452 92.6241 19.5141 92.775 19.1496C92.926 18.7852 93.0037 18.3946 93.0037 18.0001C93.0037 17.6057 92.926 17.2151 92.775 16.8506C92.6241 16.4862 92.4028 16.1551 92.1239 15.8761C91.845 15.5972 91.5138 15.3759 91.1494 15.225C90.7849 15.074 90.3943 14.9963 89.9999 14.9963C89.6054 14.9963 89.2148 15.074 88.8504 15.225C88.4859 15.3759 88.1548 15.5972 87.8759 15.8761L47.9999 55.7581L32.1239 39.8761C31.845 39.5972 31.5138 39.3759 31.1494 39.225C30.7849 39.074 30.3943 38.9963 29.9999 38.9963C29.6054 38.9963 29.2148 39.074 28.8504 39.225C28.4859 39.3759 28.1548 39.5972 27.8759 39.8761C27.597 40.1551 27.3757 40.4862 27.2247 40.8506C27.0738 41.2151 26.9961 41.6057 26.9961 42.0001C26.9961 42.3946 27.0738 42.7852 27.2247 43.1496C27.3757 43.5141 27.597 43.8452 27.8759 44.1241L45.8759 62.1241C46.1546 62.4035 46.4856 62.6252 46.8501 62.7764C47.2146 62.9276 47.6053 63.0055 47.9999 63.0055C48.3945 63.0055 48.7852 62.9276 49.1497 62.7764C49.5142 62.6252 49.8452 62.4035 50.1239 62.1241L92.1239 20.1241Z" fill="#00A5AB"/>
</svg>
