<svg width="16" height="17" viewBox="0 0 16 17" fill="none" xmlns="http://www.w3.org/2000/svg">
<path d="M10.533 1.71584C10.2597 1.44251 9.78638 1.62918 9.78638 2.00918V4.33584C9.78638 5.30918 10.613 6.11584 11.6197 6.11584C12.253 6.12251 13.133 6.12251 13.8864 6.12251C14.2664 6.12251 14.4664 5.67584 14.1997 5.40918C13.2397 4.44251 11.5197 2.70251 10.533 1.71584Z" fill="#43B863"/>
<path d="M13.6667 7.03617H11.7401C10.1601 7.03617 8.87341 5.74951 8.87341 4.16951V2.24284C8.87341 1.87617 8.57341 1.57617 8.20675 1.57617H5.38008C3.32675 1.57617 1.66675 2.90951 1.66675 5.28951V11.1962C1.66675 13.5762 3.32675 14.9095 5.38008 14.9095H10.6201C12.6734 14.9095 14.3334 13.5762 14.3334 11.1962V7.70284C14.3334 7.33617 14.0334 7.03617 13.6667 7.03617ZM7.66675 12.0762H5.00008C4.72675 12.0762 4.50008 11.8495 4.50008 11.5762C4.50008 11.3028 4.72675 11.0762 5.00008 11.0762H7.66675C7.94008 11.0762 8.16675 11.3028 8.16675 11.5762C8.16675 11.8495 7.94008 12.0762 7.66675 12.0762ZM9.00008 9.40951H5.00008C4.72675 9.40951 4.50008 9.18284 4.50008 8.90951C4.50008 8.63617 4.72675 8.40951 5.00008 8.40951H9.00008C9.27341 8.40951 9.50008 8.63617 9.50008 8.90951C9.50008 9.18284 9.27341 9.40951 9.00008 9.40951Z" fill="#43B863"/>
</svg>
