<svg width="24" height="24" viewBox="0 0 24 24" fill="none" xmlns="http://www.w3.org/2000/svg">
<path fill-rule="evenodd" clip-rule="evenodd" d="M11.9996 10.8C12.9544 10.8 13.8701 10.4207 14.5452 9.74559C15.2203 9.07046 15.5996 8.15479 15.5996 7.20001C15.5996 6.24523 15.2203 5.32955 14.5452 4.65442C13.8701 3.97929 12.9544 3.60001 11.9996 3.60001C11.0448 3.60001 10.1292 3.97929 9.45403 4.65442C8.77889 5.32955 8.39961 6.24523 8.39961 7.20001C8.39961 8.15479 8.77889 9.07046 9.45403 9.74559C10.1292 10.4207 11.0448 10.8 11.9996 10.8ZM3.59961 21.6C3.59961 20.4969 3.81688 19.4046 4.23902 18.3855C4.66116 17.3663 5.2799 16.4403 6.05991 15.6603C6.83992 14.8803 7.76593 14.2616 8.78507 13.8394C9.8042 13.4173 10.8965 13.2 11.9996 13.2C13.1027 13.2 14.195 13.4173 15.2142 13.8394C16.2333 14.2616 17.1593 14.8803 17.9393 15.6603C18.7193 16.4403 19.3381 17.3663 19.7602 18.3855C20.1823 19.4046 20.3996 20.4969 20.3996 21.6H3.59961Z" fill="white"/>
</svg>
