<svg width="32" height="32" viewBox="0 0 32 32" fill="none" xmlns="http://www.w3.org/2000/svg">
<g clip-path="url(#clip0_1883_14456)">
<path d="M16 30C12.287 30 8.72601 28.525 6.1005 25.8995C3.475 23.274 2 19.713 2 16C2 12.287 3.475 8.72601 6.1005 6.1005C8.72601 3.475 12.287 2 16 2C19.713 2 23.274 3.475 25.8995 6.1005C28.525 8.72601 30 12.287 30 16C30 19.713 28.525 23.274 25.8995 25.8995C23.274 28.525 19.713 30 16 30ZM16 32C20.2435 32 24.3131 30.3143 27.3137 27.3137C30.3143 24.3131 32 20.2435 32 16C32 11.7565 30.3143 7.68687 27.3137 4.68629C24.3131 1.68571 20.2435 0 16 0C11.7565 0 7.68687 1.68571 4.68629 4.68629C1.68571 7.68687 0 11.7565 0 16C0 20.2435 1.68571 24.3131 4.68629 27.3137C7.68687 30.3143 11.7565 32 16 32Z" fill="#182252"/>
<path d="M14.0078 22.0001C14.0078 21.7375 14.0595 21.4774 14.1601 21.2347C14.2606 20.9921 14.4079 20.7716 14.5936 20.5859C14.7793 20.4002 14.9998 20.2529 15.2424 20.1524C15.4851 20.0518 15.7452 20.0001 16.0078 20.0001C16.2705 20.0001 16.5305 20.0518 16.7732 20.1524C17.0158 20.2529 17.2363 20.4002 17.422 20.5859C17.6077 20.7716 17.7551 20.9921 17.8556 21.2347C17.9561 21.4774 18.0078 21.7375 18.0078 22.0001C18.0078 22.5305 17.7971 23.0393 17.422 23.4143C17.047 23.7894 16.5382 24.0001 16.0078 24.0001C15.4774 24.0001 14.9687 23.7894 14.5936 23.4143C14.2185 23.0393 14.0078 22.5305 14.0078 22.0001ZM14.2038 9.99011C14.1772 9.73779 14.2039 9.4827 14.2822 9.24137C14.3605 9.00004 14.4887 8.77788 14.6585 8.58929C14.8282 8.4007 15.0357 8.2499 15.2674 8.14668C15.4992 8.04345 15.7501 7.99011 16.0038 7.99011C16.2575 7.99011 16.5084 8.04345 16.7402 8.14668C16.972 8.2499 17.1794 8.4007 17.3492 8.58929C17.5189 8.77788 17.6471 9.00004 17.7254 9.24137C17.8037 9.4827 17.8304 9.73779 17.8038 9.99011L17.1038 17.0041C17.0803 17.2797 16.9542 17.5363 16.7505 17.7234C16.5468 17.9104 16.2804 18.0142 16.0038 18.0142C15.7273 18.0142 15.4608 17.9104 15.2571 17.7234C15.0534 17.5363 14.9273 17.2797 14.9038 17.0041L14.2038 9.99011Z" fill="#182252"/>
</g>
<defs>
<clipPath id="clip0_1883_14456">
<rect width="32" height="32" fill="white"/>
</clipPath>
</defs>
</svg>
